<svg width="102" height="40" viewBox="0 0 102 40" fill="none" xmlns="http://www.w3.org/2000/svg">
<g id="Group 889">
<g id="Group 863">
<path id="Ellipse 116 (Stroke)" fill-rule="evenodd" clip-rule="evenodd" d="M11.4732 11.5529C10.321 12.7131 9.40707 14.0905 8.78352 15.6063C8.15997 17.1222 7.83903 18.7469 7.83903 20.3877C7.83903 22.0285 8.15997 23.6532 8.78352 25.169C9.40707 26.6849 10.321 28.0623 11.4732 29.2225C12.6253 30.3827 13.9932 31.303 15.4985 31.9309C17.0039 32.5588 18.6174 32.882 20.2468 32.882C21.8762 32.882 23.4897 32.5588 24.995 31.9309L25.7255 33.7068C23.9886 34.4313 22.1269 34.8042 20.2468 34.8042C18.3667 34.8042 16.505 34.4313 14.768 33.7068C13.0311 32.9823 11.4528 31.9204 10.1234 30.5817C8.79397 29.243 7.73942 27.6537 7.01994 25.9046C6.30046 24.1556 5.93015 22.2809 5.93015 20.3877C5.93015 18.4945 6.30046 16.6198 7.01994 14.8707C7.73942 13.1217 8.79397 11.5324 10.1234 10.1937C11.4528 8.85501 13.0311 7.7931 14.7681 7.0686C16.505 6.34411 18.3667 5.97121 20.2468 5.97121C22.1269 5.97121 23.9886 6.34411 25.7255 7.0686C27.4625 7.7931 29.0408 8.85501 30.3702 10.1937C31.6996 11.5324 32.7542 13.1217 33.4736 14.8707C34.1931 16.6198 34.5634 18.4945 34.5634 20.3877C34.5634 22.2809 34.1931 24.1556 33.4736 25.9046L31.7101 25.169C32.3336 23.6532 32.6546 22.0285 32.6546 20.3877C32.6546 18.7469 32.3336 17.1222 31.7101 15.6063C31.0865 14.0905 30.1726 12.7131 29.0204 11.5529C27.8682 10.3927 26.5004 9.47238 24.995 8.84448C23.4897 8.21658 21.8762 7.89341 20.2468 7.89341C18.6174 7.89341 17.0039 8.21658 15.4986 8.84448C13.9932 9.47238 12.6254 10.3927 11.4732 11.5529Z" fill="#0261FE"/>
<path id="Ellipse 117 (Stroke)" fill-rule="evenodd" clip-rule="evenodd" d="M14.173 14.2713C13.3754 15.0745 12.7426 16.0281 12.3109 17.0775C11.8793 18.127 11.6571 19.2518 11.6571 20.3877C11.6571 21.5236 11.8793 22.6484 12.3109 23.6979C12.7426 24.7473 13.3754 25.7009 14.173 26.5041C14.9707 27.3073 15.9176 27.9445 16.9598 28.3792C18.002 28.8138 19.119 29.0376 20.2471 29.0376C21.3751 29.0376 22.4921 28.8138 23.5343 28.3792L23.7784 28.2773L28.8324 29.0329L28.0821 23.9436L28.1832 23.6979C28.6149 22.6484 28.837 21.5236 28.837 20.3877C28.837 19.2518 28.6149 18.127 28.1832 17.0775C27.7515 16.0281 27.1188 15.0745 26.3211 14.2713C25.5234 13.4681 24.5765 12.8309 23.5343 12.3962C22.4921 11.9615 21.3751 11.7378 20.2471 11.7378C19.119 11.7378 18.002 11.9615 16.9598 12.3962C15.9176 12.8309 14.9707 13.4681 14.173 14.2713ZM10.5474 16.3419C11.075 15.0593 11.8483 13.8938 12.8232 12.9121C13.7981 11.9304 14.9555 11.1517 16.2293 10.6204C17.5031 10.0891 18.8683 9.81561 20.2471 9.81561C21.6258 9.81561 22.991 10.0891 24.2648 10.6204C25.5386 11.1517 26.696 11.9304 27.6709 12.9121C28.6458 13.8938 29.4191 15.0593 29.9468 16.3419C30.4744 17.6246 30.7459 18.9994 30.7459 20.3877C30.7459 21.6854 30.5087 22.9711 30.0469 24.1809L31.0987 31.315L24.014 30.2558C22.8126 30.7209 21.5357 30.9598 20.2471 30.9598C18.8683 30.9598 17.5031 30.6863 16.2293 30.155C14.9555 29.6237 13.7981 28.845 12.8232 27.8633C11.8483 26.8816 11.075 25.7161 10.5474 24.4335C10.0198 23.1508 9.74819 21.776 9.74819 20.3877C9.74819 18.9993 10.0198 17.6246 10.5474 16.3419Z" fill="#0261FE"/>
<g id="Group 56">
<path id="Ellipse 85" d="M17.5739 20.3877C17.5739 21.0247 17.0611 21.541 16.4285 21.541C15.796 21.541 15.2832 21.0247 15.2832 20.3877C15.2832 19.7507 15.796 19.2344 16.4285 19.2344C17.0611 19.2344 17.5739 19.7507 17.5739 20.3877Z" fill="#0261FE"/>
<path id="Ellipse 86" d="M21.3912 20.3877C21.3912 21.0247 20.8785 21.541 20.2459 21.541C19.6134 21.541 19.1006 21.0247 19.1006 20.3877C19.1006 19.7507 19.6134 19.2344 20.2459 19.2344C20.8785 19.2344 21.3912 19.7507 21.3912 20.3877Z" fill="#0261FE"/>
<path id="Ellipse 87" d="M25.2096 20.3877C25.2096 21.0247 24.6968 21.541 24.0643 21.541C23.4317 21.541 22.9189 21.0247 22.9189 20.3877C22.9189 19.7507 23.4317 19.2344 24.0643 19.2344C24.6968 19.2344 25.2096 19.7507 25.2096 20.3877Z" fill="#0261FE"/>
</g>
</g>
<g id="Helpert">
<path d="M52.5105 26.7225H55.1231V15.9225H52.5105V20.1533H48.4465V15.9225H45.834V26.7225H48.4465V22.2764H52.5105V26.7225Z" fill="black"/>
<path d="M60.7675 20.1225C61.6383 20.1225 62.3717 20.661 62.3717 21.5994H59.1022C59.2549 20.6456 59.9119 20.1225 60.7675 20.1225ZM64.8467 23.8764H62.0661C61.8522 24.3379 61.4397 24.7071 60.7064 24.7071C59.8661 24.7071 59.1785 24.184 59.0869 23.061H64.9995C65.0301 22.7994 65.0453 22.5379 65.0453 22.2917C65.0453 19.6764 63.2884 18.0148 60.798 18.0148C58.2619 18.0148 56.4896 19.7071 56.4896 22.4302C56.4896 25.1533 58.2924 26.8456 60.798 26.8456C62.9217 26.8456 64.4342 25.5533 64.8467 23.8764Z" fill="black"/>
<path d="M66.4236 26.7225H69.0361V15.3379H66.4236V26.7225Z" fill="black"/>
<path d="M73.542 19.3533V18.1379H70.9294V30.8148H73.542V25.5225C74.0156 26.2456 74.917 26.8456 76.1698 26.8456C78.2629 26.8456 79.9282 25.1225 79.9282 22.4148C79.9282 19.7071 78.2629 18.0148 76.1698 18.0148C74.917 18.0148 74.0156 18.5994 73.542 19.3533ZM77.2698 22.4148C77.2698 23.784 76.3837 24.5533 75.3906 24.5533C74.4128 24.5533 73.5267 23.7994 73.5267 22.4302C73.5267 21.061 74.4128 20.3071 75.3906 20.3071C76.3837 20.3071 77.2698 21.0456 77.2698 22.4148Z" fill="black"/>
<path d="M85.0572 20.1225C85.9281 20.1225 86.6614 20.661 86.6614 21.5994H83.3919C83.5447 20.6456 84.2016 20.1225 85.0572 20.1225ZM89.1365 23.8764H86.3559C86.142 24.3379 85.7295 24.7071 84.9961 24.7071C84.1558 24.7071 83.4683 24.184 83.3766 23.061H89.2892C89.3198 22.7994 89.3351 22.5379 89.3351 22.2917C89.3351 19.6764 87.5781 18.0148 85.0878 18.0148C82.5516 18.0148 80.7794 19.7071 80.7794 22.4302C80.7794 25.1533 82.5822 26.8456 85.0878 26.8456C87.2114 26.8456 88.724 25.5533 89.1365 23.8764Z" fill="black"/>
<path d="M93.3259 22.7379C93.3259 21.261 94.044 20.8302 95.2815 20.8302H95.9995V18.0456C94.8537 18.0456 93.9217 18.661 93.3259 19.5687V18.1379H90.7133V26.7225H93.3259V22.7379Z" fill="black"/>
<path d="M97.6608 23.7379C97.6608 25.9687 98.8983 26.7225 100.671 26.7225H102V24.4917H101.068C100.487 24.4917 100.273 24.2764 100.273 23.7687V20.3225H101.984V18.1379H100.273V16.0456H97.6608V18.1379H96.6219V20.3225H97.6608V23.7379Z" fill="black"/>
</g>
</g>
</svg>
