<svg width="30" height="31" viewBox="0 0 30 31" fill="none" xmlns="http://www.w3.org/2000/svg">
<g clip-path="url(#clip0_1925_2718)">
<path d="M25 4.25H23.75V3C23.75 2.3125 23.1875 1.75 22.5 1.75C21.8125 1.75 21.25 2.3125 21.25 3V4.25H8.75V3C8.75 2.3125 8.1875 1.75 7.5 1.75C6.8125 1.75 6.25 2.3125 6.25 3V4.25H5C3.625 4.25 2.5 5.375 2.5 6.75V26.75C2.5 28.125 3.625 29.25 5 29.25H25C26.375 29.25 27.5 28.125 27.5 26.75V6.75C27.5 5.375 26.375 4.25 25 4.25ZM23.75 26.75H6.25C5.5625 26.75 5 26.1875 5 25.5V10.5H25V25.5C25 26.1875 24.4375 26.75 23.75 26.75Z" fill="black"/>
</g>
<defs>
<clipPath id="clip0_1925_2718">
<rect width="30" height="30" fill="white" transform="translate(0 0.5)"/>
</clipPath>
</defs>
</svg>
