<svg width="124" height="126" viewBox="0 0 124 126" fill="none" xmlns="http://www.w3.org/2000/svg">
<rect width="124" height="124" fill="#FFFFFF"/>
<g clip-path="url(#clip0_2102_1067)">
<path d="M79.6204 118.291C74.9214 111.765 71.2449 99.1471 70.8099 92.8383L48.4572 83.2119L39.1572 118.291H79.6204Z" fill="#AC6651" stroke="black" stroke-width="1.30526"/>
<mask id="mask0_2102_1067" style="mask-type:alpha" maskUnits="userSpaceOnUse" x="39" y="83" width="455" height="431">
<path d="M493.389 513.634C440.639 440.371 399.368 262.097 394.484 191.276L143.557 83.2119L39.1572 513.634H493.389Z" fill="#AC6651"/>
</mask>
<g mask="url(#mask0_2102_1067)">
<g style="mix-blend-mode:multiply">
<ellipse cx="69.8312" cy="82.5598" rx="19.2526" ry="17.6211" fill="black"/>
</g>
</g>
<mask id="path-4-inside-1_2102_1067" fill="white">
<path fill-rule="evenodd" clip-rule="evenodd" d="M89.4243 63.5007C89.399 63.3888 89.373 63.277 89.3462 63.1652C89.3194 63.0534 89.292 62.9419 89.2638 62.8308L84.0196 40.943C83.9977 40.8466 83.9752 40.7502 83.9521 40.6538C80.6885 27.0323 67.0004 18.6355 53.3789 21.8991C39.8125 25.1495 31.4287 38.7403 34.5852 52.3071L34.583 52.3076L40.1275 75.4492L40.1341 75.4476C43.5941 88.7952 57.1254 96.9648 70.5916 93.7384C84.0578 90.512 92.4177 77.0975 89.4533 63.6312L89.4554 63.6307L89.4243 63.5007Z"/>
</mask>
<path fill-rule="evenodd" clip-rule="evenodd" d="M89.4243 63.5007C89.399 63.3888 89.373 63.277 89.3462 63.1652C89.3194 63.0534 89.292 62.9419 89.2638 62.8308L84.0196 40.943C83.9977 40.8466 83.9752 40.7502 83.9521 40.6538C80.6885 27.0323 67.0004 18.6355 53.3789 21.8991C39.8125 25.1495 31.4287 38.7403 34.5852 52.3071L34.583 52.3076L40.1275 75.4492L40.1341 75.4476C43.5941 88.7952 57.1254 96.9648 70.5916 93.7384C84.0578 90.512 92.4177 77.0975 89.4533 63.6312L89.4554 63.6307L89.4243 63.5007Z" fill="#AC6651"/>
<path d="M89.4243 63.5007L88.151 63.7879L88.1529 63.7964L88.1549 63.8048L89.4243 63.5007ZM89.2638 62.8308L87.9944 63.1349L87.9964 63.1433L87.9986 63.1518L89.2638 62.8308ZM84.0196 40.943L82.7469 41.2326L82.7486 41.2399L82.7503 41.2471L84.0196 40.943ZM83.9521 40.6538L82.6828 40.9579L82.6828 40.958L83.9521 40.6538ZM53.3789 21.8991L53.683 23.1685L53.683 23.1685L53.3789 21.8991ZM34.5852 52.3071L34.8896 53.5763L36.1503 53.274L35.8565 52.0113L34.5852 52.3071ZM34.583 52.3076L34.2787 51.0383L33.0096 51.3426L33.3137 52.6117L34.583 52.3076ZM40.1275 75.4492L38.8582 75.7533L39.1624 77.0229L40.4319 76.7185L40.1275 75.4492ZM40.1341 75.4476L41.3976 75.1201L41.076 73.8795L39.8297 74.1784L40.1341 75.4476ZM89.4533 63.6312L89.1489 62.3619L87.9032 62.6607L88.1786 63.9118L89.4533 63.6312ZM89.4554 63.6307L89.7598 64.8999L91.0288 64.5956L90.7248 63.3266L89.4554 63.6307ZM90.6975 63.2135C90.671 63.096 90.6437 62.9785 90.6156 62.861L88.0769 63.4693C88.1023 63.5755 88.127 63.6817 88.151 63.7879L90.6975 63.2135ZM90.6156 62.861C90.5874 62.7436 90.5586 62.6265 90.5289 62.5098L87.9986 63.1518C88.0253 63.2572 88.0515 63.3631 88.0769 63.4693L90.6156 62.861ZM82.7503 41.2471L87.9944 63.1349L90.5331 62.5266L85.289 40.6389L82.7503 41.2471ZM85.2924 40.6535C85.2694 40.5522 85.2457 40.451 85.2214 40.3497L82.6828 40.958C82.7047 41.0495 82.7261 41.141 82.7469 41.2326L85.2924 40.6535ZM85.2214 40.3497C81.7899 26.0271 67.3973 17.1982 53.0748 20.6298L53.683 23.1685C66.6035 20.0728 79.5871 28.0375 82.6828 40.9579L85.2214 40.3497ZM53.0748 20.6298C38.8101 24.0475 29.9948 38.3377 33.3139 52.6028L35.8565 52.0113C32.8625 39.1429 40.8149 26.2516 53.683 23.1685L53.0748 20.6298ZM34.8874 53.5769L34.8896 53.5763L34.2808 51.0378L34.2787 51.0383L34.8874 53.5769ZM41.3969 75.1451L35.8524 52.0035L33.3137 52.6117L38.8582 75.7533L41.3969 75.1451ZM39.8297 74.1784L39.8232 74.1799L40.4319 76.7185L40.4384 76.7169L39.8297 74.1784ZM38.8706 75.7752C42.5088 89.8102 56.7363 98.4002 70.8957 95.0077L70.2874 92.469C57.5144 95.5293 44.6794 87.7802 41.3976 75.1201L38.8706 75.7752ZM70.8957 95.0077C85.0551 91.6153 93.8451 77.5105 90.7281 63.3506L88.1786 63.9118C90.9902 76.6846 83.0605 89.4087 70.2874 92.469L70.8957 95.0077ZM89.151 62.3614L89.1489 62.3619L89.7578 64.9004L89.7598 64.8999L89.151 62.3614ZM88.1549 63.8048L88.1861 63.9348L90.7248 63.3266L90.6936 63.1966L88.1549 63.8048Z" fill="black" mask="url(#path-4-inside-1_2102_1067)"/>
</g>
<path d="M79.2319 74.4591C79.5796 73.2007 79.7022 71.892 79.5952 70.5932C79.5396 69.9185 78.8498 69.5429 78.2652 69.7732C76.8853 70.3169 72.3204 72.0463 69.1016 72.489C65.57 72.9748 60.2218 72.3848 58.6737 72.1926C58.0441 72.1144 57.483 72.6555 57.5916 73.313C57.8043 74.5996 58.2422 75.8398 58.8866 76.9762C59.6052 78.2436 60.5664 79.3571 61.7154 80.2531C62.8643 81.149 64.1785 81.8099 65.5828 82.198C66.9872 82.586 68.4542 82.6937 69.9002 82.5148C71.3461 82.3359 72.7427 81.8739 74.0101 81.1553C75.2775 80.4367 76.391 79.4755 77.287 78.3265C78.1829 77.1776 78.8438 75.8634 79.2319 74.4591Z" fill="black" stroke="black" stroke-width="1.30526"/>
<mask id="mask1_2102_1067" style="mask-type:alpha" maskUnits="userSpaceOnUse" x="58" y="70" width="21" height="12">
<path d="M78.901 70.2219C79.0694 71.5828 78.968 72.9635 78.6028 74.2852C78.2376 75.607 77.6156 76.8439 76.7723 77.9252C75.9291 79.0066 74.8811 79.9113 73.6882 80.5876C72.4953 81.264 71.1809 81.6987 69.82 81.8671C68.4591 82.0355 67.0784 81.9341 65.7567 81.5689C64.4349 81.2037 63.198 80.5817 62.1167 79.7384C61.0353 78.8952 60.1306 77.8472 59.4543 76.6543C58.7779 75.4614 58.3432 74.147 58.1748 72.7861L78.901 70.2219Z" fill="#171921"/>
</mask>
<g mask="url(#mask1_2102_1067)">
<circle cx="70.0019" cy="83.3147" r="7.01579" transform="rotate(-7.05286 70.0019 83.3147)" fill="#FC909F"/>
</g>
<path opacity="0.35" d="M80.5964 35.2986C77.9859 33.2102 73.4719 33.0145 71.6227 33.1776L69.0122 24.5303C73.4501 25.5745 79.4543 32.3619 80.5964 35.2986Z" fill="#717376"/>
<path d="M47.2468 13.9538C47.2468 13.9538 49.1191 12.6611 57.0213 10.6702C64.9234 8.67934 67.8047 9.45707 67.8047 9.45707L71.6514 33.2232C71.6514 33.2232 69.0281 33.1666 62.504 34.5916C55.9799 36.0166 52.8573 37.7459 52.8573 37.7459L47.2468 13.9538Z" fill="#171921"/>
<path d="M35.2371 38.3988C33.0182 24.8241 42.8511 16.1549 47.3108 13.762L52.8582 37.7462C46.5929 24.8241 38.0652 32.7971 35.2371 38.3988Z" fill="#171921"/>
<path opacity="0.35" d="M41.2745 52.7547C38.925 43.8789 48.4534 39.1037 52.8587 37.744C50.5745 32.4142 45.3534 27.6283 38.9903 33.5022C33.1166 43.4546 35.4008 51.1233 37.1956 56.9968L41.2745 52.7547Z" fill="#717376"/>
<path d="M65.3533 58.3883C67.0568 57.7401 70.0274 57.9359 69.8445 61.2314C69.6819 64.1604 66.677 64.742 65.7196 64.059" stroke="black" stroke-width="1.30526"/>
<path d="M40.6243 58.7935C39.864 58.5432 39.0432 58.4099 38.203 58.4099C34.7789 58.4099 32.003 60.531 32.3293 64.4468C32.6692 68.5257 35.1052 69.9941 38.5293 69.9941C38.9103 69.9941 39.2833 69.9607 39.6453 69.8966C40.0403 69.8267 40.4223 69.7203 40.7874 69.5812" stroke="#171921" stroke-width="2.61053"/>
<path d="M40.9506 69.5164C40.2067 69.824 39.3884 69.9941 38.5293 69.9941C35.1052 69.9941 32.6692 68.5257 32.3293 64.4468C32.003 60.531 34.7789 58.4099 38.203 58.4099C39.2268 58.4099 40.2218 58.6078 41.1137 58.9743L40.9506 69.5164Z" fill="#AC6651"/>
<path d="M39.6468 61.1831C38.3416 60.5849 35.47 60.2695 34.4258 63.7937" stroke="#171921" stroke-width="1.30526"/>
<path d="M36.2192 61.3467C36.9263 61.9449 38.275 63.794 38.014 66.4046" stroke="#171921" stroke-width="1.30526"/>
<path d="M61.9259 117.336L62.327 116.821L61.926 117.336L62.4878 117.773L62.8747 117.176L62.8748 117.175L62.8754 117.175L62.8785 117.17L62.8919 117.149C62.904 117.131 62.9224 117.103 62.9469 117.066C62.996 116.993 63.0695 116.884 63.1655 116.746C63.3576 116.468 63.6397 116.071 63.9971 115.596C64.7129 114.645 65.7259 113.389 66.9187 112.16C68.1147 110.929 69.4726 109.745 70.8757 108.922C72.2842 108.095 73.6752 107.667 74.9661 107.841C88.8145 109.709 99.0055 115.842 105.621 124.979H16.4387C21.7575 115.404 29.3227 109.31 41.5879 106.513C42.1106 106.394 42.8212 106.43 43.7097 106.637C44.5891 106.842 45.5918 107.201 46.673 107.676C48.8355 108.627 51.2494 110.013 53.5178 111.448C55.7828 112.882 57.886 114.355 59.424 115.47C60.1926 116.027 60.8192 116.494 61.2532 116.822C61.4701 116.986 61.6389 117.115 61.7531 117.202C61.8103 117.246 61.8538 117.28 61.8828 117.302L61.9155 117.328L61.9236 117.334L61.9255 117.335L61.9259 117.336Z" fill="#6BD9E9" stroke="black" stroke-width="1.30526"/>
<path d="M37.7275 107.385L39.4134 101.11C39.4817 100.855 39.8105 100.784 39.988 100.978C44.8381 106.285 50.9586 106.077 52.9901 105.834C53.2658 105.801 53.4818 106.102 53.3522 106.348L49.0589 114.491C48.9931 114.615 48.8584 114.684 48.7203 114.655C47.4318 114.387 41.0118 112.818 37.7653 107.64C37.7178 107.565 37.7043 107.472 37.7275 107.385Z" fill="#D2EFF3" stroke="black" stroke-width="1.30526"/>
<path d="M80.3386 107.352L76.5597 100.995C76.4314 100.779 76.1153 100.782 75.9786 100.993C74.1065 103.876 70.8777 105.204 69.7486 105.597C69.5455 105.667 69.4526 105.909 69.5621 106.094L73.9682 113.539C74.034 113.65 74.1582 113.71 74.2824 113.675C74.9789 113.476 77.3693 112.476 80.3344 107.691C80.3981 107.589 80.4004 107.456 80.3386 107.352Z" fill="#D2EFF3" stroke="black" stroke-width="1.30526"/>
<path d="M56.2909 113.068L53.354 106.052L51.0698 110.946L56.2909 113.068Z" fill="black" stroke="black" stroke-width="1.30526" stroke-linejoin="round"/>
<path d="M66.5709 112.742L69.5078 105.727L71.792 110.621L66.5709 112.742Z" fill="black" stroke="black" stroke-width="1.30526" stroke-linejoin="round"/>
<path d="M43.5642 99.8535L39.6484 100.832L42.9116 102.954L43.5642 99.8535Z" fill="black" stroke="black" stroke-width="1.30526" stroke-linejoin="round"/>
<path d="M72.7689 99.8535L76.3584 100.832L74.0742 102.954L72.7689 99.8535Z" fill="black" stroke="black" stroke-width="1.30526" stroke-linejoin="round"/>
<defs>
<clipPath id="clip0_2102_1067">
<rect width="65.2632" height="104.421" fill="white" transform="translate(29.3691 14.033)"/>
</clipPath>
</defs>
</svg>
