<svg width="50" height="45" viewBox="0 0 50 45" fill="none" xmlns="http://www.w3.org/2000/svg">
<g clip-path="url(#clip0_1925_2689)">
<path d="M47.2224 39.3918C47.2224 41.3668 48.3529 43.0779 50.0002 43.914V44.6057C48.3737 44.8323 46.7167 44.6668 45.1671 44.1233C43.6175 43.5797 42.2203 42.6737 41.0918 41.4807C39.9199 41.7914 38.7125 41.9483 37.5001 41.9474C30.5974 41.9474 25.0001 36.9724 25.0001 30.8363C25.0001 24.7002 30.5974 19.7251 37.5001 19.7251C44.4029 19.7251 50.0002 24.7002 50.0002 30.8363C50.0002 33.239 49.1418 35.4613 47.6835 37.2807C47.3782 37.9435 47.2208 38.6621 47.2224 39.3918ZM10.0113 9.87793C7.13626 12.214 5.55571 15.2168 5.55571 18.3335C5.55571 20.0835 6.04182 21.7779 7.00015 23.3751C7.98904 25.0196 9.47237 26.5251 11.2974 27.7252C12.614 28.5918 13.5002 29.9807 13.7363 31.539C13.814 32.0585 13.864 32.5835 13.8835 33.1057C14.2085 32.8363 14.5224 32.5474 14.8335 32.239C15.4329 31.6395 16.1616 31.1851 16.9638 30.9107C17.7659 30.6362 18.6202 30.549 19.4613 30.6557C20.3696 30.7724 21.3002 30.8307 22.2224 30.8307V36.3863C21.0446 36.3863 19.889 36.3113 18.7613 36.1668C13.989 40.939 8.28904 41.7974 2.78071 41.9224V40.7529C5.75571 39.2946 8.33626 36.6418 8.33626 33.6085C8.33583 33.1919 8.30426 32.7759 8.24182 32.364C3.21682 29.0529 0.00292969 23.9974 0.00292969 18.3307C0.00292969 8.35848 9.95293 0.275146 22.2252 0.275146C34.3113 0.275146 44.1418 8.11404 44.439 17.8751C42.6231 17.07 40.6795 16.5914 38.6974 16.4613C38.1974 14.0279 36.7279 11.739 34.4335 9.87515C32.8303 8.59185 31.0137 7.6008 29.0668 6.94737C26.9085 6.2057 24.6057 5.8307 22.2224 5.8307C19.839 5.8307 17.5363 6.2057 15.3779 6.94737C13.3502 7.64459 11.5446 8.62792 10.0113 9.87515V9.87793Z" fill="#999999"/>
</g>
<defs>
<clipPath id="clip0_1925_2689">
<rect width="50" height="44.4444" fill="white" transform="translate(0 0.277832)"/>
</clipPath>
</defs>
</svg>
