<svg
   width="179"
   height="60"
   viewBox="0 0 179 60"
   fill="none"
   version="1.1"
   id="svg15"
   xmlns="http://www.w3.org/2000/svg">
  <rect
     x="0"
     y="0"
     width="60"
     height="60"
     rx="30"
     fill="url(#paint0_linear_2054_976)"
     id="rect1"
     style="fill:url(#paint0_linear_2054_976)" />
  <path
     fill-rule="evenodd"
     clip-rule="evenodd"
     d="m 17.3298,17.3297 c -1.7403,1.7403 -3.1208,3.8064 -4.0626,6.0802 -0.9419,2.2738 -1.4266,4.7108 -1.4266,7.172 0,2.4612 0.4847,4.8982 1.4266,7.172 0.9418,2.2739 2.3223,4.3399 4.0626,6.0802 1.7403,1.7403 3.8063,3.1208 6.0801,4.0626 2.2739,0.9419 4.7109,1.4266 7.1721,1.4266 2.4611,0 4.8982,-0.4847 7.172,-1.4266 l 1.1034,2.6639 c -2.6236,1.0867 -5.4356,1.646 -8.2754,1.646 -2.8398,0 -5.6518,-0.5593 -8.2754,-1.6461 -2.6237,-1.0867 -5.0076,-2.6796 -7.0156,-4.6876 -2.0081,-2.008 -3.6009,-4.3919 -4.6877,-7.0156 -1.0867,-2.6236 -1.646,-5.4356 -1.646,-8.2754 0,-2.8398 0.5593,-5.6518 1.646,-8.2754 1.0868,-2.6236 2.6796,-5.0075 4.6877,-7.0156 2.008,-2.008 4.3919,-3.6009 7.0156,-4.6876 2.6236,-1.0868 5.4356,-1.6461 8.2754,-1.6461 2.8398,0 5.6518,0.5593 8.2754,1.6461 2.6236,1.0867 5.0075,2.6796 7.0156,4.6876 2.008,2.0081 3.6009,4.392 4.688,7.0156 1.086,2.6236 1.646,5.4356 1.646,8.2754 0,2.8398 -0.56,5.6518 -1.646,8.2754 l -2.6642,-1.1034 c 0.9418,-2.2738 1.4266,-4.7108 1.4266,-7.172 0,-2.4611 -0.4848,-4.8982 -1.4266,-7.172 -0.9418,-2.2738 -2.3223,-4.3399 -4.0626,-6.0802 -1.7403,-1.7403 -3.8064,-3.1208 -6.0802,-4.0626 -2.2738,-0.9419 -4.7109,-1.4266 -7.172,-1.4266 -2.4612,0 -4.8982,0.4847 -7.1721,1.4266 -2.2738,0.9418 -4.3398,2.3223 -6.0801,4.0626 z"
     fill="#ffffff"
     id="path1" />
  <path
     fill-rule="evenodd"
     clip-rule="evenodd"
     d="m 21.4075,21.4073 c -1.2049,1.2048 -2.1606,2.6352 -2.8126,4.2094 -0.6521,1.5741 -0.9877,3.2613 -0.9877,4.9652 0,1.7039 0.3356,3.3911 0.9877,4.9653 0.652,1.5741 1.6077,3.0045 2.8126,4.2093 1.2048,1.2048 2.6351,2.1605 4.2093,2.8126 1.5742,0.652 3.2614,0.9876 4.9653,0.9876 1.7038,0 3.391,-0.3356 4.9652,-0.9876 l 0.3687,-0.1527 7.6339,1.1333 -1.1334,-7.6339 0.1527,-0.3686 c 0.6521,-1.5742 0.9877,-3.2614 0.9877,-4.9653 0,-1.7039 -0.3356,-3.3911 -0.9877,-4.9652 -0.652,-1.5742 -1.6077,-3.0046 -2.8125,-4.2094 -1.2049,-1.2048 -2.6352,-2.1605 -4.2094,-2.8126 -1.5742,-0.652 -3.2614,-0.9876 -4.9652,-0.9876 -1.7039,0 -3.3911,0.3356 -4.9653,0.9876 -1.5742,0.6521 -3.0045,1.6078 -4.2093,2.8126 z m -5.4764,3.106 c 0.7969,-1.924 1.965,-3.6722 3.4376,-5.1448 1.4725,-1.4725 3.2207,-2.6406 5.1447,-3.4376 1.924,-0.7969 3.9861,-1.2071 6.0687,-1.2071 2.0825,0 4.1446,0.4102 6.0686,1.2071 1.924,0.797 3.6722,1.9651 5.1447,3.4376 1.4726,1.4726 2.6407,3.2208 3.4377,5.1448 0.7969,1.924 1.2071,3.9861 1.2071,6.0686 0,1.9465 -0.3584,3.8752 -1.0559,5.6899 l 1.5887,10.701 -10.7011,-1.5887 c -1.8147,0.6976 -3.7434,1.0559 -5.6898,1.0559 -2.0826,0 -4.1447,-0.4101 -6.0687,-1.2071 -1.924,-0.7969 -3.6722,-1.965 -5.1447,-3.4376 -1.4726,-1.4726 -2.6407,-3.2208 -3.4376,-5.1447 -0.797,-1.924 -1.2072,-3.9862 -1.2072,-6.0687 0,-2.0825 0.4102,-4.1446 1.2072,-6.0686 z"
     fill="#ffffff"
     id="path2" />
  <path
     d="m 26.5449,30.5819 c 0,0.9554 -0.7745,1.73 -1.73,1.73 -0.9554,0 -1.7299,-0.7746 -1.7299,-1.73 0,-0.9554 0.7745,-1.73 1.7299,-1.73 0.9555,0 1.73,0.7746 1.73,1.73 z"
     fill="#ffffff"
     id="path3" />
  <path
     d="m 32.3115,30.5819 c 0,0.9554 -0.7745,1.73 -1.73,1.73 -0.9554,0 -1.7299,-0.7746 -1.7299,-1.73 0,-0.9554 0.7745,-1.73 1.7299,-1.73 0.9555,0 1.73,0.7746 1.73,1.73 z"
     fill="#ffffff"
     id="path4" />
  <path
     d="m 38.0781,30.5819 c 0,0.9554 -0.7745,1.73 -1.73,1.73 -0.9554,0 -1.7299,-0.7746 -1.7299,-1.73 0,-0.9554 0.7745,-1.73 1.7299,-1.73 0.9555,0 1.73,0.7746 1.73,1.73 z"
     fill="#ffffff"
     id="path5" />
  <path
     d="m 90.887,36.4918 h 4.652 V 17.263 h -4.652 v 7.5327 H 83.651 V 17.263 H 79 v 19.2288 h 4.651 v -7.9161 h 7.236 z"
     fill="#000000"
     id="path6" />
  <path
     d="m 105.588,24.7409 c 1.551,0 2.856,0.9587 2.856,2.6296 h -5.821 c 0.272,-1.6983 1.442,-2.6296 2.965,-2.6296 z m 7.263,6.6835 H 107.9 c -0.38,0.8218 -1.115,1.4792 -2.421,1.4792 -1.496,0 -2.72,-0.9314 -2.883,-2.9309 h 10.527 c 0.055,-0.4657 0.082,-0.9313 0.082,-1.3696 0,-4.6565 -3.128,-7.6148 -7.562,-7.6148 -4.516,0 -7.671,3.013 -7.671,7.8613 0,4.8483 3.21,7.8614 7.671,7.8614 3.781,0 6.474,-2.3009 7.208,-5.2866 z"
     fill="#000000"
     id="path7" />
  <path
     d="m 115.659,36.4918 h 4.651 V 16.2222 h -4.651 z"
     fill="#000000"
     id="path8" />
  <path
     d="m 128.332,23.3713 v -2.1639 h -4.651 V 43.778 h 4.651 v -9.4227 c 0.844,1.2874 2.449,2.3557 4.679,2.3557 3.727,0 6.692,-3.0679 6.692,-7.8888 0,-4.8209 -2.965,-7.8339 -6.692,-7.8339 -2.23,0 -3.835,1.0409 -4.679,2.383 z m 6.638,5.4509 c 0,2.4379 -1.578,3.8074 -3.346,3.8074 -1.741,0 -3.319,-1.3421 -3.319,-3.78 0,-2.4378 1.578,-3.78 3.319,-3.78 1.768,0 3.346,1.3148 3.346,3.7526 z"
     fill="#000000"
     id="path9" />
  <path
     d="m 148.835,24.7409 c 1.55,0 2.856,0.9587 2.856,2.6296 h -5.821 c 0.272,-1.6983 1.441,-2.6296 2.965,-2.6296 z m 7.263,6.6835 h -4.951 c -0.381,0.8218 -1.115,1.4792 -2.421,1.4792 -1.496,0 -2.72,-0.9314 -2.883,-2.9309 h 10.527 c 0.054,-0.4657 0.081,-0.9313 0.081,-1.3696 0,-4.6565 -3.128,-7.6148 -7.562,-7.6148 -4.515,0 -7.671,3.013 -7.671,7.8613 0,4.8483 3.21,7.8614 7.671,7.8614 3.781,0 6.474,-2.3009 7.209,-5.2866 z"
     fill="#000000"
     id="path10" />
  <path
     d="m 163.557,29.3975 c 0,-2.6296 1.278,-3.3966 3.481,-3.3966 h 1.279 v -4.9578 c -2.04,0 -3.699,1.0956 -4.76,2.7117 v -2.5474 h -4.652 v 15.2844 h 4.652 z"
     fill="#000000"
     id="path11" />
  <path
     d="m 171.275,31.1779 c 0,3.9718 2.203,5.3139 5.358,5.3139 H 179 v -3.9717 h -1.659 c -1.034,0 -1.415,-0.3835 -1.415,-1.2874 V 25.097 h 3.047 v -3.8896 h -3.047 v -3.7252 h -4.651 v 3.7252 h -1.85 v 3.8896 h 1.85 z"
     fill="#000000"
     id="path12" />
  <defs
     id="defs15">
    <linearGradient
       id="paint0_linear_2054_976"
       x1="80"
       y1="40"
       x2="80"
       y2="70"
       gradientUnits="userSpaceOnUse"
       gradientTransform="translate(-50,-10)">
      <stop
         stop-color="#0261FE"
         id="stop14" />
      <stop
         offset="1"
         stop-color="#013C9C"
         id="stop15" />
    </linearGradient>
  </defs>
</svg>
