<?xml version="1.0" standalone="no"?>
<!DOCTYPE svg PUBLIC "-//W3C//DTD SVG 20010904//EN"
 "http://www.w3.org/TR/2001/REC-SVG-20010904/DTD/svg10.dtd">
<svg version="1.0" xmlns="http://www.w3.org/2000/svg"
 width="60.000000pt" height="60.000000pt" viewBox="0 0 60.000000 60.000000"
 preserveAspectRatio="xMidYMid meet">

<g transform="translate(0.000000,60.000000) scale(0.100000,-0.100000)"
fill="#0261FE" stroke="none">
<path d="M235 591 c-86 -21 -166 -86 -206 -169 -32 -67 -32 -178 1 -247 31
-62 83 -115 146 -146 66 -32 177 -33 245 -2 132 59 204 213 164 349 -45 155
-201 251 -350 215z m153 -97 c83 -34 132 -110 132 -201 0 -61 -11 -90 -28 -79
-6 4 -8 28 -5 60 18 173 -188 272 -310 149 -123 -122 -24 -328 149 -310 54 6
80 -6 53 -24 -23 -14 -117 -10 -157 7 -172 71 -176 317 -7 395 49 23 123 24
173 3z m11 -72 c51 -38 64 -76 66 -186 l1 -102 -102 2 c-105 3 -143 13 -175
50 -63 72 -52 181 22 236 53 40 135 40 188 0z"/>
<path d="M255 410 c-61 -25 -91 -108 -61 -172 25 -52 59 -67 153 -66 l80 1 1
80 c1 59 -4 88 -16 109 -28 48 -103 71 -157 48z m8 -115 c1 -5 -6 -11 -15 -13
-11 -2 -18 3 -18 13 0 17 30 18 33 0z m60 8 c9 -9 -13 -34 -24 -27 -14 8 -11
34 4 34 8 0 17 -3 20 -7z m57 -6 c0 -8 -3 -17 -7 -20 -9 -9 -34 13 -27 24 8
14 34 11 34 -4z"/>
</g>
</svg>
