<svg width="12" height="12" viewBox="0 0 12 12" fill="none" xmlns="http://www.w3.org/2000/svg">
<path d="M5.98785 9.52881C8.85326 9.52881 11.1761 7.39571 11.1761 4.76441C11.1761 2.1331 8.85326 0 5.98785 0C3.12244 0 0.799561 2.1331 0.799561 4.76441C0.799561 7.39571 3.12244 9.52881 5.98785 9.52881Z" fill="#FFD15C"/>
<path d="M1.78516 7.55225L0 10.3939L2.08355 10.2923L3.03014 12.0001L4.68155 9.37108C3.4983 9.08999 2.48225 8.43568 1.78516 7.55225Z" fill="#DB5F44"/>
<path d="M10.2019 7.53809C9.50998 8.42388 8.49393 9.08055 7.31326 9.36637L8.9698 12.0001L9.9164 10.2923L11.9999 10.3939L10.2019 7.53809Z" fill="#DB5F44"/>
<path d="M5.98809 8.21789C8.06505 8.21789 9.74876 6.67174 9.74876 4.76446C9.74876 2.85719 8.06505 1.31104 5.98809 1.31104C3.91113 1.31104 2.22742 2.85719 2.22742 4.76446C2.22742 6.67174 3.91113 8.21789 5.98809 8.21789Z" fill="#F8B64C"/>
<path d="M8.56535 4.39103C8.6811 4.28709 8.61679 4.10521 8.45731 4.08395L6.97311 3.88553C6.9088 3.87608 6.85478 3.84065 6.82649 3.78632L6.16284 2.55093C6.09082 2.41629 5.88246 2.41629 5.81044 2.55093L5.14936 3.78632C5.12107 3.83829 5.06448 3.87608 5.00274 3.88553L3.51854 4.08395C3.35906 4.10521 3.29475 4.28709 3.4105 4.39103L4.48314 5.35241C4.52944 5.39493 4.55002 5.45398 4.53973 5.51067L4.28765 6.86653C4.25935 7.01299 4.42912 7.12637 4.57317 7.0555L5.90047 6.41537C5.95706 6.38702 6.02651 6.38702 6.0831 6.41537L7.4104 7.0555C7.55444 7.12401 7.72164 7.01299 7.69592 6.86653L7.44126 5.51067C7.43097 5.45162 7.45155 5.39257 7.49785 5.35241L8.56535 4.39103Z" fill="white"/>
</svg>
