<svg width="200" height="200" viewBox="0 0 200 200" fill="none" xmlns="http://www.w3.org/2000/svg">
<path d="M165.92 139.044H176.512V134.568H165.92V139.044Z" fill="#EBEBEB"/>
<path d="M171.828 144.688H182.42V140.212H171.828V144.688Z" fill="#EBEBEB"/>
<path d="M160.008 144.688H170.6V140.212H160.008V144.688Z" fill="#EBEBEB"/>
<path d="M23.4879 144.688H34.08V140.212H23.4879V144.688Z" fill="#EBEBEB"/>
<path d="M23.4879 23.9041H34.08V19.4281H23.4879V23.9041Z" fill="#EBEBEB"/>
<path d="M17.5797 29.5479H28.1717V25.0718H17.5797V29.5479Z" fill="#EBEBEB"/>
<path d="M171.828 23.908H182.42V19.432H171.828V23.908Z" fill="#EBEBEB"/>
<path d="M153.232 72.6919H142.64V77.1679H153.232V72.6919Z" fill="#EBEBEB"/>
<path d="M147.324 67.0479H136.732V71.5239H147.324V67.0479Z" fill="#EBEBEB"/>
<path d="M27.4119 31.0598H97.6999V129.22H27.4119V31.0598ZM95.5999 33.1438H29.4959V127.144H95.5999V33.1438Z" fill="#EBEBEB"/>
<path d="M63.5961 33.6919H61.5121V128.176H63.5961V33.6919Z" fill="#EBEBEB"/>
<path d="M25.5197 38.1799L99.5917 38.1799V35.2759L25.5197 35.2759V38.1799Z" fill="#EBEBEB"/>
<path d="M25.5197 41.448L99.5917 41.448V38.544L25.5197 38.544V41.448Z" fill="#EBEBEB"/>
<path d="M25.5197 44.7161L99.5917 44.7161V41.8121L25.5197 41.8121V44.7161Z" fill="#EBEBEB"/>
<path d="M25.5197 47.98L99.5917 47.98V45.076L25.5197 45.076V47.98Z" fill="#EBEBEB"/>
<path d="M25.5197 51.252L99.5917 51.252V48.348L25.5197 48.348V51.252Z" fill="#EBEBEB"/>
<path d="M25.5197 54.52L99.5917 54.52V51.616L25.5197 51.616V54.52Z" fill="#EBEBEB"/>
<path d="M25.5197 57.7839L99.5917 57.7839V54.8799L25.5197 54.8799V57.7839Z" fill="#EBEBEB"/>
<path d="M25.5197 61.052L99.5917 61.052V58.148L25.5197 58.148V61.052Z" fill="#EBEBEB"/>
<path d="M25.5197 64.3201L99.5917 64.3201V61.4161L25.5197 61.4161V64.3201Z" fill="#EBEBEB"/>
<path d="M32.2319 34.688H31.7119V91.204H32.2319V34.688Z" fill="#263238"/>
<path d="M31.0482 93.6319H32.9002L32.4362 90.9719H31.5122L31.0482 93.6319Z" fill="#263238"/>
<path d="M30.3564 34.688H29.8364V105.46H30.3564V34.688Z" fill="#263238"/>
<path d="M29.1683 107.416H31.0203L30.5563 104.756H29.6323L29.1683 107.416Z" fill="#263238"/>
<path d="M22.2799 36.728L102.828 36.728V30.652L22.2799 30.652V36.728Z" fill="#DBDBDB"/>
<path d="M186.515 120.286C184.731 118.543 182.433 116.434 179.71 117.184C177.147 117.893 176.167 120.69 175.705 123.021C175.116 126.025 174.655 129.057 174.177 132.084C173.699 135.112 173.246 138.198 172.805 141.254C172.558 142.979 172.314 144.707 172.072 146.437C171.948 147.296 171.828 148.16 171.71 149.028C171.594 149.852 171.45 150.721 171.405 151.574C171.405 151.846 171.817 151.887 171.878 151.627C172.208 150.186 172.344 148.69 172.554 147.228C172.764 145.765 172.966 144.286 173.197 142.816C173.609 139.895 174.066 136.978 174.503 134.058C174.939 131.137 175.401 128.22 175.866 125.304C176.278 122.832 176.447 119.759 178.639 118.127C179.841 117.233 181.378 117.225 182.737 117.744C184.183 118.296 185.333 119.326 186.445 120.348C186.453 120.357 186.465 120.363 186.477 120.364C186.49 120.364 186.502 120.36 186.511 120.352C186.52 120.344 186.526 120.332 186.527 120.32C186.527 120.307 186.523 120.295 186.515 120.286Z" fill="#263238"/>
<path d="M184.077 118.502C184.077 118.502 180.435 117.192 178.639 119.849C176.843 122.506 178.989 129.266 195.566 133.077C195.08 127.896 193.733 122.832 191.579 118.094C188.023 110.345 181.692 113.279 184.077 118.502Z" fill="#FFC727"/>
<path d="M194.614 131.973C194.367 131.509 194.091 131.061 193.79 130.63L192.967 129.353L192.316 128.401C192.316 128.327 192.336 128.245 192.349 128.167C192.349 128.022 192.386 127.878 192.402 127.734C192.443 127.425 192.489 127.116 192.534 126.803C192.579 126.49 192.633 126.189 192.69 125.88C192.73 125.548 192.803 125.221 192.909 124.904C192.929 124.855 192.843 124.83 192.835 124.904C192.8 125.09 192.75 125.273 192.686 125.452L192.575 125.864C192.497 126.177 192.419 126.494 192.349 126.811C192.279 127.129 192.229 127.396 192.18 127.689C192.155 127.833 192.134 127.973 192.114 128.101C191.817 127.689 191.516 127.277 191.207 126.865C190.326 125.703 189.395 124.587 188.431 123.499C188.431 123.499 188.431 123.499 188.431 123.47C188.517 121.728 188.476 120.002 188.843 118.288C188.843 118.243 188.785 118.218 188.773 118.263C188.41 119.874 188.052 121.559 188.155 123.207C187.809 122.82 187.459 122.436 187.104 122.057C186.281 121.192 185.477 120.335 184.633 119.499C184.6 119.466 184.546 119.499 184.579 119.549C185.976 121.052 187.302 122.622 188.592 124.216C187.581 124.2 186.57 124.237 185.564 124.327C184.439 124.41 183.323 124.554 182.206 124.706C182.197 124.706 182.187 124.71 182.18 124.717C182.173 124.724 182.169 124.733 182.169 124.743C182.169 124.753 182.173 124.763 182.18 124.77C182.187 124.776 182.197 124.78 182.206 124.78C183.318 124.623 184.437 124.522 185.56 124.48C186.643 124.434 187.718 124.48 188.798 124.48C189.494 125.349 190.186 126.218 190.857 127.1H190.705C190.449 127.1 190.198 127.1 189.943 127.1C189.44 127.1 188.934 127.145 188.431 127.186C187.401 127.269 186.379 127.421 185.37 127.643C185.36 127.643 185.351 127.647 185.344 127.654C185.337 127.661 185.333 127.671 185.333 127.681C185.333 127.69 185.337 127.7 185.344 127.707C185.351 127.714 185.36 127.718 185.37 127.718C186.388 127.602 187.409 127.508 188.435 127.47C188.921 127.47 189.411 127.47 189.902 127.47H190.664C190.802 127.489 190.943 127.477 191.076 127.433C191.521 128.014 191.97 128.591 192.41 129.172C192.761 129.637 193.111 130.103 193.448 130.577C193.786 131.05 194.112 131.582 194.499 132.031C194.507 132.046 194.52 132.058 194.536 132.063C194.552 132.069 194.57 132.067 194.585 132.06C194.601 132.052 194.612 132.039 194.618 132.022C194.623 132.006 194.622 131.988 194.614 131.973Z" fill="#263238"/>
<path d="M185.662 122.267C185.075 122.193 184.483 122.165 183.891 122.185C183.298 122.185 182.705 122.185 182.115 122.222C182.106 122.222 182.096 122.226 182.089 122.233C182.082 122.24 182.078 122.249 182.078 122.259C182.078 122.269 182.082 122.278 182.089 122.285C182.096 122.292 182.106 122.296 182.115 122.296C182.713 122.251 183.314 122.243 183.916 122.251C184.517 122.259 185.077 122.313 185.654 122.3L185.662 122.267Z" fill="#263238"/>
<path d="M190.865 123.606C190.931 123.038 191.005 122.469 191.125 121.913C191.125 121.903 191.121 121.894 191.114 121.887C191.107 121.88 191.098 121.876 191.088 121.876C191.078 121.876 191.069 121.88 191.062 121.887C191.055 121.894 191.051 121.903 191.051 121.913C190.968 122.474 190.857 123.026 190.775 123.582C190.734 123.856 190.696 124.131 190.664 124.406C190.613 124.666 190.59 124.931 190.593 125.197C190.593 125.246 190.68 125.25 190.692 125.197C190.742 124.937 190.771 124.674 190.779 124.41C190.804 124.142 190.832 123.874 190.865 123.606Z" fill="#263238"/>
<path d="M189.757 117.332C189.613 117.884 189.469 118.44 189.345 119.001C189.296 119.285 189.251 119.573 189.214 119.857C189.163 120.129 189.144 120.405 189.156 120.681C189.156 120.681 189.193 120.681 189.201 120.681C189.266 120.42 189.31 120.154 189.333 119.886C189.369 119.612 189.41 119.337 189.457 119.062C189.56 118.486 189.663 117.913 189.807 117.344C189.856 117.312 189.786 117.287 189.757 117.332Z" fill="#263238"/>
<path d="M168.188 150.956C168.098 149.91 167.995 148.867 167.888 147.825C167.668 145.763 167.418 143.703 167.138 141.646C166.862 139.586 166.598 137.526 166.269 135.495C166.148 134.546 165.937 133.611 165.638 132.702C165.531 132.312 165.335 131.952 165.067 131.649C164.798 131.346 164.464 131.109 164.089 130.955C162.141 130.28 160.822 132.303 160.036 133.736C160.011 133.777 160.077 133.81 160.102 133.769C160.575 133.094 161.877 131.19 163.356 131.277C164.353 131.339 165.148 132.043 165.626 134.527C166.816 140.706 167.892 153.263 168.015 154.083C168.081 154.519 168.39 154.495 168.39 154.033C168.398 153.003 168.279 151.978 168.188 150.956Z" fill="#263238"/>
<path d="M160.562 132.962C160.562 132.962 162.268 126.943 158.503 129.95C152.229 134.96 152.006 145.86 152.006 145.86C152.006 145.86 163.158 139.384 164.546 135.112C166.606 128.743 160.562 132.962 160.562 132.962Z" fill="#FFC727"/>
<path d="M162.672 135.916C161.799 136.093 160.909 136.208 160.027 136.328L158.771 136.505C158.491 136.542 158.202 136.571 157.918 136.604C158.742 135.462 159.586 134.321 160.39 133.155C160.423 133.11 160.353 133.061 160.316 133.098C159.658 133.782 159.036 134.5 158.454 135.248L157.959 133.852C157.77 133.312 157.547 132.776 157.428 132.204C157.428 132.159 157.345 132.179 157.358 132.229C157.51 132.781 157.617 133.341 157.77 133.876C157.922 134.412 158.075 134.939 158.264 135.458C157.852 135.99 157.461 136.533 157.082 137.081C156.888 136.538 156.67 136.01 156.484 135.458C156.481 135.448 156.474 135.44 156.465 135.436C156.456 135.431 156.445 135.43 156.435 135.434C156.425 135.437 156.417 135.444 156.412 135.453C156.408 135.462 156.407 135.473 156.41 135.483C156.612 136.093 156.719 136.719 156.909 137.341C156.649 137.716 156.394 138.091 156.151 138.466C155.702 139.162 155.277 139.87 154.861 140.587C154.829 140.6 154.802 140.623 154.784 140.653C154.766 140.682 154.758 140.717 154.762 140.752C154.058 141.988 153.387 143.224 152.727 144.459C152.722 144.468 152.721 144.479 152.724 144.488C152.727 144.498 152.733 144.506 152.742 144.511C152.751 144.516 152.761 144.517 152.771 144.514C152.78 144.512 152.788 144.505 152.793 144.497C153.457 143.261 154.19 142.066 154.956 140.888C155.076 140.853 155.199 140.829 155.323 140.818L155.706 140.735C155.994 140.674 156.278 140.599 156.567 140.525C157.131 140.385 157.691 140.253 158.268 140.155C158.313 140.155 158.293 140.072 158.243 140.08C157.568 140.212 156.892 140.286 156.208 140.365C155.887 140.402 155.566 140.443 155.249 140.496H155.199C155.611 139.887 156.023 139.281 156.435 138.684C156.847 138.087 157.259 137.514 157.671 136.937C158.058 136.88 158.441 136.781 158.824 136.707L160.122 136.455C160.983 136.282 161.844 136.089 162.709 135.944C162.742 135.981 162.721 135.907 162.672 135.916Z" fill="#263238"/>
<path d="M155.977 136.509L155.829 136.031C155.724 135.7 155.638 135.363 155.574 135.022C155.574 134.972 155.491 134.997 155.5 135.042C155.574 135.384 155.652 135.722 155.73 136.06C155.801 136.401 155.898 136.735 156.023 137.061C156.056 137.139 156.175 137.106 156.15 137.024C156.093 136.851 156.027 136.682 155.977 136.509Z" fill="#263238"/>
<path d="M163.804 134.511C163.298 134.585 162.783 134.622 162.272 134.667C161.761 134.713 161.25 134.783 160.74 134.861C160.711 134.861 160.711 134.906 160.74 134.906C161.254 134.869 161.761 134.828 162.272 134.762C162.783 134.696 163.294 134.618 163.809 134.585C163.862 134.593 163.858 134.511 163.804 134.511Z" fill="#263238"/>
<path d="M176.394 143.335C176.196 138.902 175.916 134.478 175.471 130.062C175.249 127.862 175.002 125.666 174.693 123.47C174.415 121.319 173.99 119.19 173.42 117.097C172.967 115.503 172.365 113.901 171.298 112.607C170.802 111.957 170.148 111.443 169.399 111.116C168.649 110.789 167.828 110.658 167.014 110.737C165.074 110.976 163.512 112.199 162.161 113.526C160.645 115.017 159.277 116.64 157.856 118.234C157.502 118.646 157.148 119.058 156.797 119.45C156.769 119.487 156.822 119.54 156.851 119.503C158.227 117.925 159.652 116.393 161.144 114.93C162.524 113.575 163.941 112.096 165.852 111.536C166.739 111.254 167.689 111.233 168.587 111.474C169.303 111.7 169.947 112.107 170.458 112.657C171.533 113.777 172.134 115.289 172.567 116.755C173.757 120.83 174.186 125.102 174.627 129.308C175.076 133.584 175.381 137.868 175.595 142.161C175.809 146.453 175.978 150.812 176.394 155.096C176.448 155.627 176.513 156.159 176.583 156.686C176.629 157.045 177.181 157.045 177.152 156.686C176.798 152.225 176.596 147.788 176.394 143.335Z" fill="#263238"/>
<path d="M161.918 114.012C161.918 114.012 164.451 109.328 161.46 107.833C158.47 106.337 148.459 117.501 145.534 133.839C145.534 133.839 161.699 126.688 167.191 119.561C172.682 112.434 166.457 110.86 161.918 114.012Z" fill="#FFC727"/>
<path d="M164.295 117.822C162.478 117.822 160.666 117.686 158.849 117.699C159.191 117.307 159.529 116.916 159.875 116.529C160.383 116.012 160.856 115.461 161.292 114.881C161.321 114.844 161.263 114.79 161.226 114.819C160.735 115.245 160.277 115.706 159.854 116.199C159.395 116.68 158.942 117.166 158.495 117.658C157.798 118.407 157.119 119.17 156.435 119.936V118.762C156.435 118.144 156.435 117.526 156.455 116.912C156.455 115.676 156.455 114.407 156.55 113.163C156.55 113.114 156.48 113.118 156.476 113.163C156.389 114.399 156.258 115.664 156.196 116.92C156.167 117.534 156.151 118.156 156.146 118.77C156.146 119.087 156.146 119.404 156.146 119.722C156.146 119.895 156.146 120.08 156.146 120.257L155.825 120.615C154.375 122.263 152.995 123.985 151.656 125.728C151.656 125.633 151.656 125.534 151.631 125.439C151.631 125.246 151.59 125.056 151.565 124.863C151.52 124.451 151.462 124.039 151.401 123.627C151.339 123.215 151.281 122.848 151.215 122.461C151.149 122.074 151.034 121.584 151.001 121.139C151.001 121.129 150.997 121.119 150.99 121.112C150.983 121.105 150.974 121.102 150.964 121.102C150.954 121.102 150.945 121.105 150.938 121.112C150.931 121.119 150.927 121.129 150.927 121.139C151.004 121.579 151.055 122.023 151.079 122.469L151.191 123.668C151.228 124.08 151.265 124.471 151.306 124.871C151.306 125.06 151.343 125.254 151.364 125.448C151.364 125.542 151.384 125.637 151.397 125.736C151.405 125.816 151.432 125.894 151.475 125.963L150.783 126.865C149.868 128.08 148.966 129.308 148.068 130.531C148.039 130.568 148.093 130.622 148.122 130.581C148.974 129.473 149.852 128.381 150.742 127.285C151.405 127.314 152.085 127.264 152.748 127.256C153.411 127.248 154.148 127.256 154.853 127.236C154.898 127.236 154.898 127.161 154.853 127.161C154.153 127.161 153.452 127.186 152.752 127.186C152.052 127.186 151.458 127.157 150.82 127.186C151.603 126.233 152.391 125.287 153.184 124.348L154.054 123.322C154.327 123.358 154.603 123.366 154.878 123.347H155.833L157.625 123.322C158.861 123.301 160.097 123.26 161.333 123.26C161.341 123.258 161.348 123.252 161.353 123.245C161.358 123.238 161.361 123.23 161.361 123.221C161.361 123.212 161.358 123.204 161.353 123.197C161.348 123.19 161.341 123.185 161.333 123.182C160.097 123.182 158.861 123.116 157.625 123.083C157.028 123.083 156.431 123.05 155.833 123.042H154.878C154.696 123.042 154.507 123.042 154.326 123.042L156.361 120.628C156.377 120.618 156.39 120.604 156.398 120.587C157.061 119.804 157.724 119.021 158.392 118.247L158.672 117.93C160.554 117.987 162.433 117.864 164.32 117.901C164.344 117.901 164.344 117.822 164.295 117.822Z" fill="#263238"/>
<path d="M163.363 121.036H162.927C162.918 121.036 162.91 121.039 162.903 121.045C162.897 121.051 162.894 121.06 162.894 121.069C162.894 121.077 162.897 121.086 162.903 121.092C162.91 121.098 162.918 121.102 162.927 121.102H163.368C163.417 121.11 163.413 121.036 163.363 121.036Z" fill="#263238"/>
<path d="M162.387 121.04C161.806 121.04 161.221 121.019 160.64 121.003L159.767 120.978C159.494 120.942 159.217 120.942 158.943 120.978C158.914 120.978 158.918 121.023 158.943 121.032C159.214 121.086 159.491 121.106 159.767 121.089H160.64C161.221 121.089 161.802 121.089 162.383 121.089C162.388 121.095 162.394 121.1 162.401 121.102C162.408 121.104 162.416 121.105 162.423 121.102C162.43 121.1 162.436 121.096 162.441 121.09C162.446 121.084 162.449 121.077 162.449 121.07C162.45 121.062 162.448 121.055 162.445 121.048C162.441 121.042 162.435 121.037 162.429 121.033C162.422 121.03 162.414 121.029 162.407 121.03C162.399 121.031 162.393 121.035 162.387 121.04Z" fill="#263238"/>
<path d="M157.304 126.498C156.123 126.302 154.93 126.193 153.733 126.173C153.712 126.173 153.733 126.198 153.733 126.202C154.919 126.313 156.11 126.379 157.288 126.568C157.337 126.577 157.354 126.502 157.304 126.498Z" fill="#263238"/>
<path d="M152.447 121.295L152.41 120.982C152.377 120.752 152.34 120.517 152.303 120.282C152.237 119.841 152.159 119.396 152.072 118.955C152.072 118.914 151.994 118.927 151.998 118.955C152.056 119.414 152.105 119.871 152.146 120.327C152.167 120.554 152.183 120.776 152.204 121.003C152.199 121.219 152.229 121.435 152.295 121.641C152.303 121.656 152.316 121.667 152.331 121.674C152.346 121.681 152.363 121.684 152.38 121.682C152.396 121.68 152.412 121.673 152.424 121.662C152.437 121.651 152.446 121.637 152.451 121.621C152.471 121.513 152.469 121.403 152.447 121.295Z" fill="#263238"/>
<path d="M176.237 107.998C175.656 106.922 174.919 105.497 173.477 105.588C172.282 105.662 171.747 106.881 171.491 107.886C170.705 110.997 170.647 114.28 170.495 117.468C170.173 124.204 169.881 130.952 169.835 137.695C169.835 139.566 169.835 141.436 169.835 143.306C169.856 145.213 169.835 147.133 169.971 149.036C169.971 149.073 169.986 149.109 170.012 149.135C170.039 149.162 170.074 149.176 170.111 149.176C170.149 149.176 170.184 149.162 170.21 149.135C170.237 149.109 170.252 149.073 170.252 149.036C170.252 147.389 170.202 145.774 170.198 144.142C170.194 142.511 170.198 140.958 170.231 139.368C170.28 136.141 170.365 132.917 170.486 129.695C170.606 126.49 170.746 123.289 170.898 120.088C170.968 118.486 171.034 116.887 171.108 115.285C171.183 113.682 171.244 112.183 171.421 110.642C171.52 109.777 171.648 108.912 171.833 108.063C171.924 107.431 172.181 106.833 172.579 106.333C172.857 106.066 173.219 105.904 173.604 105.876C173.989 105.848 174.371 105.956 174.684 106.181C175.343 106.655 175.86 107.3 176.179 108.047C176.196 108.08 176.258 108.043 176.237 107.998Z" fill="#263238"/>
<path d="M175.846 107.482C175.846 107.482 174.656 103.293 177.284 105.386C181.651 108.879 181.815 116.471 181.815 116.471C181.815 116.471 174.046 111.94 173.082 108.982C171.632 104.549 175.846 107.482 175.846 107.482Z" fill="#FFC727"/>
<path d="M180.171 113.357C180.101 113.242 180.027 113.13 179.953 113.015C179.961 112.896 179.961 112.776 179.953 112.657C179.953 112.475 179.953 112.294 179.953 112.113C179.953 111.758 179.973 111.408 179.994 111.054C179.991 111.046 179.986 111.039 179.979 111.034C179.972 111.028 179.963 111.026 179.955 111.026C179.946 111.026 179.938 111.028 179.93 111.034C179.923 111.039 179.918 111.046 179.916 111.054C179.916 111.4 179.887 111.75 179.874 112.096C179.874 112.269 179.874 112.442 179.874 112.619C179.874 112.685 179.874 112.764 179.874 112.842C179.569 112.368 179.256 111.899 178.935 111.441C178.84 111.305 178.741 111.174 178.647 111.029C178.599 110.575 178.591 110.117 178.622 109.662C178.622 109.176 178.622 108.685 178.651 108.199C178.651 108.154 178.577 108.154 178.577 108.199C178.577 108.706 178.535 109.213 178.511 109.719C178.483 110.08 178.473 110.441 178.482 110.803C177.732 109.781 176.937 108.797 176.13 107.82C176.105 107.787 176.047 107.82 176.072 107.866C176.57 108.5 177.048 109.147 177.518 109.802C176.603 109.588 175.677 109.464 174.745 109.332C174.7 109.332 174.68 109.398 174.745 109.402C175.726 109.555 176.694 109.814 177.662 110.012H177.683C178.053 110.535 178.424 111.062 178.787 111.59L179.228 112.236H179.186L178.886 112.195C178.671 112.17 178.453 112.154 178.239 112.137C177.79 112.1 177.341 112.076 176.892 112.051C176.846 112.051 176.846 112.125 176.892 112.129C177.333 112.129 177.773 112.17 178.21 112.22L178.906 112.302L179.211 112.339H179.298L180.043 113.439C180.484 114.086 180.867 114.782 181.345 115.408C181.35 115.416 181.358 115.421 181.367 115.423C181.375 115.425 181.385 115.424 181.392 115.419C181.4 115.414 181.405 115.406 181.407 115.397C181.409 115.388 181.408 115.379 181.403 115.371C181.032 114.676 180.62 114.004 180.171 113.357Z" fill="#263238"/>
<path d="M178.222 108.62C178.222 108.459 178.222 108.294 178.222 108.133C178.209 107.79 178.223 107.445 178.263 107.104C178.263 107.05 178.189 107.042 178.189 107.104C178.189 107.446 178.152 107.783 178.136 108.121C178.136 108.29 178.136 108.463 178.136 108.632V108.867C178.121 108.947 178.121 109.029 178.136 109.11C178.136 109.119 178.139 109.127 178.145 109.133C178.152 109.139 178.16 109.143 178.169 109.143C178.177 109.143 178.186 109.139 178.192 109.133C178.198 109.127 178.202 109.119 178.202 109.11C178.214 109.035 178.214 108.958 178.202 108.883L178.222 108.62Z" fill="#263238"/>
<path d="M177.28 110.358C176.991 110.308 176.695 110.292 176.402 110.267C176.11 110.242 175.764 110.214 175.442 110.172C175.432 110.172 175.423 110.176 175.416 110.183C175.409 110.19 175.405 110.2 175.405 110.209C175.405 110.219 175.409 110.229 175.416 110.236C175.423 110.243 175.432 110.247 175.442 110.247C176.056 110.284 176.678 110.395 177.28 110.415C177.304 110.42 177.312 110.362 177.28 110.358Z" fill="#263238"/>
<path d="M176.414 130.391C174.766 129.155 173.316 127.405 171.116 127.318C169.304 127.248 168.031 128.612 167.306 130.132C166.94 130.94 166.642 131.778 166.416 132.636C166.092 133.787 165.784 134.941 165.493 136.097C164.919 138.373 164.433 140.671 164.035 142.989C163.817 144.278 163.623 145.572 163.446 146.869C163.237 148.187 163.111 149.516 163.067 150.849C163.061 150.903 163.077 150.958 163.111 151.001C163.146 151.044 163.196 151.071 163.25 151.077C163.305 151.083 163.36 151.067 163.403 151.033C163.445 150.999 163.473 150.949 163.479 150.894C163.701 149.807 163.792 148.686 163.953 147.598C164.113 146.511 164.282 145.39 164.468 144.303C164.842 142.103 165.291 139.911 165.769 137.736C166.239 135.677 166.7 133.592 167.364 131.59C167.837 130.156 168.599 128.484 170.148 127.965C172.505 127.182 174.647 129.176 176.373 130.474C176.402 130.457 176.455 130.391 176.414 130.391Z" fill="#263238"/>
<path d="M174.725 129.201C174.725 129.201 173.221 124.9 175.397 124.055C178.663 122.791 187.207 132.414 185.535 147.158C185.535 147.158 178.943 143.524 174.058 139.434C169.172 135.343 167.924 129.979 170.082 128.616C172.241 127.252 174.725 129.201 174.725 129.201Z" fill="#FFC727"/>
<path d="M184.546 143.986C184.319 143.471 184.053 142.973 183.751 142.498C183.475 141.996 183.191 141.493 182.899 140.995C182.334 140.023 181.77 139.05 181.189 138.111L180.901 137.646C180.901 137.588 180.925 137.53 180.938 137.473L181.036 137.061C181.107 136.743 181.164 136.418 181.222 136.097C181.341 135.466 181.453 134.824 181.634 134.206C181.634 134.16 181.572 134.144 181.56 134.206C181.424 134.836 181.226 135.442 181.041 136.072C180.95 136.377 180.851 136.682 180.769 136.986C180.744 137.094 180.715 137.197 180.686 137.304C179.986 136.154 179.273 135.009 178.503 133.901C178.554 133.748 178.579 133.588 178.577 133.427L178.651 132.785C178.709 132.298 178.767 131.812 178.837 131.33C178.962 130.38 179.135 129.437 179.356 128.504C179.356 128.459 179.294 128.447 179.282 128.504C179.047 129.431 178.791 130.362 178.614 131.301C178.528 131.763 178.445 132.228 178.384 132.694C178.355 132.925 178.33 133.159 178.305 133.394C178.305 133.46 178.285 133.534 178.276 133.604C178.042 133.271 177.803 132.937 177.556 132.612C176.802 131.619 176.019 130.651 175.232 129.687C175.203 129.65 175.141 129.687 175.17 129.728C176.519 131.455 177.758 133.266 178.878 135.149C179.096 135.495 179.29 135.845 179.521 136.191L179.31 136.167C179.034 136.13 178.754 136.113 178.487 136.088C177.937 136.036 177.381 135.987 176.818 135.94C175.706 135.854 174.589 135.784 173.481 135.668C173.432 135.668 173.419 135.734 173.481 135.738C174.606 135.87 175.722 136.047 176.843 136.208L178.491 136.43C178.908 136.517 179.333 136.561 179.759 136.562C180.199 137.271 180.637 137.981 181.074 138.692C180.975 138.684 180.876 138.684 180.777 138.692H179.187C178.47 138.692 177.757 138.692 177.041 138.692C176.991 138.692 176.999 138.766 177.041 138.766C177.766 138.766 178.487 138.811 179.212 138.848C179.558 138.848 179.9 138.886 180.246 138.91C180.414 138.91 180.587 138.939 180.76 138.947C180.91 138.978 181.064 138.978 181.214 138.947L182.326 140.756C182.666 141.305 183.014 141.854 183.368 142.404C183.697 142.992 184.072 143.554 184.489 144.084C184.505 144.068 184.563 144.047 184.546 143.986Z" fill="#263238"/>
<path d="M181.403 132.08C181.336 132.554 181.236 133.024 181.107 133.485C180.983 133.963 180.847 134.437 180.695 134.902C180.691 134.908 180.688 134.916 180.687 134.923C180.686 134.931 180.687 134.939 180.69 134.946C180.692 134.953 180.696 134.959 180.702 134.965C180.707 134.97 180.714 134.974 180.721 134.976C180.728 134.979 180.736 134.979 180.744 134.978C180.751 134.977 180.758 134.974 180.765 134.97C180.771 134.965 180.776 134.959 180.78 134.953C180.783 134.946 180.785 134.938 180.786 134.931C180.93 134.465 181.062 133.996 181.198 133.526C181.333 133.056 181.383 132.566 181.502 132.097C181.486 132.039 181.408 132.039 181.403 132.08Z" fill="#263238"/>
<path d="M176.55 134.964C176.451 134.876 176.324 134.828 176.192 134.828L175.57 134.742C175.182 134.688 174.795 134.647 174.408 134.601C173.605 134.507 172.797 134.428 171.994 134.33C171.984 134.33 171.975 134.333 171.968 134.34C171.961 134.347 171.957 134.357 171.957 134.367C171.957 134.376 171.961 134.386 171.968 134.393C171.975 134.4 171.984 134.404 171.994 134.404C172.752 134.494 173.506 134.61 174.264 134.709C174.635 134.758 175.005 134.812 175.38 134.853L175.916 134.915C176.125 134.915 176.332 134.95 176.53 135.018C176.535 135.017 176.541 135.014 176.545 135.011C176.55 135.007 176.553 135.002 176.555 134.997C176.558 134.991 176.558 134.985 176.557 134.98C176.556 134.974 176.554 134.968 176.55 134.964Z" fill="#263238"/>
<path d="M181.391 141.444C181.012 141.415 180.629 141.403 180.245 141.39H179.669H179.393C179.273 141.398 179.153 141.391 179.034 141.37C178.981 141.37 178.977 141.456 179.034 141.444C179.147 141.431 179.26 141.431 179.372 141.444H179.673L180.25 141.481C180.629 141.501 181.012 141.526 181.391 141.526C181.432 141.514 181.436 141.448 181.391 141.444Z" fill="#263238"/>
<path d="M183.718 139.796L183.841 139.149L184.076 137.872C184.076 137.827 184.01 137.815 184.002 137.872C183.907 138.284 183.812 138.696 183.722 139.108C183.672 139.314 183.627 139.52 183.586 139.726L183.524 140.014C183.493 140.113 183.482 140.216 183.491 140.319C183.491 140.356 183.549 140.381 183.573 140.344C183.654 140.172 183.703 139.986 183.718 139.796Z" fill="#263238"/>
<path d="M161.366 149.176L161.827 154.404L163.388 172.052H177.209L179.158 154.404L179.735 149.176H161.366Z" fill="#455A64"/>
<path d="M161.366 149.176L161.827 154.404H179.158L179.735 149.176H161.366Z" fill="#263238"/>
<path d="M159.998 151.994H181.106V147.755H159.998V151.994Z" fill="#455A64"/>
<path d="M12.2678 172.667L34.1998 172.571L56.1358 172.535L99.9998 172.467L143.864 172.535L165.8 172.567L187.732 172.667L165.8 172.763L143.864 172.799L99.9998 172.867L56.1358 172.799L34.1998 172.763L12.2678 172.667Z" fill="#263238"/>
<path d="M118.463 118.336C115.812 126.007 104.906 163.8 97.6254 165.889C85.7528 169.342 76.71 168.228 67.2228 168.469C61.8829 168.602 53.5962 142.931 58.4295 142.799C66.1315 142.58 83.6246 143.929 86.4232 143.796C89.2218 143.664 99.6211 122.148 109.443 112.801C118.315 104.398 120.326 112.934 118.463 118.336Z" fill="#F7A9A0"/>
<path d="M70.3171 167.807C69.8884 167.97 63.7143 170.317 59.9802 170.995C57.1972 171.502 49.1367 172.741 48.2869 169.724C47.6945 167.674 52.3484 166.388 55.6147 165.406C57.3375 164.883 59.5125 163.363 59.1773 162.287C58.5147 160.339 54.0712 161.765 51.1089 163.106C45.3792 165.686 37.5915 170.605 34.5668 167.518C33.4286 166.357 35.0735 164.618 37.3888 162.981C33.7249 164.79 29.8661 166.177 28.5486 164.938C27.7691 164.229 27.8392 163.379 28.4005 162.428C27.9466 162.588 27.4549 162.609 26.9892 162.487C26.5235 162.364 26.1053 162.105 25.789 161.742C24.7912 160.455 25.5084 158.787 26.9194 157.142C26.7106 157.097 26.5157 157.002 26.3504 156.867C26.1851 156.731 26.0542 156.558 25.9683 156.363C23.9726 152.504 36.882 143.352 41.0994 142.806C53.4632 141.177 66.1153 143.017 66.1153 143.017C70.4574 147.273 70.3327 167.799 70.3171 167.807Z" fill="#F7A9A0"/>
<path d="M53.7206 154.866C50.8022 155.021 47.9506 155.797 45.356 157.142C42.0897 158.842 39.8133 161.04 37.0069 163.114C36.929 163.168 37.007 163.285 37.0927 163.231C38.4258 162.225 43.9294 158.491 45.3404 157.665C47.8911 156.123 50.76 155.185 53.7284 154.921C53.7284 154.921 53.7518 154.866 53.7206 154.866Z" fill="#263238"/>
<path d="M51.998 149.518C48.6968 149.948 45.4477 150.71 42.3004 151.795C38.9093 153.112 36.1185 155.529 33.3745 157.844C31.7296 159.24 30.1081 160.666 28.5256 162.132C28.4555 162.194 28.5256 162.311 28.6114 162.249C31.397 159.848 34.2553 157.532 37.1865 155.303C39.8922 153.216 42.984 151.684 46.2839 150.797C48.1704 150.29 50.0881 149.932 52.0058 149.573C52.0447 149.573 52.037 149.511 51.998 149.518Z" fill="#263238"/>
<path d="M49.0753 144.693C45.957 145.005 43.1818 145.27 40.2897 146.642C36.4465 148.458 32.5799 151.779 31.2235 152.964C29.7267 154.266 28.2689 155.615 26.8346 156.987C26.78 157.049 26.8735 157.15 26.9359 157.096C30.202 154.094 33.6602 151.307 37.2884 148.755C38.9985 147.51 40.8921 146.539 42.9012 145.878C44.9215 145.312 46.9874 144.923 49.0753 144.717C49.0753 144.717 49.0909 144.693 49.0753 144.693Z" fill="#263238"/>
<path d="M87.4366 138.885L106.551 162.038C106.551 162.038 117.613 131.511 119.858 118.001C122.197 103.922 117.52 99.7205 105.6 114.384C99.128 122.233 93.0654 130.411 87.4366 138.885Z" fill="#455A64"/>
<path d="M105.507 116.785C105.276 116.762 105.054 116.685 104.86 116.559C104.626 116.404 104.451 116.177 104.361 115.912C104.213 116.091 104.064 116.27 103.932 116.45C104.102 116.705 104.347 116.901 104.633 117.011C104.91 117.125 105.213 117.158 105.507 117.105C105.779 117.042 106.037 117.011 106.286 116.941C106.03 116.873 105.769 116.821 105.507 116.785ZM101.009 153.089C100.78 153.067 100.559 152.995 100.362 152.878C100.184 152.765 100.039 152.608 99.9411 152.422C99.8427 152.236 99.7942 152.028 99.8002 151.818C99.7924 151.495 99.6889 151.183 99.5029 150.919C99.3169 150.655 99.0569 150.453 98.7557 150.337C98.4785 150.225 98.1729 150.203 97.8826 150.275C97.6097 150.337 97.3525 150.368 97.103 150.43C97.3589 150.503 97.6193 150.557 97.8826 150.594C98.1152 150.609 98.3416 150.675 98.5452 150.789C98.7226 150.897 98.87 151.048 98.9736 151.227C99.0772 151.407 99.1336 151.611 99.1376 151.818C99.1386 152.14 99.2336 152.454 99.4108 152.723C99.5881 152.992 99.84 153.203 100.135 153.33C100.413 153.439 100.716 153.466 101.009 153.408C101.271 153.371 101.531 153.319 101.788 153.252C101.539 153.182 101.281 153.151 101.009 153.089ZM118.938 113.862C118.82 114.139 118.785 114.445 118.837 114.742C118.899 115 118.938 115.257 119.001 115.522C119.079 115.249 119.11 114.992 119.164 114.742C119.181 114.509 119.256 114.284 119.383 114.088C119.488 113.922 119.632 113.785 119.801 113.686C119.971 113.587 120.161 113.53 120.357 113.519C120.357 113.293 120.357 113.074 120.396 112.864C120.087 112.877 119.788 112.977 119.534 113.154C119.28 113.331 119.081 113.576 118.962 113.862H118.938ZM102.755 133.218C102.716 132.955 102.662 132.695 102.591 132.438C102.529 132.696 102.498 132.953 102.427 133.218C102.412 133.449 102.348 133.675 102.24 133.881C102.134 134.06 101.984 134.208 101.804 134.312C101.623 134.416 101.419 134.471 101.211 134.473C100.889 134.474 100.575 134.569 100.306 134.746C100.038 134.923 99.8265 135.175 99.6989 135.471C99.5907 135.748 99.561 136.051 99.6132 136.344C99.6536 136.607 99.7082 136.867 99.7769 137.123C99.843 136.867 99.8951 136.606 99.9328 136.344C99.9592 136.114 100.036 135.893 100.159 135.697C100.272 135.518 100.43 135.372 100.618 135.273C100.805 135.175 101.015 135.127 101.227 135.136C101.548 135.124 101.86 135.019 102.123 134.833C102.385 134.648 102.589 134.39 102.708 134.091C102.8 133.809 102.816 133.508 102.755 133.218ZM110.652 124.152C110.474 124.302 110.263 124.406 110.036 124.456C109.832 124.503 109.619 124.495 109.419 124.434C109.22 124.372 109.04 124.259 108.898 124.105C108.663 123.884 108.368 123.738 108.051 123.684C107.733 123.63 107.407 123.67 107.112 123.801C106.841 123.926 106.611 124.126 106.45 124.378C106.302 124.604 106.13 124.814 105.998 125.056C106.239 124.908 106.45 124.752 106.676 124.604C106.847 124.445 107.057 124.335 107.284 124.284C107.486 124.227 107.699 124.223 107.903 124.273C108.107 124.324 108.294 124.427 108.446 124.573C108.606 124.747 108.803 124.882 109.024 124.969C109.244 125.055 109.481 125.09 109.717 125.072C109.953 125.053 110.181 124.981 110.385 124.86C110.589 124.74 110.763 124.575 110.893 124.378C111.041 124.152 111.197 123.941 111.33 123.7C111.088 123.848 110.878 124.011 110.652 124.152ZM112.102 142.736C111.867 142.516 111.572 142.369 111.255 142.315C110.937 142.261 110.611 142.302 110.316 142.432C110.045 142.557 109.815 142.757 109.654 143.009C109.514 143.235 109.334 143.446 109.202 143.687C109.443 143.539 109.654 143.375 109.88 143.235C110.051 143.077 110.261 142.966 110.488 142.916C110.69 142.858 110.903 142.854 111.107 142.905C111.311 142.955 111.498 143.059 111.649 143.204C111.798 143.362 111.978 143.488 112.178 143.572C112.378 143.657 112.594 143.699 112.811 143.695L112.998 143.11C112.83 143.117 112.663 143.087 112.509 143.022C112.354 142.958 112.215 142.86 112.102 142.736ZM90.165 140.569C89.9943 140.725 89.7839 140.83 89.5569 140.873C89.4026 140.904 89.2435 140.904 89.0892 140.873L89.5335 141.411L89.7128 141.349C89.9927 141.231 90.2333 141.037 90.4066 140.787C90.5547 140.561 90.7106 140.351 90.8432 140.109C90.6015 140.265 90.391 140.444 90.165 140.569Z" fill="white"/>
<path d="M107.128 155.147C106.707 154.515 106.192 153.939 105.725 153.346L104.259 151.522C103.277 150.29 102.271 149.074 101.258 147.858C99.2388 145.441 97.2276 143.009 95.1618 140.624C94.5927 139.969 94.0236 139.314 93.4389 138.675C92.8543 138.036 92.1605 137.365 91.5524 136.695C91.5134 136.656 91.4589 136.695 91.49 136.757C91.9734 137.365 92.4021 138.028 92.8854 138.644C93.3687 139.26 93.8755 139.899 94.39 140.522C95.3878 141.739 96.4012 142.955 97.4146 144.155C99.4259 146.494 101.429 148.903 103.487 151.234L105.218 153.175C105.818 153.853 106.395 154.578 107.058 155.201C107.066 155.207 107.076 155.21 107.085 155.209C107.095 155.209 107.105 155.206 107.113 155.2C107.12 155.194 107.126 155.185 107.129 155.176C107.132 155.166 107.131 155.156 107.128 155.147Z" fill="#263238"/>
<path opacity="0.1" d="M119.858 117.993C117.613 131.503 106.551 162.03 106.551 162.03L94.5226 147.46L117.223 105.216C120.287 105.403 121.152 110.182 119.858 117.993Z" fill="black"/>
<path d="M157.378 180.116C148.168 187.131 136.978 191.058 125.404 191.338C113.83 191.618 102.463 188.236 92.9245 181.675C96.908 161.048 106.723 116.762 112.016 109.863C113.474 107.968 118.252 107.438 122.36 107.945C123.416 108.072 124.459 108.288 125.479 108.592H125.58C126.419 108.835 127.21 109.22 127.919 109.73C136.431 116.528 150.869 158.92 157.378 180.116Z" fill="#455A64"/>
<path d="M152.88 180.116C152.702 180.261 152.494 180.365 152.272 180.42C152.064 180.463 151.849 180.453 151.646 180.392C151.444 180.331 151.259 180.22 151.11 180.069C150.879 179.848 150.587 179.701 150.272 179.647C149.957 179.592 149.632 179.634 149.341 179.765C149.066 179.885 148.835 180.087 148.678 180.342C148.516 180.56 148.365 180.786 148.226 181.02C148.468 180.872 148.678 180.716 148.904 180.568C149.08 180.409 149.291 180.294 149.52 180.233C149.72 180.181 149.93 180.182 150.129 180.236C150.328 180.289 150.511 180.393 150.658 180.537C150.885 180.764 151.174 180.92 151.488 180.985C151.803 181.05 152.129 181.022 152.428 180.903C152.703 180.785 152.938 180.59 153.106 180.342C153.254 180.116 153.426 179.905 153.558 179.664C153.316 179.812 153.106 179.976 152.88 180.116ZM119.242 188.441C119.059 188.592 118.842 188.696 118.611 188.746C118.407 188.787 118.196 188.776 117.997 188.715C117.798 188.653 117.618 188.543 117.472 188.395C117.244 188.162 116.948 188.006 116.626 187.95C116.305 187.894 115.973 187.941 115.68 188.083C115.413 188.215 115.186 188.417 115.025 188.668C114.877 188.878 114.721 189.081 114.573 189.322C114.808 189.189 115.034 189.04 115.251 188.878C115.434 188.737 115.64 188.626 115.859 188.551C116.063 188.5 116.277 188.503 116.48 188.557C116.683 188.612 116.869 188.717 117.02 188.862C117.181 189.037 117.378 189.172 117.598 189.258C117.819 189.345 118.056 189.38 118.292 189.361C118.528 189.343 118.756 189.27 118.96 189.15C119.164 189.03 119.338 188.865 119.468 188.668C119.608 188.441 119.772 188.231 119.897 187.989C119.671 188.122 119.468 188.278 119.242 188.441ZM131.185 169.163C131.002 169.314 130.785 169.418 130.553 169.467C130.349 169.508 130.139 169.498 129.94 169.436C129.741 169.375 129.561 169.265 129.415 169.116C129.187 168.883 128.891 168.728 128.569 168.672C128.247 168.616 127.916 168.662 127.622 168.805C127.355 168.937 127.129 169.139 126.967 169.389C126.819 169.6 126.663 169.802 126.515 170.044C126.751 169.911 126.977 169.762 127.194 169.6C127.377 169.458 127.582 169.348 127.802 169.272C128.006 169.222 128.219 169.224 128.422 169.279C128.625 169.333 128.811 169.438 128.963 169.584C129.123 169.758 129.321 169.894 129.541 169.98C129.762 170.067 129.999 170.102 130.235 170.083C130.47 170.064 130.699 169.992 130.903 169.872C131.107 169.752 131.28 169.587 131.411 169.389C131.551 169.163 131.715 168.953 131.84 168.711C131.614 168.844 131.411 168.999 131.185 169.163ZM99.4024 171.252C99.2311 171.411 99.0171 171.517 98.7866 171.556C98.5816 171.604 98.368 171.598 98.1661 171.539C97.9641 171.48 97.7805 171.371 97.6328 171.221C97.4079 170.99 97.1169 170.835 96.8 170.776C96.4831 170.718 96.1559 170.759 95.8632 170.894C95.5961 171.029 95.368 171.23 95.2006 171.478C95.0863 171.634 94.9772 171.79 94.8732 171.946C94.8769 171.993 94.8769 172.04 94.8732 172.086C95.0745 171.969 95.2697 171.842 95.4579 171.704C95.6305 171.547 95.8394 171.434 96.0659 171.377C96.2676 171.326 96.4791 171.328 96.6799 171.382C96.8806 171.437 97.0639 171.543 97.2119 171.689C97.4394 171.915 97.7279 172.07 98.0422 172.135C98.3564 172.2 98.6828 172.173 98.9814 172.055C99.2567 171.937 99.4922 171.742 99.6597 171.494C99.8 171.268 99.9793 171.057 100.112 170.816C99.8701 170.948 99.6285 171.104 99.4024 171.252ZM113.855 142.783C113.682 142.939 113.469 143.044 113.24 143.087C113.036 143.134 112.823 143.127 112.623 143.065C112.423 143.003 112.243 142.89 112.101 142.736C111.867 142.516 111.572 142.369 111.255 142.315C110.937 142.261 110.611 142.302 110.316 142.432C110.045 142.557 109.815 142.757 109.654 143.009C109.513 143.235 109.334 143.446 109.201 143.687C109.443 143.539 109.654 143.375 109.88 143.235C110.051 143.077 110.26 142.966 110.488 142.916C110.69 142.858 110.903 142.854 111.107 142.905C111.311 142.955 111.498 143.058 111.649 143.204C111.809 143.378 112.007 143.514 112.227 143.6C112.448 143.686 112.685 143.722 112.921 143.703C113.156 143.684 113.385 143.612 113.589 143.492C113.793 143.371 113.966 143.206 114.097 143.009C114.237 142.783 114.401 142.573 114.534 142.331C114.292 142.479 114.081 142.635 113.855 142.783ZM110.651 124.152C110.474 124.302 110.262 124.406 110.036 124.456C109.832 124.503 109.619 124.495 109.419 124.434C109.219 124.372 109.039 124.259 108.897 124.105C108.663 123.884 108.368 123.738 108.051 123.684C107.733 123.63 107.407 123.67 107.112 123.801C106.841 123.926 106.611 124.126 106.45 124.378L106.27 124.635C106.27 124.729 106.216 124.83 106.185 124.931L106.676 124.604C106.846 124.445 107.056 124.335 107.284 124.284C107.486 124.226 107.699 124.223 107.903 124.273C108.107 124.324 108.294 124.427 108.445 124.573C108.605 124.747 108.803 124.882 109.023 124.969C109.244 125.055 109.481 125.09 109.717 125.071C109.953 125.053 110.181 124.98 110.385 124.86C110.589 124.74 110.762 124.575 110.893 124.378C111.041 124.152 111.197 123.941 111.33 123.7C111.088 123.848 110.877 124.011 110.651 124.152ZM135.192 123.45C135.016 123.598 134.808 123.703 134.584 123.754C134.379 123.802 134.165 123.795 133.963 123.733C133.762 123.671 133.581 123.558 133.438 123.403C133.203 123.183 132.909 123.036 132.591 122.982C132.273 122.928 131.947 122.969 131.653 123.099C131.381 123.224 131.151 123.424 130.99 123.676C130.85 123.902 130.67 124.113 130.538 124.354C130.779 124.206 130.99 124.05 131.216 123.902C131.389 123.742 131.602 123.632 131.832 123.583C132.033 123.526 132.245 123.522 132.447 123.573C132.65 123.623 132.835 123.726 132.986 123.871C133.146 124.045 133.344 124.181 133.564 124.267C133.784 124.354 134.021 124.389 134.257 124.37C134.493 124.351 134.721 124.279 134.925 124.159C135.129 124.038 135.303 123.873 135.433 123.676C135.582 123.45 135.737 123.24 135.87 122.998C135.628 123.146 135.418 123.294 135.192 123.45ZM103.168 185.362C103.105 185.089 103.074 184.832 103.004 184.583C102.936 184.839 102.884 185.099 102.848 185.362C102.833 185.597 102.76 185.824 102.638 186.025C102.545 186.188 102.414 186.326 102.257 186.427C102.099 186.529 101.92 186.592 101.733 186.61C102.006 186.734 102.279 186.859 102.552 186.968C102.804 186.783 102.996 186.529 103.105 186.235C103.202 185.955 103.224 185.654 103.168 185.362ZM136.977 138.402C136.915 138.145 136.883 137.887 136.821 137.622C136.75 137.878 136.695 138.139 136.657 138.402C136.642 138.641 136.57 138.874 136.447 139.08C136.342 139.261 136.193 139.412 136.012 139.517C135.832 139.622 135.627 139.679 135.418 139.68C135.096 139.672 134.779 139.763 134.511 139.942C134.243 140.12 134.037 140.378 133.921 140.678C133.796 140.949 133.769 141.255 133.843 141.544C133.89 141.816 133.921 142.074 133.983 142.323C134.058 142.068 134.112 141.807 134.147 141.544C134.174 141.314 134.251 141.093 134.373 140.896C134.485 140.718 134.642 140.572 134.828 140.474C135.014 140.375 135.223 140.328 135.433 140.335C135.756 140.327 136.069 140.224 136.333 140.038C136.596 139.852 136.799 139.592 136.915 139.291C137.004 139.003 137.025 138.699 136.977 138.402ZM113.434 157.977C113.399 157.714 113.347 157.453 113.278 157.197C113.208 157.454 113.177 157.711 113.115 157.977C113.1 158.209 113.034 158.436 112.92 158.639C112.815 158.819 112.665 158.969 112.484 159.073C112.304 159.176 112.099 159.231 111.891 159.232C111.569 159.235 111.256 159.33 110.987 159.507C110.719 159.684 110.508 159.935 110.379 160.229C110.271 160.505 110.244 160.805 110.301 161.095C110.339 161.357 110.391 161.617 110.457 161.874C110.528 161.618 110.582 161.358 110.62 161.095C110.64 160.866 110.717 160.646 110.846 160.456C110.956 160.275 111.112 160.127 111.299 160.029C111.486 159.93 111.696 159.883 111.906 159.894C112.145 159.901 112.382 159.852 112.599 159.752C112.816 159.653 113.008 159.505 113.158 159.319C113.309 159.134 113.415 158.916 113.468 158.684C113.521 158.451 113.521 158.209 113.466 157.977H113.434ZM122.01 111.609C121.963 111.328 121.924 111.071 121.861 110.829C121.793 111.085 121.741 111.346 121.705 111.609C121.679 111.839 121.608 112.061 121.495 112.263C121.391 112.445 121.241 112.596 121.061 112.701C120.88 112.807 120.675 112.863 120.466 112.864C120.146 112.864 119.833 112.958 119.567 113.136C119.3 113.314 119.092 113.566 118.969 113.862C118.851 114.139 118.816 114.445 118.868 114.742C118.93 115 118.969 115.257 119.032 115.522C119.11 115.249 119.141 114.992 119.195 114.742C119.212 114.509 119.287 114.284 119.414 114.088C119.528 113.909 119.686 113.764 119.873 113.664C120.06 113.564 120.27 113.514 120.482 113.519C120.804 113.512 121.118 113.409 121.382 113.223C121.646 113.036 121.848 112.776 121.963 112.474C122.054 112.192 122.067 111.89 122.002 111.601L122.01 111.609ZM146.55 151.81C146.368 151.962 146.159 152.078 145.934 152.153C145.73 152.203 145.516 152.2 145.313 152.146C145.111 152.091 144.924 151.986 144.772 151.841C144.548 151.616 144.262 151.461 143.95 151.395C143.639 151.33 143.315 151.358 143.018 151.475C142.737 151.586 142.497 151.783 142.332 152.036C142.184 152.262 142.021 152.473 141.88 152.715C142.122 152.566 142.332 152.411 142.559 152.262C142.734 152.114 142.943 152.01 143.167 151.958C143.374 151.917 143.589 151.928 143.791 151.989C143.994 152.05 144.178 152.16 144.328 152.309C144.561 152.532 144.856 152.681 145.173 152.736C145.491 152.792 145.818 152.752 146.113 152.621C146.381 152.487 146.609 152.285 146.776 152.036C146.916 151.81 147.08 151.6 147.205 151.366C146.971 151.506 146.768 151.67 146.542 151.81H146.55ZM149.762 168.407C149.531 168.383 149.31 168.306 149.115 168.181C148.936 168.068 148.79 167.909 148.691 167.722C148.593 167.535 148.545 167.324 148.553 167.113C148.543 166.791 148.439 166.479 148.253 166.215C148.068 165.952 147.809 165.749 147.509 165.632C147.221 165.54 146.915 165.524 146.62 165.585C146.363 165.632 146.105 165.671 145.84 165.733C146.097 165.798 146.358 165.85 146.62 165.889C146.858 165.913 147.089 165.985 147.298 166.099C147.476 166.207 147.624 166.357 147.728 166.537C147.831 166.717 147.887 166.921 147.891 167.128C147.888 167.447 147.98 167.759 148.155 168.026C148.33 168.292 148.58 168.501 148.873 168.625C149.153 168.745 149.462 168.78 149.762 168.727C150.034 168.664 150.292 168.625 150.541 168.563C150.285 168.495 150.024 168.443 149.762 168.407ZM100.977 153.089C100.749 153.067 100.528 152.995 100.33 152.878C100.153 152.765 100.008 152.608 99.9096 152.422C99.8113 152.236 99.7627 152.028 99.7688 151.818C99.7586 151.494 99.6558 151.181 99.4726 150.914C99.3634 151.358 99.2621 151.795 99.1608 152.239C99.2242 152.481 99.3422 152.705 99.5057 152.894C99.6692 153.083 99.8739 153.233 100.104 153.33C100.382 153.439 100.685 153.466 100.977 153.408C101.24 153.371 101.5 153.319 101.757 153.252C101.538 153.182 101.281 153.151 101.008 153.089H100.977ZM127.872 154.695C127.644 154.67 127.424 154.598 127.225 154.484C127.048 154.37 126.904 154.213 126.805 154.028C126.707 153.842 126.658 153.634 126.663 153.424C126.656 153.101 126.552 152.788 126.366 152.525C126.18 152.261 125.92 152.058 125.619 151.943C125.342 151.83 125.036 151.809 124.746 151.88C124.473 151.943 124.216 151.974 123.966 152.036C124.222 152.108 124.482 152.163 124.746 152.2C124.979 152.213 125.206 152.279 125.408 152.395C125.587 152.502 125.735 152.652 125.839 152.832C125.942 153.012 125.998 153.216 126.001 153.424C126.002 153.746 126.097 154.06 126.274 154.329C126.451 154.598 126.703 154.809 126.999 154.936C127.276 155.045 127.579 155.072 127.872 155.014C128.135 154.977 128.395 154.923 128.651 154.851C128.433 154.788 128.176 154.757 127.934 154.695H127.872ZM114.822 176.195C114.588 176.164 114.363 176.087 114.159 175.969C113.983 175.853 113.839 175.694 113.741 175.507C113.643 175.32 113.594 175.112 113.598 174.901C113.593 174.578 113.49 174.265 113.304 174.002C113.117 173.739 112.856 173.539 112.554 173.427C112.274 173.324 111.972 173.3 111.68 173.357C111.408 173.427 111.15 173.458 110.901 173.521C111.158 173.599 111.415 173.63 111.68 173.685C111.914 173.697 112.142 173.767 112.343 173.887C112.524 173.994 112.675 174.146 112.781 174.327C112.888 174.508 112.946 174.714 112.951 174.924C112.946 175.158 112.994 175.39 113.091 175.603C113.188 175.815 113.332 176.004 113.512 176.153C113.691 176.303 113.902 176.41 114.129 176.468C114.356 176.525 114.593 176.53 114.822 176.483C115.085 176.445 115.345 176.391 115.602 176.319C115.368 176.304 115.11 176.241 114.853 176.195H114.822ZM134.311 184.419C134.076 184.395 133.849 184.318 133.648 184.193C133.471 184.078 133.326 183.919 133.228 183.732C133.13 183.545 133.081 183.336 133.087 183.125C133.081 182.801 132.977 182.486 132.789 182.222C132.601 181.958 132.338 181.756 132.035 181.644C131.755 181.552 131.457 181.535 131.169 181.597C130.912 181.644 130.639 181.683 130.39 181.745C130.646 181.812 130.907 181.864 131.169 181.901C131.402 181.927 131.627 181.999 131.832 182.112C132.012 182.218 132.162 182.368 132.268 182.548C132.374 182.728 132.434 182.932 132.44 183.141C132.43 183.461 132.519 183.776 132.695 184.044C132.871 184.312 133.125 184.519 133.422 184.637C133.702 184.757 134.011 184.792 134.311 184.739C134.568 184.676 134.825 184.637 135.09 184.575C134.833 184.51 134.573 184.458 134.311 184.419ZM122.618 133.584C122.388 133.558 122.167 133.481 121.97 133.358C121.792 133.245 121.646 133.087 121.547 132.899C121.449 132.712 121.401 132.502 121.409 132.29C121.397 131.969 121.292 131.657 121.107 131.395C120.921 131.132 120.664 130.928 120.365 130.809C120.083 130.717 119.782 130.701 119.492 130.762C119.229 130.803 118.969 130.857 118.712 130.926C118.985 130.988 119.242 131.02 119.492 131.074C119.724 131.094 119.95 131.163 120.154 131.277C120.332 131.386 120.479 131.539 120.583 131.72C120.686 131.901 120.742 132.105 120.747 132.314C120.748 132.634 120.843 132.946 121.02 133.212C121.198 133.478 121.45 133.686 121.744 133.81C122.021 133.925 122.324 133.957 122.618 133.904C122.89 133.842 123.148 133.81 123.397 133.74C123.148 133.673 122.896 133.621 122.641 133.584H122.618Z" fill="white"/>
<path d="M137.827 118.43C152.857 142.814 166.538 169.88 161.533 176.811C157.495 182.392 120.879 197.344 108.671 198.279C104.774 198.576 95.1774 170.028 101.593 167.721C103.417 167.066 133.188 161.375 133.368 160.705C133.945 158.491 129.945 143.609 126.258 126.646C121.511 104.803 131.473 108.108 137.827 118.43Z" fill="#F7A9A0"/>
<path d="M87.0781 172.765C88.8944 172.11 89.9702 170.676 86.7116 169.592C83.4531 168.508 69.6472 166.988 70.5827 162.217C71.5181 157.447 90.6796 160.76 96.2612 162.085C101.84 163.426 106.688 166.862 109.802 171.681C100.9 172.211 94.0863 172.632 87.0781 172.765Z" fill="#F7A9A0"/>
<path d="M76.7488 159.715C78.5926 159.569 80.4433 159.533 82.2914 159.606C84.1468 159.66 85.9865 159.832 87.8262 160.066C91.5073 160.507 95.1172 161.417 98.5685 162.771C97.6564 162.599 96.7755 162.342 95.8634 162.194C94.9514 162.046 94.0627 161.82 93.1584 161.664C91.3498 161.367 89.5413 161.056 87.7015 160.837C85.8618 160.619 84.061 160.401 82.2447 160.206C81.3326 160.112 80.4205 160.027 79.5006 159.956C78.5807 159.886 77.6765 159.801 76.7488 159.715Z" fill="#263238"/>
<path d="M48.2684 168.75L48.2615 171.588L111.662 171.743L111.669 168.905L48.2684 168.75Z" fill="#37474F"/>
<path d="M48.2639 168.742L48.2561 171.588L91.3577 171.689L89.1905 168.844L48.2639 168.742Z" fill="#263238"/>
<path d="M86.4542 171.681L24.6589 171.525L19.6152 129.546L81.4105 129.702L86.4542 171.681Z" fill="#37474F"/>
<path d="M56.7919 150.625C56.8013 151.116 56.7122 151.604 56.53 152.061C56.3479 152.517 56.0762 152.932 55.7311 153.281C55.386 153.631 54.9745 153.907 54.5207 154.095C54.0669 154.283 53.5801 154.378 53.089 154.375C52.0864 154.367 51.1265 153.969 50.4132 153.264C49.6999 152.559 49.2895 151.604 49.2692 150.602C49.2609 150.111 49.3509 149.622 49.5339 149.166C49.7169 148.71 49.9893 148.295 50.3351 147.946C50.6808 147.597 51.0928 147.32 51.547 147.132C52.0012 146.944 52.4884 146.849 52.9798 146.852C53.9817 146.86 54.9408 147.259 55.6529 147.964C56.3649 148.669 56.7736 149.624 56.7919 150.625Z" fill="white"/>
<path d="M108.594 198.279C97.6799 198.895 82.0421 197.289 71.8689 190.25C70.7183 189.497 69.8536 188.38 69.4133 187.077C64.7983 184.006 64.8607 180.903 64.8607 180.903C61.4385 176.717 61.9374 173.56 61.9374 173.56C61.9374 173.56 56.5584 169.888 58.2345 166.271C60.1054 162.202 67.2929 168.15 73.2487 168.999C86.8909 170.948 107.105 171.892 111.096 172.063L108.594 198.279Z" fill="#F7A9A0"/>
<path d="M86.0951 181.067C82.0959 180.541 78.137 179.744 74.2458 178.682C69.9739 177.372 66.0839 175.4 62.0692 173.482C62.0448 173.471 62.0173 173.47 61.992 173.479C61.9668 173.487 61.9455 173.504 61.932 173.527C61.9186 173.55 61.9141 173.577 61.9192 173.603C61.9244 173.63 61.9389 173.653 61.9601 173.669C68.6798 178.284 77.9409 181.044 86.0717 181.246C86.2665 181.254 86.2977 181.098 86.0951 181.067Z" fill="#263238"/>
<path d="M86.1192 189.471C82.2214 188.621 75.4783 187.077 64.9153 180.763C64.9153 180.763 64.8296 180.763 64.8686 180.818C70.9807 185.677 78.3258 188.738 86.0802 189.658C86.3219 189.689 86.3764 189.556 86.1192 189.471Z" fill="#263238"/>
<path d="M86.041 193.992C79.5317 192.292 75.6418 190.398 69.4365 187.038C69.4365 187.038 69.3585 187.038 69.3975 187.101C76.0471 191.653 78.9782 192.558 86.0176 194.226C86.2592 194.28 86.2982 194.054 86.041 193.992Z" fill="#263238"/>
<path d="M130.857 153.79L160.87 154.57C160.87 154.57 145.115 126.186 136.4 115.592C127.318 104.585 121.082 105.364 124.309 123.996C125.981 134.033 128.167 143.977 130.857 153.79Z" fill="#455A64"/>
<path d="M153.231 141.302C153.098 141.302 152.966 141.302 152.833 141.232C152.6 141.207 152.374 141.132 152.171 141.013C151.995 140.897 151.851 140.739 151.752 140.552C151.654 140.365 151.605 140.156 151.609 139.945C151.603 139.623 151.5 139.309 151.313 139.045C151.127 138.781 150.867 138.579 150.565 138.464C150.284 138.367 149.983 138.346 149.692 138.402C149.419 138.464 149.162 138.495 148.912 138.566C149.169 138.634 149.429 138.686 149.692 138.722C149.927 138.736 150.154 138.808 150.354 138.932C150.537 139.036 150.689 139.186 150.797 139.366C150.905 139.546 150.965 139.751 150.97 139.961C150.96 140.281 151.049 140.597 151.225 140.864C151.401 141.132 151.655 141.339 151.953 141.458C152.231 141.574 152.538 141.604 152.833 141.544L153.317 141.45C153.42 141.434 153.521 141.411 153.621 141.38L153.231 141.302ZM146.542 151.81C146.36 151.962 146.151 152.078 145.927 152.153C145.722 152.203 145.509 152.2 145.306 152.146C145.103 152.091 144.917 151.986 144.765 151.841C144.54 151.616 144.255 151.461 143.943 151.395C143.631 151.33 143.307 151.358 143.011 151.475C142.73 151.586 142.49 151.783 142.325 152.036C142.177 152.262 142.013 152.473 141.873 152.715C142.115 152.566 142.325 152.411 142.551 152.262C142.727 152.114 142.935 152.01 143.159 151.958C143.367 151.917 143.581 151.928 143.784 151.989C143.986 152.05 144.17 152.16 144.321 152.309C144.554 152.532 144.848 152.681 145.166 152.736C145.484 152.792 145.811 152.752 146.106 152.621C146.374 152.487 146.602 152.285 146.768 152.036C146.909 151.81 147.073 151.6 147.197 151.366C146.971 151.506 146.768 151.67 146.542 151.81ZM144.687 127.387C144.548 127.524 144.439 127.689 144.367 127.87C144.269 128.153 144.248 128.457 144.305 128.751C144.343 129.014 144.395 129.274 144.461 129.531C144.533 129.275 144.588 129.014 144.625 128.751C144.644 128.52 144.722 128.297 144.851 128.104C144.902 128.027 144.962 127.956 145.03 127.894L144.687 127.387ZM136.977 138.402C136.915 138.145 136.884 137.887 136.821 137.622C136.75 137.878 136.695 138.139 136.658 138.402C136.642 138.641 136.57 138.874 136.447 139.08C136.343 139.261 136.193 139.412 136.012 139.517C135.832 139.622 135.627 139.679 135.418 139.68C135.096 139.672 134.779 139.763 134.511 139.942C134.243 140.12 134.037 140.378 133.921 140.678C133.796 140.949 133.769 141.255 133.843 141.544C133.89 141.816 133.921 142.074 133.984 142.323C134.058 142.068 134.113 141.807 134.147 141.544C134.174 141.314 134.251 141.093 134.374 140.896C134.486 140.718 134.642 140.572 134.829 140.474C135.015 140.375 135.223 140.328 135.434 140.335C135.756 140.327 136.069 140.224 136.333 140.038C136.597 139.852 136.799 139.592 136.915 139.291C137.004 139.003 137.026 138.699 136.977 138.402ZM135.192 123.45C135.017 123.598 134.808 123.703 134.584 123.754C134.379 123.802 134.165 123.795 133.964 123.733C133.763 123.671 133.581 123.558 133.438 123.403C133.203 123.183 132.909 123.036 132.591 122.982C132.274 122.928 131.947 122.969 131.653 123.099C131.381 123.224 131.151 123.424 130.99 123.676C130.85 123.902 130.671 124.113 130.538 124.354C130.78 124.206 130.99 124.05 131.216 123.902C131.389 123.742 131.602 123.632 131.832 123.583C132.033 123.526 132.245 123.522 132.448 123.573C132.65 123.623 132.836 123.726 132.986 123.871C133.146 124.045 133.344 124.181 133.564 124.267C133.784 124.354 134.021 124.389 134.257 124.37C134.493 124.351 134.722 124.279 134.926 124.159C135.129 124.038 135.303 123.873 135.434 123.676C135.582 123.45 135.738 123.24 135.87 122.998C135.629 123.146 135.418 123.294 135.192 123.45Z" fill="white"/>
<path d="M156.061 149.628C155.281 149.526 154.502 149.534 153.777 149.503L151.438 149.402C149.879 149.339 148.32 149.292 146.698 149.261C143.58 149.199 140.392 149.121 137.242 149.113C136.369 149.113 135.504 149.113 134.639 149.113C133.773 149.113 132.814 149.214 131.902 149.238C131.848 149.238 131.856 149.316 131.902 149.324C132.682 149.363 133.461 149.464 134.241 149.511C135.021 149.557 135.847 149.589 136.65 149.612C138.209 149.659 139.786 149.693 141.382 149.713C144.5 149.752 147.618 149.807 150.736 149.784H153.34C154.244 149.784 155.172 149.784 156.076 149.729C156.1 149.706 156.108 149.635 156.061 149.628Z" fill="#263238"/>
<path d="M150.915 138.464C149.848 136.648 148.834 134.808 147.797 133.007C146.605 130.934 145.459 128.821 144.336 126.771C144.336 126.716 144.391 126.67 144.43 126.716C145.794 128.923 150.417 136.25 151.165 137.498C153.355 141.138 155.546 144.779 157.698 148.411C158.906 150.462 160.255 152.847 161.447 154.905C161.533 155.053 159.109 154.905 157.815 154.749C157.752 154.749 157.666 154.531 157.744 154.531C158.945 154.531 160.559 154.43 160.722 154.445C158.516 151 156.365 147.523 154.236 144.023C153.114 142.157 152.007 140.304 150.915 138.464Z" fill="#263238"/>
<path d="M127.155 139.774C126.529 138.789 126.105 137.689 125.907 136.539C126.209 137.533 126.592 138.5 127.053 139.431C126.967 139.01 126.889 138.597 126.804 138.176C126.508 136.671 126.203 135.167 125.977 133.646H126.016C126.718 136.235 127.295 138.854 127.934 141.442C128.573 144.03 129.205 146.727 129.836 149.37C130.179 150.812 130.53 152.254 130.842 153.704C131.325 153.751 131.707 153.751 132.136 153.798C132.165 153.798 132.193 153.809 132.213 153.83C132.234 153.85 132.245 153.878 132.245 153.907C132.245 153.936 132.234 153.964 132.213 153.984C132.193 154.005 132.165 154.016 132.136 154.016C131.592 154.043 131.047 154.023 130.507 153.954C129.158 149.3 128.129 144.537 127.155 139.774Z" fill="#263238"/>
<path d="M114.268 120.441C118.034 121.041 123.95 114.914 126.11 110.151C126.258 109.823 125.533 106.549 124.831 102.527C124.418 100.087 124.052 97.3661 123.826 94.8481L108.336 99.9074C109.474 102.984 110.23 106.189 110.589 109.449C110.621 109.794 110.621 110.141 110.589 110.486C110.589 110.533 110.589 110.595 110.589 110.657C110.378 112.606 110.628 119.864 114.268 120.441Z" fill="#F7A9A0"/>
<path d="M122.735 95.2302C122.525 98.5979 121.176 109.73 112.18 110.603C111.635 110.653 111.088 110.653 110.543 110.603C110.546 110.546 110.546 110.489 110.543 110.431C110.575 110.084 110.575 109.734 110.543 109.387C110.195 106.15 109.457 102.967 108.345 99.9075L122.735 95.2302Z" fill="#263238"/>
<path d="M121.378 74.346C124.349 79.4053 125.214 95.8461 122.158 100.29C117.746 106.721 108.656 109.402 102.716 103.673C96.955 98.1146 96.1988 76.6612 99.777 72.4361C105.055 66.2152 117.021 66.8701 121.378 74.346Z" fill="#F7A9A0"/>
<path d="M108.703 87.8399C108.703 87.7931 108.796 87.8867 108.796 87.9334C108.796 89.0404 109.046 90.2721 110.067 90.6151V90.6775C108.827 90.5527 108.555 88.8923 108.703 87.8399Z" fill="#263238"/>
<path d="M109.622 86.6553C111.4 86.4136 111.742 89.984 110.098 90.2023C108.453 90.4205 108.141 86.8268 109.622 86.6553Z" fill="#263238"/>
<path d="M102.131 88.2143C102.131 88.1753 102.045 88.2767 102.053 88.3234C102.193 89.4226 102.17 90.7089 101.211 91.1688C101.211 91.1688 101.211 91.2389 101.211 91.2312C102.427 90.9739 102.443 89.2667 102.131 88.2143Z" fill="#263238"/>
<path d="M101.032 87.1931C99.2393 87.1931 99.4732 90.8024 101.102 90.7712C102.732 90.7401 102.529 87.1619 101.032 87.1931Z" fill="#263238"/>
<path d="M110.87 84.8545C110.388 84.7643 109.912 84.6471 109.443 84.5037C108.924 84.4512 108.436 84.2293 108.056 83.8722C107.956 83.738 107.903 83.5754 107.903 83.4084C107.903 83.2414 107.956 83.0788 108.056 82.9446C108.306 82.7208 108.611 82.5681 108.94 82.5023C109.269 82.4365 109.61 82.46 109.927 82.5704C110.598 82.6937 111.2 83.0601 111.618 83.5994C111.718 83.7234 111.777 83.8748 111.788 84.0335C111.799 84.1921 111.762 84.3504 111.68 84.487C111.599 84.6236 111.477 84.732 111.333 84.7977C111.188 84.8634 111.026 84.8832 110.87 84.8545Z" fill="#263238"/>
<path d="M99.48 85.5326C99.9482 85.387 100.409 85.2178 100.86 85.0259C101.37 84.9152 101.829 84.6416 102.17 84.2464C102.247 84.1 102.276 83.9327 102.252 83.7686C102.229 83.6046 102.153 83.4525 102.037 83.3343C101.764 83.1412 101.446 83.0237 101.113 82.9936C100.78 82.9634 100.445 83.0218 100.143 83.1628C99.4895 83.3596 98.9335 83.7934 98.5835 84.3789C98.4999 84.5141 98.4597 84.6717 98.4682 84.8305C98.4766 84.9892 98.5335 85.1416 98.631 85.2672C98.7286 85.3927 98.8622 85.4854 99.0139 85.5329C99.1657 85.5803 99.3283 85.5802 99.48 85.5326Z" fill="#263238"/>
<path d="M108.521 98.9804C108.763 98.6919 108.997 98.31 109.395 98.2008C109.804 98.1701 110.216 98.2259 110.603 98.3645C110.607 98.3676 110.612 98.3698 110.617 98.3711C110.621 98.3724 110.627 98.3727 110.632 98.3719C110.637 98.3712 110.642 98.3695 110.646 98.3669C110.65 98.3643 110.654 98.3608 110.657 98.3567C110.664 98.3485 110.666 98.3381 110.665 98.3278C110.663 98.3176 110.658 98.3084 110.65 98.3022C110.47 98.1002 110.239 97.9503 109.981 97.868C109.723 97.7858 109.448 97.7742 109.184 97.8344C108.964 97.9143 108.772 98.0577 108.634 98.2464C108.495 98.4351 108.415 98.6607 108.404 98.8946C108.393 98.9101 108.388 98.9295 108.391 98.9485C108.394 98.9675 108.405 98.9846 108.42 98.996C108.436 99.0073 108.455 99.0121 108.474 99.0092C108.493 99.0062 108.51 98.9959 108.521 98.9804Z" fill="#263238"/>
<path d="M109.227 95.5375C108.006 95.146 106.468 95.4162 105.499 95.6002C105.389 95.6002 105.275 95.3888 105.251 95.2948C105.251 95.2596 105.17 93.3688 105.17 93.3688C104.917 93.5136 103.619 94.183 103.615 93.819C103.582 90.8164 103.546 87.4771 104.172 84.4824C104.172 84.4605 104.181 84.4396 104.197 84.4242C104.214 84.4088 104.235 84.4001 104.258 84.4001C104.281 84.4001 104.302 84.4088 104.318 84.4242C104.334 84.4396 104.343 84.4605 104.343 84.4824C104.494 87.3675 104.115 90.2605 104.221 93.1574C104.681 92.9123 105.174 92.7317 105.686 92.6211C105.792 92.6406 105.662 94.6606 105.723 94.9699C105.723 94.9699 107.587 94.2887 109.215 95.1382C109.634 95.3614 109.809 95.7176 109.227 95.5375Z" fill="#263238"/>
<path d="M102.294 76.521C103.043 77.2773 103.972 77.8308 104.993 78.1294C106.015 78.4281 107.095 78.4621 108.133 78.2282C109.191 77.9871 110.169 77.4805 110.977 76.7562C111.784 76.032 112.394 75.114 112.748 74.0888C112.748 74.0264 112.865 74.0498 112.842 74.0888C112.569 75.2022 111.997 76.2199 111.188 77.0318C110.378 77.8438 109.363 78.4193 108.25 78.696C107.148 78.9029 106.01 78.8183 104.951 78.4505C103.891 78.0827 102.946 77.4444 102.209 76.599C102.123 76.521 102.209 76.4197 102.294 76.521Z" fill="#263238"/>
<path d="M107.268 62.6293C108.535 62.2221 109.893 62.1995 111.173 62.5645C112.452 62.9294 113.594 63.6654 114.456 64.6795C115.455 65.8799 116.131 67.3154 116.42 68.8501C116.42 68.8625 116.415 68.8744 116.406 68.8832C116.398 68.892 116.386 68.8969 116.373 68.8969C116.361 68.8969 116.349 68.892 116.34 68.8832C116.331 68.8744 116.326 68.8625 116.326 68.8501C116.003 67.6216 115.407 66.4817 114.582 65.5154C113.758 64.549 112.726 63.781 111.563 63.2685C110.727 62.9204 109.818 62.7792 108.916 62.8568C108.013 62.9344 107.142 63.2286 106.377 63.7143C105.612 64.2001 104.975 64.8631 104.521 65.6472C104.067 66.4314 103.809 67.3134 103.768 68.2187C103.761 68.2436 103.747 68.2657 103.726 68.2814C103.706 68.2972 103.681 68.3057 103.655 68.3057C103.629 68.3057 103.604 68.2972 103.583 68.2814C103.563 68.2657 103.548 68.2436 103.542 68.2187C103.512 67.0167 103.854 65.8349 104.521 64.8345C105.187 63.8341 106.147 63.0639 107.268 62.6293Z" fill="#263238"/>
<path d="M88.3712 70.3547C88.809 68.6295 89.8449 67.1156 91.2945 66.0827C93.2902 64.6328 95.6756 64.6562 98.0377 64.7263C98.0478 64.7304 98.0565 64.7374 98.0626 64.7464C98.0687 64.7554 98.072 64.7661 98.072 64.777C98.072 64.7879 98.0687 64.7986 98.0626 64.8076C98.0565 64.8166 98.0478 64.8236 98.0377 64.8277C96.0186 64.7731 93.9762 64.8277 92.2066 65.9112C90.7422 66.7916 89.6248 68.1484 89.0416 69.7544C88.496 71.4036 88.562 73.194 89.2276 74.7985C89.8932 76.4031 91.1138 77.7145 92.6666 78.4933C93.5742 78.9176 94.559 79.1517 95.5604 79.1812C96.5619 79.2107 97.5588 79.0349 98.4898 78.6648C98.56 78.6648 98.6223 78.7427 98.5444 78.7739C97.292 79.3203 95.9125 79.5079 94.5597 79.316C93.2069 79.1241 91.934 78.5601 90.8831 77.687C89.8321 76.8139 89.0443 75.6659 88.6077 74.3712C88.171 73.0765 88.1026 71.686 88.4102 70.3547H88.3712Z" fill="#263238"/>
<path d="M122.135 75.1333C122.135 75.1333 121.394 70.152 119.96 68.7332C118.525 67.3144 115.618 67.2131 115.618 67.2131C115.618 67.2131 113.56 63.1204 109.49 63.1984C105.834 63.2763 103.659 66.6986 103.659 66.6986C103.659 66.6986 98.2023 62.1538 92.6987 65.5058C87.4835 68.7254 88.9568 76.9263 94.4137 79.1091C98.3115 80.6682 103.106 76.9497 103.106 76.9497C103.597 76.9497 108.82 79.608 112.258 74.8605C112.258 74.8605 115.89 77.1992 117.715 75.1801C117.715 75.1801 120.435 76.1857 122.135 75.1333Z" fill="#263238"/>
<path opacity="0.2" d="M124.037 88.2843C123.016 87.6763 120.817 83.607 119.827 81.9465C118.915 80.3874 118.268 73.9561 117.995 70.7288C119.368 71.6746 120.517 72.9091 121.363 74.3459C122.938 76.9886 123.912 82.7573 124.037 88.2843Z" fill="#263238"/>
<path d="M121.074 87.9882C121.074 87.9882 123.538 82.0948 126.141 82.8666C128.745 83.6383 127.661 91.6443 125.151 93.2502C124.844 93.4781 124.494 93.6414 124.122 93.7305C123.749 93.8195 123.363 93.8324 122.986 93.7683C122.609 93.7042 122.248 93.5645 121.927 93.3576C121.605 93.1507 121.328 92.8808 121.113 92.5642L121.074 87.9882Z" fill="#F7A9A0"/>
<path d="M125.775 85.1506C125.781 85.1538 125.787 85.1588 125.791 85.165C125.795 85.1712 125.797 85.1784 125.797 85.1857C125.797 85.193 125.795 85.2002 125.791 85.2064C125.787 85.2126 125.781 85.2176 125.775 85.2208C124.029 86.4135 123.436 88.4014 123.101 90.3971C123.169 90.1806 123.284 89.9816 123.437 89.8139C123.589 89.6463 123.777 89.514 123.987 89.4264C124.196 89.3388 124.422 89.298 124.649 89.3068C124.875 89.3155 125.097 89.3737 125.299 89.4772C125.311 89.4816 125.322 89.4896 125.329 89.5C125.336 89.5105 125.34 89.5229 125.34 89.5356C125.34 89.5484 125.336 89.5608 125.329 89.5712C125.322 89.5817 125.311 89.5897 125.299 89.5941C124.94 89.5584 124.578 89.6362 124.265 89.8166C123.952 89.9969 123.703 90.2708 123.553 90.5997C123.3 91.1482 123.109 91.7235 122.984 92.3148C122.93 92.5019 122.602 92.4785 122.625 92.268C122.625 92.268 122.625 92.268 122.625 92.2212C122.056 89.7734 123.21 85.9692 125.775 85.1506Z" fill="#263238"/>
<path d="M110.535 110.276L115.68 118.968L125.37 105.575L129.182 108.826C129.182 108.826 120.778 129.047 120.607 128.221L115.61 120.854L110.932 127.208L109.287 113.261L110.535 110.276Z" fill="#37474F"/>
<path d="M109.732 120.363C109.537 118.024 109.272 115.725 109.186 113.409C109.186 113.331 109.303 113.277 109.334 113.363C110.114 115.506 110.831 124.347 111.159 126.444C111.353 126.171 115.508 120.815 115.571 120.885C116.584 122.016 120.248 127.379 120.513 127.901C121.838 124.69 127.015 112.973 128.691 109.87C128.699 109.851 128.715 109.835 128.734 109.827C128.754 109.819 128.776 109.819 128.796 109.827C128.816 109.836 128.831 109.851 128.839 109.871C128.847 109.891 128.847 109.913 128.839 109.933C127.74 113.269 120.934 129.032 120.794 129.016C118.914 126.508 117.163 123.907 115.547 121.221C114.885 122.351 110.769 128.307 110.706 127.971C110.248 125.454 109.922 122.915 109.732 120.363Z" fill="#263238"/>
<path d="M154 59.1999C162.837 59.1999 170 52.0365 170 43.1999C170 34.3634 162.837 27.2 154 27.2C145.163 27.2 138 34.3634 138 43.1999C138 52.0365 145.163 59.1999 154 59.1999Z" fill="#FFC727"/>
<path d="M164.703 40.3039L163.747 41.2531L163.206 41.7982C160.639 39.3147 157.578 37.9887 154 37.9887C150.422 37.9887 147.366 39.3147 144.78 41.8193C144.611 41.6425 144.439 41.4594 144.264 41.2826C143.953 40.9648 143.633 40.6512 143.321 40.3334C143.321 40.3334 143.302 40.3228 143.294 40.3165V40.2934L143.363 40.2365C143.765 39.8787 144.157 39.5083 144.571 39.1673C145.429 38.4654 146.368 37.8676 147.366 37.3868C148.537 36.8031 149.783 36.3838 151.069 36.1408C151.681 36.0292 152.302 35.9724 152.919 35.8966C153.129 35.8693 154.497 35.8651 154.539 35.8672C154.96 35.8987 155.381 35.9177 155.802 35.964C156.963 36.0953 158.104 36.3674 159.199 36.7743C159.994 37.0673 160.763 37.4271 161.497 37.8498C162.274 38.2934 163.008 38.8077 163.691 39.3862C164.034 39.6788 164.364 39.9903 164.699 40.2934L164.703 40.3039Z" fill="white"/>
<path d="M147.817 44.8079L146.306 43.3115C147.955 41.6313 150.116 40.5461 152.449 40.226C156.027 39.744 159.09 40.8279 161.689 43.2904L160.173 44.7995C158.464 43.141 156.408 42.2444 153.996 42.2444C151.584 42.2444 149.536 43.141 147.817 44.8079Z" fill="white"/>
<path d="M158.664 46.3149C158.168 46.8137 157.669 47.3104 157.162 47.8155C156.747 47.3986 156.254 47.0678 155.711 46.8421C155.168 46.6164 154.585 46.5001 153.997 46.5001C153.409 46.5001 152.827 46.6164 152.284 46.8421C151.741 47.0678 151.248 47.3986 150.833 47.8155L149.332 46.317C149.942 45.6989 150.668 45.2081 151.469 44.8731C152.27 44.5381 153.13 44.3654 153.998 44.3652C154.866 44.365 155.726 44.5373 156.527 44.872C157.328 45.2066 158.054 45.6971 158.664 46.3149Z" fill="white"/>
<path d="M155.356 49.1815C155.356 49.45 155.276 49.7125 155.127 49.9357C154.978 50.159 154.766 50.333 154.518 50.4357C154.27 50.5385 153.997 50.5653 153.733 50.513C153.47 50.4606 153.228 50.3313 153.038 50.1414C152.848 49.9516 152.719 49.7097 152.667 49.4463C152.614 49.183 152.641 48.9101 152.744 48.662C152.847 48.4139 153.021 48.2019 153.244 48.0528C153.467 47.9036 153.73 47.824 153.998 47.824C154.358 47.824 154.704 47.967 154.958 48.2216C155.213 48.4762 155.356 48.8215 155.356 49.1815Z" fill="white"/>
<path d="M58.0091 43.4772C58.0576 45.9234 58.7853 48.3079 60.1108 50.3644C61.4364 52.4209 63.3075 54.0684 65.5153 55.1228C67.7231 56.1772 70.1806 56.597 72.6132 56.3354C75.0459 56.0737 77.3578 55.1409 79.2909 53.6412L85.7902 55.1593L82.974 49.1967C83.965 47.2631 84.4584 45.1129 84.4096 42.9406C84.4027 41.1881 84.0471 39.4545 83.3634 37.8409C82.6797 36.2273 81.6816 34.7659 80.4274 33.5419C79.1731 32.3179 77.6878 31.3558 76.0579 30.7117C74.4281 30.0677 72.6863 29.7545 70.9342 29.7904C69.1821 29.8263 67.4546 30.2106 65.8525 30.921C64.2504 31.6313 62.8058 32.6534 61.6028 33.9278C60.3997 35.2022 59.4624 36.7032 58.8454 38.3435C58.2284 39.9838 57.9441 41.7305 58.0091 43.4818V43.4772Z" fill="white"/>
<path d="M58.009 43.4771C58.0715 45.9233 58.8097 48.3045 60.1418 50.357C60.4706 50.8662 60.8321 51.3534 61.2242 51.8156C61.6276 52.2694 62.0596 52.6968 62.5177 53.0953C62.9703 53.4982 63.4516 53.8676 63.9578 54.2006C64.2055 54.3749 64.4807 54.5079 64.7376 54.6593L65.132 54.884C65.265 54.9574 65.4072 55.0125 65.5448 55.0767C66.6392 55.5927 67.8 55.9539 68.9939 56.1499C69.5902 56.2453 70.1927 56.2974 70.7965 56.3059C71.3996 56.3327 72.0039 56.3112 72.6036 56.2417C75.0086 55.966 77.2893 55.0257 79.19 53.5264L79.2496 53.4805H79.3276L85.8359 54.962L85.6066 55.2418L82.7767 49.2792L82.7308 49.1829L82.7767 49.0866C83.6659 47.3248 84.1486 45.386 84.1893 43.4129C84.2257 41.4362 83.8116 39.4772 82.9785 37.6843C82.1348 35.8971 80.9107 34.3161 79.3918 33.0518C77.8586 31.7936 76.0573 30.9039 74.1263 30.4512C72.1888 29.9912 70.1724 29.9755 68.228 30.4053C66.283 30.8567 64.4635 31.7374 62.9029 32.983C61.3448 34.2466 60.0946 35.848 59.2467 37.6661C58.3988 39.4842 57.9756 41.4713 58.009 43.4771ZM58.009 43.4771C57.9646 41.4658 58.3785 39.4708 59.2192 37.6431C60.0599 35.8154 61.3055 34.203 62.8617 32.9279C64.4132 31.6364 66.2413 30.7192 68.2042 30.2476C70.1672 29.7759 72.2124 29.7624 74.1814 30.2081C76.1638 30.6398 78.0203 31.5218 79.6073 32.7858C81.1944 34.0595 82.4724 35.6762 83.3454 37.5145C84.2198 39.3569 84.6589 41.3757 84.6287 43.4149C84.5985 45.454 84.0998 47.4589 83.1711 49.2746V49.082L85.9689 55.0446L86.1478 55.4207L85.7396 55.3243L79.2496 53.7695L79.3872 53.7374C77.4244 55.24 75.0817 56.166 72.6219 56.4114C72.0123 56.4717 71.3989 56.484 70.7873 56.4481C70.1721 56.4309 69.559 56.3696 68.9527 56.2646C67.7503 56.0457 66.5836 55.663 65.4852 55.1271C64.3846 54.5972 63.3653 53.9131 62.458 53.0953C62.0013 52.6936 61.5708 52.2631 61.1692 51.8064C60.7785 51.3395 60.4184 50.8477 60.0913 50.3341C58.7808 48.283 58.0604 45.9106 58.009 43.4771Z" fill="#263238"/>
<path d="M68.9254 45.5274C68.9158 44.9752 69.0156 44.4265 69.219 43.9129C69.4732 43.3744 69.8991 42.9356 70.4298 42.6654C70.6133 42.5553 70.8426 42.4269 71.1087 42.2893C71.3861 42.1424 71.6515 41.9737 71.9021 41.7847C72.1545 41.5915 72.3743 41.3593 72.5534 41.0967C72.7318 40.8244 72.8245 40.5049 72.8195 40.1794C72.8235 39.9449 72.7732 39.7125 72.6727 39.5006C72.5758 39.3132 72.4452 39.1453 72.2874 39.0052C72.1217 38.8699 71.9318 38.7672 71.7278 38.7025C71.5158 38.6352 71.2945 38.6011 71.072 38.6016C70.8207 38.5986 70.5712 38.6454 70.3381 38.7392C70.1249 38.8288 69.9245 38.946 69.7418 39.0878C69.5745 39.2255 69.4209 39.3791 69.2832 39.5465C69.1542 39.7075 69.0347 39.876 68.9254 40.051L67.3293 38.9502C67.4823 38.5808 67.6963 38.2397 67.9622 37.9412C68.2283 37.6481 68.5377 37.3976 68.8796 37.1981C69.2203 36.9952 69.5877 36.8409 69.9712 36.7395C70.3662 36.6347 70.7733 36.5822 71.182 36.5835C71.6481 36.5825 72.1118 36.6505 72.558 36.7853C73.0032 36.9165 73.4179 37.1347 73.7781 37.4275C74.1509 37.7343 74.4515 38.1196 74.6587 38.5558C74.8958 39.07 75.0119 39.6317 74.9981 40.1978C75.0037 40.5497 74.9573 40.9005 74.8605 41.2389C74.7713 41.5295 74.6383 41.8048 74.4661 42.0553C74.294 42.301 74.0904 42.5231 73.8606 42.7158C73.6103 42.9224 73.3468 43.1124 73.0717 43.2846C72.824 43.4313 72.581 43.5735 72.3379 43.7065C72.1002 43.8372 71.8759 43.9908 71.6682 44.1652C71.4696 44.3241 71.3004 44.5166 71.1683 44.7339C71.0344 44.9715 70.9678 45.2411 70.9756 45.5136L68.9254 45.5274ZM68.9621 49.8067V47.2703H70.9986V49.8067H68.9621Z" fill="#E74D3D"/>
</svg>
