<svg width="800" height="646" viewBox="0 0 800 646" fill="none" xmlns="http://www.w3.org/2000/svg">
<path d="M258.72 278.96H254.88V276.4H256.16V275.12H258.72V278.96Z" fill="#EBEBEB"/>
<path d="M249.696 278.96H244.512V276.4H249.696V278.96ZM239.328 278.96H234.16V276.4H239.328V278.96ZM228.976 278.96H223.792V276.4H228.976V278.96ZM218.608 278.96H213.424V276.4H218.608V278.96ZM208.24 278.96H203.056V276.4H208.24V278.96ZM197.888 278.96H192.704V276.4H197.888V278.96ZM187.52 278.96H182.4V276.4H187.584L187.52 278.96ZM177.152 278.96H171.968V276.4H177.152V278.96ZM166.784 278.96H161.6V276.4H166.784V278.96ZM156.432 278.96H151.248V276.4H156.432V278.96ZM146.064 278.96H140.88V276.4H146.064V278.96ZM135.696 278.96H130.512V276.4H135.696V278.96ZM125.328 278.96H120.16V276.4H125.328V278.96Z" fill="#EBEBEB"/>
<path d="M114.976 278.96H111.136V275.12H113.696V276.4H114.976V278.96Z" fill="#EBEBEB"/>
<path d="M113.696 269.952H111.136V264.768H113.696V269.952ZM113.696 259.584H111.136V254.4H113.696V259.584ZM113.696 249.216H111.136V244.032H113.696V249.216ZM113.696 238.848H111.136V233.6H113.696V238.848ZM113.696 228.496H111.136V223.312H113.696V228.496ZM113.696 218.128H111.136V212.944H113.696V218.128ZM113.696 207.76H111.136V202.576H113.696V207.76ZM113.696 197.392H111.136V192.224H113.696V197.392ZM113.696 187.04H111.136V181.856H113.696V187.04ZM113.696 176.672H111.136V171.488H113.696V176.672ZM113.696 166.304H111.136V161.12H113.696V166.304ZM113.696 155.936H111.136V150.768H113.696V155.936ZM113.696 145.584H111.136V140.4H113.696V145.584Z" fill="#EBEBEB"/>
<path d="M113.696 135.216H111.136V131.376H114.976V133.936H113.696V135.216Z" fill="#EBEBEB"/>
<path d="M249.696 133.936H244.512V131.376H249.696V133.936ZM239.328 133.936H234.16V131.376H239.328V133.936ZM228.976 133.936H223.792V131.376H228.976V133.936ZM218.608 133.936H213.424V131.376H218.608V133.936ZM208.24 133.936H203.056V131.376H208.24V133.936ZM197.888 133.936H192.704V131.376H197.888V133.936ZM187.52 133.936H182.4V131.376H187.584L187.52 133.936ZM177.152 133.936H171.968V131.376H177.152V133.936ZM166.784 133.936H161.6V131.376H166.784V133.936ZM156.432 133.936H151.248V131.376H156.432V133.936ZM146.064 133.936H140.88V131.376H146.064V133.936ZM135.696 133.936H130.512V131.376H135.696V133.936ZM125.328 133.936H120.16V131.376H125.328V133.936Z" fill="#EBEBEB"/>
<path d="M258.72 135.216H256.16V133.936H254.88V131.376H258.72V135.216Z" fill="#EBEBEB"/>
<path d="M258.72 269.952H256.16V264.768H258.72V269.952ZM258.72 259.584H256.16V254.4H258.72V259.584ZM258.72 249.216H256.16V244.032H258.72V249.216ZM258.72 238.848H256.16V233.68H258.72V238.848ZM258.72 228.496H256.16V223.312H258.72V228.496ZM258.72 218.128H256.16V212.944H258.72V218.128ZM258.72 207.76H256.16V202.576H258.72V207.76ZM258.72 197.392H256.16V192.224H258.72V197.392ZM258.72 187.04H256.16V181.856H258.72V187.04ZM258.72 176.672H256.16V171.488H258.72V176.672ZM258.72 166.304H256.16V161.12H258.72V166.304ZM258.72 155.936H256.16V150.768H258.72V155.936ZM258.72 145.584H256.16V140.4H258.72V145.584Z" fill="#EBEBEB"/>
<path d="M121.456 268.656H103.376V286.736H121.456V268.656Z" fill="white"/>
<path d="M122.72 288H102.096V267.376H122.72V288ZM104.656 285.44H120.16V269.936H104.656V285.44Z" fill="#EBEBEB"/>
<path d="M121.456 196.129H103.376V214.209H121.456V196.129Z" fill="white"/>
<path d="M122.72 215.488H102.096V194.848H122.72V215.488ZM104.656 212.928H120.16V197.408H104.656V212.928Z" fill="#EBEBEB"/>
<path d="M121.456 123.616H103.376V141.696H121.456V123.616Z" fill="white"/>
<path d="M122.72 142.977H102.096V122.337H122.72V142.977ZM104.656 140.417H120.16V124.897H104.656V140.417Z" fill="#EBEBEB"/>
<path d="M266.48 268.656H248.4V286.736H266.48V268.656Z" fill="white"/>
<path d="M267.76 288H247.12V267.376H267.76V288ZM249.68 285.44H265.2V269.936H249.68V285.44Z" fill="#EBEBEB"/>
<path d="M266.48 196.129H248.4V214.209H266.48V196.129Z" fill="white"/>
<path d="M267.76 215.488H247.12V194.848H267.76V215.488ZM249.68 212.928H265.2V197.408H249.68V212.928Z" fill="#EBEBEB"/>
<path d="M266.48 123.616H248.4V141.696H266.48V123.616Z" fill="white"/>
<path d="M267.76 142.977H247.12V122.337H267.76V142.977ZM249.68 140.417H265.2V124.897H249.68V140.417Z" fill="#EBEBEB"/>
<path d="M193.968 123.616H175.888V141.696H193.968V123.616Z" fill="white"/>
<path d="M195.2 142.977H174.56V122.337H195.2V142.977ZM177.12 140.417H192.64V124.897H177.12V140.417Z" fill="#EBEBEB"/>
<path d="M193.968 268.656H175.888V286.736H193.968V268.656Z" fill="white"/>
<path d="M195.2 288H174.56V267.376H195.2V288ZM177.12 285.44H192.64V269.936H177.12V285.44Z" fill="#EBEBEB"/>
<path d="M225.6 192H223.056C215.856 170.24 211.712 161.296 199.568 161.296H197.968V249.152H209.312V251.952H160.624V249.152H171.968V161.248H170.24C158.096 161.248 153.6 171.2 146.736 192H144.208L145.6 158.4H224.368L225.6 192Z" fill="#EBEBEB"/>
<path d="M148.144 494.448H105.776V512.352H148.144V494.448Z" fill="#EBEBEB"/>
<path d="M369.52 354.656H327.152V372.56H369.52V354.656Z" fill="#EBEBEB"/>
<path d="M124.512 517.025H82.144V534.929H124.512V517.025Z" fill="#EBEBEB"/>
<path d="M717.856 517.025H675.488V534.929H717.856V517.025Z" fill="#EBEBEB"/>
<path d="M694.224 91.7283H651.856V109.632H694.224V91.7283Z" fill="#EBEBEB"/>
<path d="M717.856 114.305H675.488V132.209H717.856V114.305Z" fill="#EBEBEB"/>
<path d="M148.144 91.7283H105.776V109.632H148.144V91.7283Z" fill="#EBEBEB"/>
<path d="M717.84 227.296H410.272V240.496H717.84V227.296Z" fill="#EBEBEB"/>
<path d="M454.992 292.497H443.024L438.208 240.513H454.992V292.497Z" fill="#EBEBEB"/>
<path d="M673.136 292.497H685.12L689.92 240.513H673.136V292.497Z" fill="#EBEBEB"/>
<path d="M438.208 240.513H454.992V258.417H439.856L438.208 240.513Z" fill="#DBDBDB"/>
<path d="M689.92 240.513L688.272 258.417H673.136V240.513H689.92Z" fill="#DBDBDB"/>
<path d="M521.6 148.08C507.952 166.56 493.712 188.08 490.256 211.184C490.256 211.536 490.768 211.648 490.848 211.312C492.414 204.989 494.43 198.787 496.88 192.752C505.856 190.272 514.672 188.256 519.376 179.344C524.176 170.192 523.568 158.256 522.656 148.272C522.656 147.744 521.936 147.712 521.6 148.08Z" fill="#EBEBEB"/>
<path d="M497.088 192.577C503.216 178.817 511.088 164.993 521.088 153.681C521.088 153.681 521.264 153.681 521.2 153.793C514.957 161.856 509.472 170.48 504.816 179.553C509.328 174.977 514.288 170.865 518.56 166.001C518.568 165.991 518.579 165.984 518.59 165.978C518.601 165.972 518.614 165.969 518.626 165.969C518.639 165.968 518.652 165.97 518.664 165.974C518.676 165.978 518.687 165.984 518.696 165.993C518.705 166.001 518.713 166.011 518.719 166.023C518.724 166.034 518.727 166.046 518.728 166.059C518.729 166.072 518.727 166.084 518.723 166.096C518.719 166.108 518.712 166.119 518.704 166.129C514.448 171.233 509.808 176.769 504.304 180.529C502.816 183.281 501.328 186.017 499.808 188.769C500.176 188.561 500.56 188.385 500.944 188.193C500.944 188.193 501.072 188.193 500.944 188.289C500.512 188.497 500.096 188.721 499.664 188.913C498.944 190.209 498.224 191.521 497.488 192.817C497.36 193.121 496.96 192.865 497.088 192.577Z" fill="#A6A6A6"/>
<path d="M501.648 187.777C505.318 185.723 508.822 183.385 512.128 180.785C512.208 180.785 512.336 180.785 512.256 180.913C509.051 183.678 505.541 186.067 501.792 188.033C501.632 188.113 501.472 187.873 501.648 187.777Z" fill="#A6A6A6"/>
<path d="M488.816 210.976C488.816 211.264 489.328 211.248 489.312 210.976C489.392 203.328 489.312 195.664 489.44 188C491.392 184.048 495.6 181.872 498.512 178.704C500.615 176.397 502.441 173.852 503.952 171.12C507.473 164.606 509.624 157.44 510.272 150.064C511.072 141.904 507.984 114.96 504.544 115.888C502.752 116.384 496.976 129.728 495.44 134.128C492.954 141.414 491.139 148.912 490.016 156.528C487.216 174.4 487.456 192.896 488.816 210.976Z" fill="#EBEBEB"/>
<path d="M488.768 178.049C489.184 168.449 491.36 158.641 493.392 149.249C495.6 139.153 498.192 129.665 503.344 120.657C503.368 120.632 503.4 120.615 503.434 120.61C503.469 120.604 503.504 120.61 503.535 120.626C503.565 120.642 503.59 120.668 503.605 120.7C503.619 120.731 503.624 120.767 503.616 120.801C500.154 127.803 497.471 135.165 495.616 142.753C495.968 142.209 496.384 141.697 496.752 141.153C496.896 140.945 497.216 141.153 497.088 141.345C496.634 142.16 496.098 142.926 495.488 143.633C493.696 150.849 492.416 158.225 491.312 165.585L491.568 165.297C491.568 165.297 491.712 165.297 491.68 165.393C491.648 165.489 491.392 165.873 491.232 166.113C490.688 169.857 490.176 173.585 489.632 177.313C496.452 171.837 501.793 164.741 505.168 156.673C505.168 156.673 505.248 156.673 505.168 156.673C501.968 165.233 497.088 172.849 489.472 178.049C489.328 179.041 489.184 180.033 489.056 181.025C489.056 181.233 488.688 181.185 488.688 181.025C488.688 180.145 488.688 179.265 488.768 178.385C488.742 178.365 488.72 178.34 488.705 178.311C488.691 178.282 488.683 178.25 488.683 178.217C488.683 178.184 488.691 178.152 488.705 178.123C488.72 178.093 488.742 178.068 488.768 178.049Z" fill="#A6A6A6"/>
<path d="M491.904 164.048C497.092 156.676 501.627 148.865 505.456 140.704C505.456 140.704 505.648 140.704 505.616 140.704C502.576 149.267 498.018 157.213 492.16 164.16C492.032 164.384 491.792 164.208 491.904 164.048Z" fill="#A6A6A6"/>
<path d="M498.656 138.832C500.752 135.104 502.976 131.488 504.96 127.632C504.96 127.536 505.168 127.632 505.12 127.728C503.494 131.678 501.433 135.434 498.976 138.928C498.951 138.952 498.921 138.968 498.888 138.976C498.855 138.984 498.821 138.983 498.788 138.974C498.756 138.964 498.726 138.946 498.703 138.921C498.68 138.896 498.664 138.866 498.656 138.832Z" fill="#A6A6A6"/>
<path d="M485.088 191.408C484.983 196.468 484.382 201.505 483.296 206.448L483.536 208.048C485.099 202.592 486.001 196.968 486.224 191.296C486.272 191.216 486.297 191.125 486.297 191.032C486.297 190.939 486.272 190.848 486.224 190.768C486.443 183.162 485.874 175.553 484.528 168.064C482.176 154.032 477.008 140.56 467.216 130.048C467.136 129.979 467.041 129.929 466.938 129.902C466.836 129.875 466.728 129.873 466.624 129.894C466.521 129.916 466.423 129.961 466.34 130.027C466.257 130.093 466.189 130.176 466.144 130.272C462.192 140.304 463.568 152.288 466.928 162.272C468.765 167.733 471.39 172.897 474.72 177.6C478.08 182.272 482.352 186.256 485.088 191.408Z" fill="#EBEBEB"/>
<path d="M468.416 134.785C477.68 149.825 484.128 167.665 484.928 185.441C484.928 185.761 484.4 185.841 484.368 185.441C484.144 183.841 483.904 182.241 483.648 180.641C479.618 177.075 476.078 172.992 473.12 168.497C473.12 168.497 473.12 168.321 473.248 168.385C476.43 172.318 479.844 176.058 483.472 179.585C482.811 175.67 482.016 171.803 481.088 167.985L480.352 167.121C480.192 166.929 480.464 166.657 480.64 166.849L480.848 167.089C479.56 161.866 477.958 156.726 476.048 151.697C473.696 148.881 471.056 146.449 469.344 143.057H469.456C470.848 144.993 472.176 146.945 473.744 148.737C474.368 149.457 475.056 150.129 475.712 150.833C473.571 145.379 471.03 140.09 468.112 135.009C468.104 134.97 468.107 134.929 468.122 134.892C468.136 134.855 468.16 134.823 468.192 134.799C468.224 134.776 468.262 134.762 468.302 134.759C468.342 134.757 468.381 134.765 468.416 134.785V134.785Z" fill="#A6A6A6"/>
<path d="M470.288 153.345C473.28 157.377 476.688 161.233 479.488 165.393C479.568 165.521 479.392 165.633 479.296 165.537C475.73 161.912 472.633 157.854 470.08 153.457C470 153.329 470.192 153.233 470.288 153.345Z" fill="#A6A6A6"/>
<path d="M479.904 166.4L480.032 166.528C480.112 166.624 480.032 166.768 479.888 166.672L479.76 166.544C479.68 166.4 479.808 166.24 479.904 166.4Z" fill="#A6A6A6"/>
<path d="M452.448 159.904C453.542 168.311 456.93 176.255 462.24 182.864C464.44 185.469 467.167 187.579 470.24 189.056C473.664 190.752 477.264 192.72 480.816 194.112C482.509 198.413 483.769 202.873 484.576 207.424L484.912 206.24C482.64 186.64 469.952 169.888 453.728 159.136C453.603 159.027 453.447 158.96 453.282 158.945C453.116 158.93 452.95 158.968 452.808 159.054C452.666 159.139 452.554 159.268 452.49 159.42C452.425 159.573 452.41 159.743 452.448 159.904V159.904Z" fill="#EBEBEB"/>
<path d="M458.064 165.696C457.936 165.6 458.064 165.392 458.224 165.488C467.135 172.118 474.242 180.876 478.896 190.96C479.008 191.232 478.64 191.472 478.496 191.2C477.744 189.872 476.976 188.592 476.192 187.328C472.496 186.64 468.976 184.032 466.24 181.552C466.16 181.552 466.24 181.376 466.336 181.44C467.753 182.732 469.328 183.84 471.024 184.736C472.544 185.504 474.224 185.984 475.728 186.592C474.368 184.416 472.928 182.336 471.44 180.304C467.419 178.782 463.644 176.674 460.24 174.048C460.144 174.048 460.24 173.792 460.352 173.872C463.699 175.89 467.149 177.733 470.688 179.392C468.432 176.408 465.996 173.566 463.392 170.88C462.128 170.224 460.848 169.552 459.632 168.832C459.536 168.832 459.632 168.608 459.712 168.656C460.725 169.008 461.692 169.48 462.592 170.064C461.184 168.592 459.664 167.12 458.064 165.696Z" fill="#A6A6A6"/>
<path d="M458.4 172.465C458.621 172.596 458.83 172.746 459.024 172.913C459.024 172.913 459.024 173.041 458.944 173.009C458.717 172.911 458.503 172.788 458.304 172.641C458.192 172.577 458.288 172.401 458.4 172.465Z" fill="#A6A6A6"/>
<path d="M504.8 227.296H471.392L473.024 205.408L473.664 198.256H502.224L502.848 205.408L504.8 227.296Z" fill="#DBDBDB"/>
<path d="M502.848 205.408H473.024L473.664 198.256H502.224L502.848 205.408Z" fill="#C7C7C7"/>
<path d="M504.512 192.4H471.392V199.728H504.512V192.4Z" fill="#DBDBDB"/>
<path d="M586 227.248V147.728H565.968V227.248H586Z" fill="#C7C7C7"/>
<path d="M585.984 152.209V143.473H565.952V152.209H585.984Z" fill="#DBDBDB"/>
<path d="M585.984 166.673V163.425H565.952V166.673H585.984Z" fill="#DBDBDB"/>
<path d="M585.984 216.817V208.081H565.952V216.817H585.984Z" fill="#DBDBDB"/>
<path d="M599.984 227.248V134.496H585.984V227.248H599.984Z" fill="#DBDBDB"/>
<path d="M597.12 178.897V143.217H588.72V178.897H597.12Z" fill="#EBEBEB"/>
<path d="M699.633 217.208L633.671 152.001L623.829 161.957L689.791 227.164L699.633 217.208Z" fill="#C7C7C7"/>
<path d="M682.204 203.876L656.829 178.792L650.924 184.766L676.298 209.85L682.204 203.876Z" fill="#DBDBDB"/>
<path d="M623.728 227.28V156.816H599.968V227.28H623.728Z" fill="#A6A6A6"/>
<path d="M623.744 219.793V213.233H599.984V219.793H623.744Z" fill="#C7C7C7"/>
<path d="M623.744 208.913V206.368H599.984V208.913H623.744Z" fill="#C7C7C7"/>
<path d="M540.013 227.319L566.127 166.479L551.042 160.004L524.928 220.844L540.013 227.319Z" fill="#A6A6A6"/>
<path d="M542.761 220.866L545.197 215.19L530.112 208.716L527.676 214.391L542.761 220.866Z" fill="#C7C7C7"/>
<path d="M558.291 184.68L560.727 179.005L545.642 172.53L543.206 178.205L558.291 184.68Z" fill="#C7C7C7"/>
<path d="M555.661 190.771L556.608 188.566L541.523 182.091L540.576 184.296L555.661 190.771Z" fill="#C7C7C7"/>
<path d="M601.472 409.904L508.896 434.112L477.808 315.264L546.56 297.28L570.4 291.056L576.32 313.696L601.472 409.904Z" fill="#EBEBEB"/>
<path d="M492.863 335.838L568.281 316.123L567.483 313.073L492.066 332.788L492.863 335.838Z" fill="#DBDBDB"/>
<path d="M494.902 343.553L570.319 323.838L569.522 320.789L494.104 340.504L494.902 343.553Z" fill="#DBDBDB"/>
<path d="M496.905 351.242L572.322 331.526L571.525 328.477L496.107 348.192L496.905 351.242Z" fill="#DBDBDB"/>
<path d="M498.928 358.947L574.345 339.232L573.548 336.182L498.13 355.897L498.928 358.947Z" fill="#DBDBDB"/>
<path d="M500.931 366.651L576.348 346.936L575.551 343.886L500.134 363.602L500.931 366.651Z" fill="#DBDBDB"/>
<path d="M502.954 374.355L578.372 354.64L577.574 351.59L502.157 371.305L502.954 374.355Z" fill="#DBDBDB"/>
<path d="M504.961 382.059L580.379 362.343L579.582 359.294L504.164 379.009L504.961 382.059Z" fill="#DBDBDB"/>
<path d="M506.98 389.763L582.398 370.048L581.601 366.998L506.183 386.713L506.98 389.763Z" fill="#DBDBDB"/>
<path d="M508.987 397.468L584.405 377.753L583.608 374.703L508.19 394.419L508.987 397.468Z" fill="#DBDBDB"/>
<path d="M511.006 405.156L586.424 385.441L585.627 382.392L510.209 402.107L511.006 405.156Z" fill="#DBDBDB"/>
<path d="M512.699 410.155L588.312 390.667L587.525 387.609L511.911 407.097L512.699 410.155Z" fill="#DBDBDB"/>
<path d="M515.048 420.562L590.466 400.846L589.668 397.797L514.251 417.512L515.048 420.562Z" fill="#DBDBDB"/>
<path d="M626.064 444.192L530.512 449.536L523.648 326.88L594.592 322.912L620.512 344.912L626.064 444.192Z" fill="#EBEBEB"/>
<path d="M594.592 322.912L620.512 344.912L595.904 346.288L594.592 322.912Z" fill="#DBDBDB"/>
<path d="M534.32 350.063L587.437 347.093L587.261 343.946L534.144 346.916L534.32 350.063Z" fill="#DBDBDB"/>
<path d="M534.758 358.021L587.875 355.051L587.699 351.904L534.582 354.874L534.758 358.021Z" fill="#DBDBDB"/>
<path d="M535.227 365.96L588.344 362.991L588.168 359.844L535.051 362.813L535.227 365.96Z" fill="#DBDBDB"/>
<path d="M535.66 373.907L613.491 369.555L613.315 366.408L535.484 370.76L535.66 373.907Z" fill="#DBDBDB"/>
<path d="M536.097 381.847L613.928 377.496L613.752 374.348L535.921 378.7L536.097 381.847Z" fill="#DBDBDB"/>
<path d="M536.534 389.805L614.365 385.453L614.189 382.306L536.358 386.658L536.534 389.805Z" fill="#DBDBDB"/>
<path d="M537.004 397.762L614.834 393.41L614.658 390.263L536.828 394.615L537.004 397.762Z" fill="#DBDBDB"/>
<path d="M537.441 405.703L615.271 401.352L615.095 398.205L537.265 402.556L537.441 405.703Z" fill="#DBDBDB"/>
<path d="M537.877 413.66L615.708 409.308L615.532 406.161L537.701 410.513L537.877 413.66Z" fill="#DBDBDB"/>
<path d="M538.33 421.601L616.16 417.25L615.984 414.103L538.154 418.454L538.33 421.601Z" fill="#DBDBDB"/>
<path d="M538.767 429.543L616.597 425.192L616.421 422.045L538.591 426.396L538.767 429.543Z" fill="#DBDBDB"/>
<path d="M539.22 437.5L617.05 433.149L616.874 430.002L539.044 434.353L539.22 437.5Z" fill="#DBDBDB"/>
<path d="M257.04 305.599C247.184 283.487 225.792 268.975 205.232 274.479C161.12 286.271 167.12 352.959 135.44 396.079C97.1681 448.175 96.7041 491.967 130.016 498.319C167.328 505.423 202.192 465.407 198.224 381.599C195.744 329.183 206.8 310.623 220.992 306.591C231.424 303.631 243.072 316.191 243.072 316.191L257.04 305.599Z" fill="#263238"/>
<path d="M197.6 352.591C197.392 360.927 198.128 369.247 198.56 377.551C198.992 385.855 199.616 394.127 199.872 402.399C200.177 410.655 200.065 418.922 199.536 427.167C199.087 435.366 197.806 443.499 195.712 451.439C193.752 459.359 190.287 466.828 185.504 473.439C180.415 479.944 174.238 485.519 167.248 489.919C160.197 494.402 152.21 497.205 143.904 498.111C139.72 498.573 135.494 498.497 131.328 497.887C129.239 497.593 127.175 497.144 125.152 496.543C123.101 496.025 121.135 495.217 119.312 494.143C122.887 496.519 126.902 498.151 131.12 498.943C135.361 499.851 139.7 500.217 144.032 500.031C148.374 499.795 152.671 499.037 156.832 497.775C161.001 496.475 165.011 494.709 168.784 492.511C172.545 490.34 176.092 487.816 179.376 484.975L181.776 482.799L184.096 480.543C185.65 479.01 187.098 477.374 188.432 475.647C193.577 468.708 197.321 460.833 199.456 452.463C203.808 435.935 203.92 418.863 202.864 402.303C202.336 393.967 201.424 385.679 200.416 377.407C199.408 369.135 198.272 360.879 197.6 352.591Z" fill="#263238"/>
<path d="M247.376 292.8C243.887 288.189 239.828 284.039 235.296 280.448C230.818 276.98 225.61 274.576 220.067 273.418C214.523 272.259 208.788 272.376 203.296 273.76C200.552 274.469 197.875 275.417 195.296 276.592C192.744 277.71 190.31 279.082 188.032 280.688C183.622 284.08 179.833 288.21 176.832 292.896C173.832 297.696 171.339 302.796 169.392 308.112C165.28 318.768 162.432 330.032 159.104 341.184C155.935 352.474 151.902 363.504 147.04 374.176C141.763 384.632 135.681 394.663 128.848 404.176C122.256 413.776 115.408 423.104 110.176 433.344C107.426 438.392 105.324 443.768 103.92 449.344L102.992 453.552C102.8 454.976 102.704 456.416 102.56 457.84L102.4 459.92V462.096L102.496 466.432C100.592 454.912 103.184 442.864 108.176 432.288C113.168 421.712 119.712 411.936 125.936 402.16C132.16 392.384 138.368 382.656 143.152 372.256C147.806 361.739 151.678 350.894 154.736 339.808C158.128 328.752 160.992 317.408 165.392 306.48C167.538 300.927 170.257 295.613 173.504 290.624C176.872 285.608 181.148 281.267 186.112 277.824C188.63 276.169 191.311 274.775 194.112 273.664C196.872 272.503 199.732 271.598 202.656 270.96C208.503 269.627 214.583 269.708 220.393 271.193C226.203 272.679 231.575 275.528 236.064 279.504C240.448 283.375 244.257 287.852 247.376 292.8V292.8Z" fill="#263238"/>
<path d="M265.6 309.712C265.6 305.504 262.4 300.112 259.728 299.488C257.056 298.864 237.024 307.936 235.424 313.152C233.824 318.368 242.88 322.752 242.88 322.752L265.6 309.712Z" fill="#0261FE"/>
<path d="M245.792 475.807C257.376 545.167 274.704 600.527 293.04 614.831C307.84 626.383 329.2 635.375 351.36 642.255C375.075 649.307 399.229 654.791 423.664 658.671C431.184 659.919 437.456 660.815 441.904 661.503C452.912 663.103 476.992 591.503 469.872 581.951C468.272 579.759 461.072 577.599 450.944 575.455C416.848 568.335 345.472 562.751 341.744 558.559C338.016 554.367 303.568 503.807 275.872 464.895C256.48 437.663 239.376 437.343 245.792 475.807Z" fill="#F7A9A0"/>
<path d="M420.304 652.32C421.632 653.072 440.48 663.152 452.224 667.12C460.992 670.096 486.464 677.968 490.624 668.64C493.52 662.24 479.088 655.84 468.976 651.136C463.664 648.64 457.232 642.656 458.976 639.248C462.048 633.28 475.744 640.016 484.688 645.76C501.984 656.864 524.816 676.496 536.064 667.968C540.304 664.768 535.824 658.368 529.12 651.968C540.112 659.552 551.904 665.904 556.768 662.512C559.552 660.576 559.808 657.712 558.448 654.512C561.888 655.808 564.976 655.728 567.232 653.536C571.072 649.856 569.536 644.112 565.776 638.112C566.47 638.066 567.144 637.856 567.741 637.5C568.339 637.144 568.844 636.652 569.216 636.064C577.52 624.56 540.096 588.768 526.768 584.976C487.568 573.776 445.264 575.376 445.264 575.376C429.216 587.056 420.272 652.288 420.304 652.32Z" fill="#F7A9A0"/>
<path d="M480.192 617.967C489.585 619.791 498.459 623.67 506.176 629.327C515.136 636.079 522.096 645.087 530.32 652.639C530.544 652.847 530.208 653.183 529.984 652.975C526.144 649.087 521.872 645.567 517.856 641.775C513.84 637.983 510.128 634.335 505.968 630.959C498.455 624.762 489.629 620.357 480.16 618.079C480 618.111 480.096 617.951 480.192 617.967Z" fill="#263238"/>
<path d="M488.336 601.487C498.608 604.799 509.136 608.159 518.608 613.503C528.944 619.359 536.832 628.527 544.592 637.343C549.243 642.676 553.782 648.074 558.208 653.535C558.4 653.759 558.08 654.095 557.888 653.871C550.016 644.762 541.878 635.898 533.472 627.279C525.737 619.248 516.494 612.821 506.272 608.367C500.416 605.823 494.384 603.743 488.352 601.679C488.34 601.68 488.327 601.678 488.315 601.675C488.303 601.671 488.292 601.665 488.282 601.656C488.272 601.648 488.264 601.638 488.258 601.627C488.253 601.616 488.249 601.603 488.248 601.591C488.247 601.578 488.249 601.566 488.252 601.553C488.256 601.541 488.262 601.53 488.271 601.521C488.279 601.511 488.289 601.503 488.3 601.497C488.311 601.491 488.324 601.488 488.336 601.487Z" fill="#263238"/>
<path d="M500.112 587.28C510.128 589.808 518.88 591.984 527.6 597.792C539.136 605.504 550 618.096 553.872 622.576C558.096 627.504 562.16 632.576 566.144 637.696C566.304 637.904 565.936 638.192 565.776 637.984C556.642 626.718 546.787 616.055 536.272 606.064C531.338 601.22 525.681 597.172 519.504 594.064C513.233 591.279 506.734 589.036 500.08 587.36C500.08 587.36 500.064 587.28 500.112 587.28Z" fill="#263238"/>
<path d="M256.816 548.432L317.136 512.864C317.136 512.864 291.392 471.264 269.392 451.632C247.392 432 238.512 447.408 241.856 475.936C245.2 504.464 256.816 548.432 256.816 548.432Z" fill="#0261FE"/>
<path d="M276.608 530.336C276.23 532.736 275.508 535.069 274.464 537.264C274.288 537.616 274.128 537.984 273.952 538.336L271.472 539.792C271.84 538.672 272.288 537.568 272.768 536.48C273.747 534.258 275.04 532.189 276.608 530.336ZM252.048 498.544C249.856 497.493 247.522 496.771 245.12 496.4C248.879 499.506 253.386 501.575 258.192 502.4C256.335 500.832 254.267 499.534 252.048 498.544V498.544ZM272.736 463.344C273.547 465.629 274.684 467.784 276.112 469.744C275.655 464.886 273.928 460.235 271.104 456.256C271.311 458.694 271.86 461.091 272.736 463.376V463.344ZM300.464 491.984C298.458 492.254 296.489 492.748 294.592 493.456C292.309 494.277 290.154 495.42 288.192 496.848C290.619 496.654 293.006 496.115 295.28 495.248C297.169 494.561 298.977 493.67 300.672 492.592C300.622 492.393 300.553 492.2 300.464 492.016V491.984Z" fill="white"/>
<path d="M307.632 503.824C298.032 508.768 272.16 523.024 256.656 534.496C256.56 534.496 256.8 534.96 256.896 534.912C271.296 527.376 298.8 510.224 307.984 504.432C308.16 504.32 307.824 503.728 307.632 503.824Z" fill="#263238"/>
<path d="M312.176 515.807L256.832 548.431C256.832 548.431 245.2 504.479 241.856 475.935C239.712 457.519 242.64 444.575 250.912 442.991L312.176 515.807Z" fill="#263238"/>
<path d="M315.088 668.367H115.664C115.664 668.367 158.976 501.087 199.072 453.967C199.968 452.879 200.896 451.871 201.824 450.911C202.016 450.687 202.176 450.527 202.368 450.335C205.47 447.018 209.084 444.22 213.072 442.047C213.776 441.663 214.48 441.311 215.216 440.991C230.656 433.887 246.96 439.775 258.736 449.855C262.464 453.055 304.736 508.047 308.48 529.007C311.68 547.519 299.2 567.407 299.2 567.407L315.088 668.367Z" fill="#0261FE"/>
<path d="M226.976 464.319C226.592 466.725 225.865 469.064 224.816 471.263C223.838 473.489 222.539 475.559 220.96 477.407C221.341 475.006 222.069 472.672 223.12 470.479C224.104 468.252 225.403 466.178 226.976 464.319V464.319ZM196.96 557.951C195.924 560.148 195.202 562.481 194.816 564.879C197.923 561.12 199.991 556.614 200.816 551.807C199.248 553.664 197.95 555.732 196.96 557.951V557.951ZM172.32 655.663C171.267 657.86 170.545 660.2 170.176 662.607C173.263 658.83 175.329 654.323 176.176 649.519C174.608 651.376 173.31 653.444 172.32 655.663V655.663ZM272.768 536.479C271.719 538.679 270.992 541.017 270.608 543.423C272.19 541.572 273.49 539.496 274.464 537.263C275.508 535.069 276.23 532.736 276.608 530.335C275.04 532.188 273.747 534.258 272.768 536.479V536.479ZM304.368 600.319C303.347 602.492 302.636 604.797 302.256 607.167C303.25 606.022 304.124 604.778 304.864 603.455V603.455L304.368 600.319ZM228.416 645.711C227.379 647.914 226.658 650.252 226.272 652.655C227.854 650.804 229.154 648.728 230.128 646.495C231.165 644.298 231.886 641.966 232.272 639.567C230.704 641.424 229.406 643.492 228.416 645.711ZM252.048 498.511C249.856 497.461 247.522 496.738 245.12 496.367C248.879 499.474 253.386 501.543 258.192 502.367C256.333 500.811 254.265 499.524 252.048 498.543V498.511ZM265.232 577.919C263.035 576.883 260.703 576.161 258.304 575.775C260.157 577.348 262.226 578.647 264.448 579.631C266.645 580.668 268.978 581.39 271.376 581.775C269.518 580.219 267.449 578.932 265.232 577.951V577.919ZM270.032 664.751C267.829 663.715 265.492 662.993 263.088 662.607C266.856 665.71 271.366 667.778 276.176 668.607C274.318 667.051 272.249 665.764 270.032 664.783V664.751ZM173.568 591.663C171.365 590.627 169.028 589.905 166.624 589.519C168.48 591.096 170.555 592.395 172.784 593.375C174.981 594.412 177.314 595.134 179.712 595.519C177.854 593.963 175.785 592.676 173.568 591.695V591.663ZM303.248 552.527C303.374 554.156 303.68 555.766 304.16 557.327C304.432 556.655 304.72 555.951 304.992 555.231C304.481 554.297 303.898 553.403 303.248 552.559V552.527ZM299.376 645.167C300.194 647.449 301.331 649.604 302.752 651.567C302.561 649.145 302.022 646.764 301.152 644.495C300.329 642.213 299.187 640.058 297.76 638.095C297.965 640.527 298.509 642.918 299.376 645.199V645.167ZM196.032 510.911C196.843 513.196 197.98 515.352 199.408 517.311C199.213 514.89 198.674 512.509 197.808 510.239C196.978 507.96 195.837 505.806 194.416 503.839C194.61 506.273 195.154 508.666 196.032 510.943V510.911ZM227.696 592.991C228.514 595.273 229.651 597.428 231.072 599.391C230.888 596.968 230.349 594.585 229.472 592.319C228.661 590.035 227.524 587.879 226.096 585.919C226.288 588.351 226.827 590.744 227.696 593.023V592.991ZM141.696 626.479C142.513 628.762 143.649 630.917 145.072 632.879C144.879 630.453 144.34 628.066 143.472 625.791C142.642 623.512 141.501 621.358 140.08 619.391C140.275 621.819 140.819 624.207 141.696 626.479V626.479ZM264.512 622.799C266.796 621.979 268.951 620.837 270.912 619.407C268.489 619.591 266.106 620.13 263.84 621.007C261.555 621.818 259.4 622.956 257.44 624.383C259.861 624.193 262.242 623.66 264.512 622.799V622.799ZM148.912 559.551C148.656 560.303 148.384 561.039 148.128 561.791L149.168 561.439C151.456 560.629 153.613 559.486 155.568 558.047C153.29 558.236 151.05 558.742 148.912 559.551ZM291.568 494.799C290.369 495.384 289.228 496.08 288.16 496.879C289.601 496.79 291.029 496.544 292.416 496.143C292.128 495.695 291.84 495.247 291.568 494.799ZM197.056 622.799C199.336 621.969 201.489 620.828 203.456 619.407C201.033 619.591 198.65 620.13 196.384 621.007C194.102 621.824 191.947 622.961 189.984 624.383C192.405 624.193 194.786 623.66 197.056 622.799V622.799ZM120.992 658.863C119.92 659.279 118.864 659.711 117.792 660.223C117.643 660.799 117.499 661.333 117.36 661.823C118.8 661.51 120.217 661.099 121.6 660.591C123.883 659.775 126.037 658.638 128 657.215C125.598 657.428 123.238 657.983 120.992 658.863V658.863ZM229.792 533.727C232.072 532.897 234.225 531.756 236.192 530.335C233.769 530.519 231.386 531.058 229.12 531.935C226.838 532.752 224.683 533.889 222.72 535.311C225.134 535.113 227.509 534.58 229.776 533.727H229.792Z" fill="white"/>
<path d="M269.28 560.272C260.783 561.102 252.36 562.562 244.08 564.64C239.984 565.728 235.968 566.992 231.952 568.352C229.952 569.04 227.936 569.648 225.904 570.24C223.806 570.936 221.629 571.366 219.424 571.52C219.392 571.531 219.364 571.551 219.344 571.579C219.325 571.606 219.314 571.639 219.314 571.672C219.314 571.706 219.325 571.739 219.344 571.766C219.364 571.794 219.392 571.814 219.424 571.824C221.511 571.915 223.601 571.862 225.68 571.664C227.693 571.398 229.686 571.002 231.648 570.48C235.808 569.424 239.92 568.16 244.08 567.056C252.48 564.816 260.864 562.592 269.392 560.96C269.776 560.896 269.68 560.224 269.28 560.272Z" fill="#263238"/>
<path d="M290.336 567.6C283.333 566.936 276.298 566.663 269.264 566.784C265.728 566.784 262.24 567.136 258.736 567.504C257.136 567.68 255.392 567.888 253.728 568.112C252.064 568.336 250.096 568.848 248.256 569.072C248.064 569.072 248.08 569.408 248.256 569.376C249.984 569.216 251.76 569.376 253.504 569.296L258.768 569.104C262.272 568.992 265.776 568.912 269.296 568.768C276.32 568.464 283.312 568.24 290.336 568.192C290.736 568.176 290.704 567.648 290.336 567.6Z" fill="#263238"/>
<path d="M194.08 456.832C162.448 490.704 91.6803 612.416 116.016 635.856C140.352 659.296 293.296 659.744 320.544 659.744C332.944 659.744 307.536 578.144 294.24 576.544C283.168 575.184 202.672 572.576 201.04 569.312C199.184 565.632 209.696 535.936 218.992 485.776C228.96 432 208 441.872 194.08 456.832Z" fill="#F7A9A0"/>
<path d="M338.368 559.743C365.856 555.903 373.568 559.151 394.992 543.599C409.088 533.391 421.648 538.015 413.616 554.223C400.448 580.751 366.016 593.135 352.816 593.999L338.368 559.743Z" fill="#F7A9A0"/>
<path d="M265.344 586.208C265.344 586.208 296.24 569.056 325.12 562.064C345.104 557.264 391.824 549.664 432.448 595.664C445.248 610.16 445.936 630.656 426.304 618.416C411.056 608.912 402.848 599.424 392.608 596.56C392.608 596.56 398.224 625.696 387.36 635.44C377.865 643.955 367.776 651.783 357.168 658.864C355.422 657.219 353.786 655.461 352.272 653.6C352.272 653.6 341.264 661.744 320.544 659.776L265.344 586.208Z" fill="#F7A9A0"/>
<path d="M344.928 560.512C354.528 565.488 374.544 576.384 387.872 591.008C402.656 607.248 426.768 642.528 414.672 653.328C405.792 661.232 395.472 648.528 395.472 648.528C395.472 648.528 402.368 665.216 392.784 670.608C384.048 675.52 376.608 665.248 376.608 665.248C376.608 665.248 379.04 676.096 369.728 679.216C358.528 682.96 355.232 659.632 340.592 653.616C337.248 652.304 344.928 560.512 344.928 560.512Z" fill="#F7A9A0"/>
<path d="M367.648 604C375.872 610.16 390.944 628.928 395.104 648.368C395.2 648.816 394.928 649.12 394.752 648.736C387.525 632.825 378.391 617.852 367.552 604.144C367.424 604.048 367.568 603.92 367.648 604Z" fill="#263238"/>
<path d="M352.144 619.2C358.672 625.248 373.344 645.28 376.896 665.136C376.976 665.568 376.672 665.856 376.512 665.472C370.119 649.206 361.895 633.719 352 619.312C351.904 619.2 352 619.104 352.144 619.2Z" fill="#263238"/>
<path d="M326.624 660.048C329.88 660.008 333.13 659.752 336.352 659.28C339.578 658.9 342.727 658.037 345.696 656.72H345.776C348.947 659.622 351.815 662.839 354.336 666.32C355.605 668.067 356.76 669.895 357.792 671.792C358.76 673.676 360.036 675.385 361.568 676.848C363.083 678.287 365.052 679.153 367.136 679.296C369.217 679.321 371.226 678.535 372.736 677.104C374.197 675.628 375.189 673.751 375.584 671.712C376.036 669.66 376.187 667.552 376.032 665.456L375.936 664.08L376.8 665.152C378.88 667.946 381.776 670.025 385.088 671.104C386.739 671.544 388.477 671.544 390.128 671.104C391.775 670.688 393.272 669.817 394.448 668.592C396.688 666.032 397.056 662.288 396.832 658.864C396.559 655.363 395.822 651.915 394.64 648.608L393.696 645.872L395.536 648.112C397.726 650.912 400.588 653.113 403.856 654.512C405.467 655.169 407.215 655.416 408.944 655.232C410.653 654.997 412.276 654.337 413.664 653.312C415.011 652.25 416.004 650.806 416.512 649.168C417.012 647.488 417.218 645.734 417.12 643.984C416.895 640.413 416.135 636.897 414.864 633.552C412.29 626.796 408.957 620.355 404.928 614.352C400.958 608.295 396.641 602.472 392 596.912L390.56 595.2L392.784 595.872C395.285 596.704 397.688 597.804 399.952 599.152C402.192 600.443 404.374 601.829 406.496 603.312C410.752 606.24 414.704 609.568 418.8 612.592C422.778 615.745 427.105 618.429 431.696 620.592C433.936 621.488 436.496 622.192 438.448 621.04C440.4 619.888 440.992 617.36 440.832 614.96C440.654 612.483 440.076 610.052 439.12 607.76C438.104 605.461 436.86 603.269 435.408 601.216C432.451 597.069 429.12 593.202 425.456 589.664C421.807 586.096 417.956 582.741 413.92 579.616C409.912 576.463 405.682 573.603 401.264 571.056L400.56 570.656L401.136 570.08C405.804 565.61 409.759 560.452 412.864 554.784C414.402 551.998 415.237 548.878 415.296 545.696C415.299 544.153 414.896 542.635 414.128 541.296C413.742 540.653 413.232 540.093 412.628 539.648C412.023 539.203 411.337 538.882 410.608 538.704C407.481 538.237 404.288 538.847 401.552 540.432C398.666 541.886 395.857 543.489 393.136 545.232C387.712 548.72 382.4 552.8 376.032 554.832C372.891 555.742 369.68 556.39 366.432 556.768C363.232 557.216 359.952 557.6 356.72 558C350.32 558.784 343.792 559.6 337.36 560.656C324.458 562.546 311.794 565.807 299.584 570.384C311.751 565.652 324.388 562.23 337.28 560.176C343.68 559.056 350.16 558.144 356.624 557.28L366.224 555.952C369.443 555.579 372.623 554.926 375.728 554C381.904 552.048 387.104 548.016 392.576 544.4C395.328 542.624 398.128 540.944 401.056 539.44C404.021 537.712 407.491 537.062 410.88 537.6C412.61 538.033 414.102 539.124 415.04 540.64C415.908 542.138 416.366 543.837 416.368 545.568C416.336 548.926 415.473 552.225 413.856 555.168C410.727 560.972 406.716 566.256 401.968 570.832L401.856 569.872C406.322 572.428 410.599 575.3 414.656 578.464C418.745 581.609 422.65 584.985 426.352 588.576C430.1 592.151 433.506 596.066 436.528 600.272C438.046 602.399 439.348 604.672 440.416 607.056C441.448 609.504 442.074 612.103 442.272 614.752C442.379 616.134 442.221 617.525 441.808 618.848C441.37 620.258 440.431 621.459 439.168 622.224C437.893 622.933 436.417 623.192 434.976 622.96C433.634 622.79 432.321 622.44 431.072 621.92C426.337 619.76 421.883 617.031 417.808 613.792C413.664 610.688 409.808 607.392 405.584 604.48C403.504 603.024 401.36 601.632 399.184 600.368C397.053 599.056 394.783 597.983 392.416 597.168L393.136 596.016C397.783 601.631 402.105 607.507 406.08 613.616C410.134 619.717 413.479 626.261 416.048 633.12C417.347 636.585 418.118 640.226 418.336 643.92C418.427 645.807 418.194 647.696 417.648 649.504C417.078 651.354 415.963 652.988 414.448 654.192C412.898 655.339 411.081 656.072 409.168 656.32C407.264 656.507 405.343 656.233 403.568 655.52C400.126 654.032 397.115 651.699 394.816 648.736L395.712 648.24C396.909 651.642 397.651 655.188 397.92 658.784C398.053 660.604 397.945 662.433 397.6 664.224C397.264 666.063 396.447 667.78 395.232 669.2C393.918 670.534 392.27 671.489 390.46 671.968C388.651 672.446 386.745 672.43 384.944 671.92C381.452 670.769 378.401 668.567 376.208 665.616L376.976 665.312C377.126 667.507 376.954 669.711 376.464 671.856C376.02 674.066 374.902 676.083 373.264 677.632C371.606 679.167 369.411 679.989 367.152 679.92C364.915 679.747 362.809 678.796 361.2 677.232C359.646 675.705 358.354 673.932 357.376 671.984C356.376 670.098 355.259 668.275 354.032 666.528C351.57 663.023 348.761 659.774 345.648 656.832H345.776C342.77 658.12 339.588 658.951 336.336 659.296C333.118 659.753 329.874 660.004 326.624 660.048V660.048Z" fill="#263238"/>
<path d="M144.496 516.128L210.368 539.856C210.368 539.856 225.952 493.456 227.024 464.016C228.096 434.576 210.592 437.552 190.752 458.336C170.912 479.12 144.496 516.128 144.496 516.128Z" fill="#0261FE"/>
<path d="M226.976 464.319C226.592 466.725 225.865 469.064 224.816 471.263C223.838 473.489 222.539 475.559 220.96 477.407C221.341 475.006 222.069 472.672 223.12 470.479C224.104 468.252 225.403 466.178 226.976 464.319V464.319ZM154.56 519.759L156.304 520.383C157.269 518.317 157.937 516.125 158.288 513.871C156.764 515.641 155.508 517.625 154.56 519.759V519.759ZM196.032 510.943C196.843 513.228 197.98 515.384 199.408 517.343C199.213 514.922 198.674 512.541 197.808 510.271C196.978 507.992 195.836 505.838 194.416 503.871C194.613 506.294 195.157 508.676 196.032 510.943V510.943ZM176.256 477.967C174.826 478.503 173.436 479.139 172.096 479.871V479.871L171.024 481.215C173.042 480.938 175.023 480.433 176.928 479.711C179.216 478.901 181.373 477.758 183.328 476.319C180.904 476.53 178.523 477.085 176.256 477.967V477.967Z" fill="white"/>
<path d="M211.2 526.768C201.232 522.48 173.825 511.68 155.057 507.104C154.945 507.104 154.785 507.504 154.881 507.552C169.873 513.824 200.64 524.064 210.88 527.424C211.2 527.488 211.456 526.848 211.2 526.768Z" fill="#263238"/>
<path d="M224 501.808C224 501.712 223.888 501.664 223.84 501.808C222.656 504.08 221.6 506.384 220.64 508.736C221.792 503.584 222.821 498.421 223.728 493.248C223.728 493.21 223.713 493.173 223.686 493.146C223.659 493.119 223.622 493.104 223.584 493.104C223.546 493.104 223.509 493.119 223.482 493.146C223.455 493.173 223.44 493.21 223.44 493.248C219.024 508.432 214.224 523.552 210.128 538.832C208.448 538.752 206.752 538.64 205.088 538.416C205.035 538.413 204.982 538.429 204.939 538.461C204.897 538.493 204.867 538.539 204.855 538.591C204.844 538.643 204.851 538.698 204.876 538.745C204.901 538.792 204.942 538.829 204.992 538.848C206.816 539.296 208.608 539.872 210.384 540.448C210.586 540.544 210.818 540.557 211.03 540.485C211.241 540.414 211.417 540.263 211.52 540.064C214.726 531.382 217.398 522.512 219.52 513.504C220.208 512.128 220.88 510.752 221.472 509.328C222.504 506.889 223.349 504.375 224 501.808V501.808Z" fill="#263238"/>
<path d="M227.632 444.8C227.952 448.368 241.216 473.12 257.088 474.64C262.256 475.136 266.176 447.024 266.176 447.024L266.944 445.008L277.6 416.88L246.608 390.08L242.096 386.48C242.096 386.48 239.68 394.368 236.784 404.224C236.64 404.672 236.496 405.136 236.368 405.616C236.24 406.096 236 406.704 235.872 407.216C235.408 408.688 234.96 410.192 234.528 411.696C234.208 412.832 233.888 413.936 233.584 415.152C233.28 416.368 232.96 417.536 232.624 418.752C229.616 430.72 227.536 443.2 227.632 444.8Z" fill="#F7A9A0"/>
<path d="M236.8 404.208C238.562 412.789 242.173 420.883 247.382 427.926C252.591 434.97 259.272 440.793 266.96 444.992L277.616 416.864L246.624 390.064L242.112 386.464C242.112 386.464 239.68 394.352 236.8 404.208Z" fill="#263238"/>
<path d="M323.824 376.096C321.104 428.896 289.216 433.152 277.856 432.544C267.536 432 232.464 428.848 229.712 376.112C226.96 323.376 252.352 307.984 276.016 307.984C299.68 307.984 326.544 323.376 323.824 376.096Z" fill="#F7A9A0"/>
<path d="M316.8 366.607C315.614 366.337 314.445 366 313.296 365.599C312.014 365.415 310.827 364.813 309.92 363.887C309.695 363.54 309.588 363.129 309.617 362.716C309.646 362.304 309.809 361.911 310.08 361.599C310.723 361.072 311.494 360.725 312.315 360.593C313.136 360.461 313.977 360.549 314.752 360.847C316.408 361.224 317.866 362.198 318.848 363.583C319.06 363.91 319.17 364.292 319.166 364.682C319.162 365.071 319.043 365.45 318.825 365.773C318.607 366.095 318.298 366.346 317.938 366.495C317.578 366.643 317.182 366.682 316.8 366.607V366.607Z" fill="#263238"/>
<path d="M283.2 364.367C284.432 364.367 285.584 364.047 286.8 363.871C288.1 363.881 289.366 363.458 290.4 362.671C290.677 362.361 290.843 361.969 290.872 361.554C290.901 361.14 290.791 360.728 290.56 360.383C290.006 359.766 289.297 359.308 288.507 359.057C287.716 358.807 286.872 358.773 286.064 358.959C284.369 359.087 282.781 359.833 281.6 361.055C281.35 361.353 281.191 361.716 281.143 362.102C281.095 362.487 281.159 362.879 281.328 363.229C281.497 363.579 281.764 363.872 282.096 364.074C282.428 364.276 282.812 364.378 283.2 364.367V364.367Z" fill="#263238"/>
<path d="M288.496 377.408C288.496 377.264 288.192 377.568 288.192 377.712C288.192 381.312 287.456 385.408 284.144 386.448C284.032 386.448 284.032 386.656 284.144 386.64C288.144 386.288 289.008 380.8 288.496 377.408Z" fill="#263238"/>
<path d="M285.472 373.504C279.712 372.768 278.688 384.32 284.016 385.008C289.344 385.696 290.288 374.112 285.472 373.504Z" fill="#263238"/>
<path d="M283.2 373.904C282.128 374.464 281.04 375.504 279.808 375.504C278.576 375.504 277.424 374.208 276.608 372.96C276.608 372.832 276.416 372.96 276.4 373.072C276.176 375.28 276.816 377.632 279.168 378.176C281.52 378.72 283.04 376.848 283.792 374.672C283.888 374.4 283.584 373.68 283.2 373.904Z" fill="#263238"/>
<path d="M308.128 378.4C308.128 378.272 308.384 378.592 308.368 378.752C307.904 382.304 307.968 386.48 311.104 387.984C311.2 387.984 311.104 388.208 311.104 388.176C307.2 387.2 307.2 381.712 308.128 378.4Z" fill="#263238"/>
<path d="M311.68 374.976C317.472 375.104 316.8 386.687 311.44 386.576C306.08 386.464 306.816 374.88 311.68 374.976Z" fill="#263238"/>
<path d="M314.048 375.871C314.928 376.543 315.776 377.711 316.864 377.855C317.952 377.999 319.136 376.815 320.064 375.647C320.16 375.535 320.24 375.647 320.24 375.791C320.16 377.999 319.296 380.271 317.152 380.591C315.008 380.911 313.872 378.879 313.472 376.639C313.344 376.207 313.696 375.615 314.048 375.871Z" fill="#263238"/>
<path d="M285.824 405.007C286.56 405.951 287.264 407.215 288.544 407.503C289.869 407.656 291.21 407.525 292.48 407.119C292.508 407.106 292.539 407.103 292.569 407.111C292.598 407.118 292.624 407.137 292.641 407.162C292.659 407.187 292.667 407.217 292.663 407.248C292.66 407.278 292.646 407.306 292.624 407.327C292.02 407.964 291.254 408.423 290.408 408.654C289.561 408.885 288.668 408.88 287.824 408.639C287.122 408.356 286.52 407.87 286.095 407.243C285.671 406.616 285.443 405.877 285.44 405.119C285.424 404.895 285.712 404.799 285.824 405.007Z" fill="#263238"/>
<path d="M301.104 394.944C301.104 394.944 301.424 400.352 301.232 402.944C301.232 403.168 291.856 404.352 288.32 397.824C288.277 397.771 288.258 397.703 288.265 397.636C288.273 397.568 288.307 397.507 288.36 397.464C288.413 397.422 288.481 397.402 288.548 397.41C288.616 397.417 288.677 397.451 288.72 397.504C291.77 399.955 295.529 401.357 299.44 401.504C299.664 400.816 298.576 392.256 298.976 392.256C300.924 392.579 302.818 393.166 304.608 394C304.256 382.704 302.112 371.6 301.936 360.32C301.943 360.243 301.975 360.169 302.028 360.112C302.081 360.055 302.152 360.017 302.228 360.004C302.305 359.992 302.384 360.005 302.453 360.042C302.522 360.078 302.576 360.137 302.608 360.208C305.68 371.728 306.368 384.704 307.024 396.352C307.2 397.744 302.08 395.44 301.104 394.944Z" fill="#263238"/>
<path d="M230.304 374.976C233.923 374.203 237.28 372.503 240.045 370.044C242.811 367.584 244.89 364.448 246.08 360.944C291.264 359.84 306.208 331.808 306.208 331.808C314.88 355.408 322.624 359.456 323.888 363.008C323.888 363.008 327.648 342.544 320.816 326.944C314.768 313.136 299.248 298.352 274.832 301.488C260.992 303.264 249.344 315.248 249.344 315.248C249.344 315.248 234.384 316.848 228.256 328.88C217.984 349.104 230.304 374.976 230.304 374.976Z" fill="#263238"/>
<path d="M306.896 330.016C305.252 335.901 302.161 341.28 297.904 345.664C293.647 350.073 288.571 353.611 282.96 356.08L278.672 357.68C277.216 358.176 275.728 358.48 274.256 358.88C271.312 359.651 268.31 360.186 265.28 360.48C262.256 360.752 259.216 360.704 256.192 360.816C253.184 360.544 250.176 360.336 247.184 360.016C250.208 359.92 253.2 360.016 256.192 359.92C259.168 359.616 262.16 359.504 265.104 359.088C270.995 358.306 276.753 356.735 282.224 354.416C287.671 352.101 292.644 348.804 296.896 344.688C301.229 340.558 304.637 335.558 306.896 330.016V330.016Z" fill="#263238"/>
<path d="M276.704 394.752C273.633 394.1 270.808 392.599 268.548 390.419C266.289 388.24 264.686 385.47 263.923 382.425C263.161 379.38 263.268 376.182 264.233 373.194C265.199 370.207 266.983 367.551 269.384 365.528C271.784 363.505 274.704 362.197 277.812 361.752C280.92 361.307 284.09 361.743 286.961 363.011C289.833 364.279 292.291 366.328 294.056 368.924C295.821 371.52 296.822 374.559 296.944 377.696V377.696C297.113 382.138 295.513 386.465 292.496 389.729C289.478 392.992 285.289 394.925 280.848 395.104C279.458 395.15 278.067 395.032 276.704 394.752V394.752ZM283.2 364.144C282.017 363.898 280.808 363.796 279.6 363.84C275.915 363.99 272.426 365.539 269.843 368.172C267.26 370.804 265.778 374.322 265.697 378.009C265.617 381.696 266.945 385.275 269.411 388.017C271.877 390.759 275.295 392.459 278.97 392.769C282.645 393.079 286.3 391.977 289.191 389.687C292.082 387.397 293.991 384.092 294.53 380.443C295.069 376.795 294.198 373.079 292.093 370.05C289.988 367.022 286.808 364.91 283.2 364.144V364.144Z" fill="#455A64"/>
<path d="M315.024 398.127C308.752 396.783 304.432 389.151 305.248 380.447C305.558 376.277 307.17 372.309 309.856 369.103C310.921 367.654 312.341 366.504 313.98 365.765C315.619 365.026 317.42 364.722 319.211 364.883C321.002 365.044 322.721 365.664 324.202 366.684C325.682 367.703 326.875 369.088 327.664 370.703C329.711 374.35 330.562 378.547 330.096 382.703C329.232 391.903 322.96 398.879 316.112 398.239C315.744 398.255 315.376 398.207 315.024 398.127ZM319.824 367.279C319.551 367.212 319.273 367.169 318.992 367.151C317.561 367.079 316.133 367.352 314.83 367.948C313.526 368.544 312.386 369.445 311.504 370.575C309.133 373.43 307.712 376.954 307.44 380.655C306.688 388.655 310.64 395.535 316.288 396.063C321.936 396.591 327.088 390.527 327.824 382.559C328.243 378.872 327.499 375.146 325.696 371.903C325.097 370.769 324.269 369.772 323.263 368.976C322.258 368.18 321.097 367.602 319.856 367.279H319.824Z" fill="#455A64"/>
<path d="M296.208 379.568L294.928 377.728C297.664 375.84 303.776 373.536 307.456 378.272L305.68 379.648C302.4 375.392 296.464 379.408 296.208 379.568Z" fill="#455A64"/>
<path d="M221.44 376.912L219.552 375.696C220.112 374.816 225.216 367.088 230.272 366.752C235.072 366.448 264.64 372.048 265.904 372.288L265.488 374.48C256.992 372.88 234.064 368.736 230.416 368.992C227.088 369.216 222.8 374.784 221.44 376.912Z" fill="#455A64"/>
<path d="M238.272 376.671C238.272 376.671 229.12 358.767 221.152 361.807C213.184 364.847 218.48 389.695 226.72 394.143C227.738 394.787 228.876 395.217 230.065 395.409C231.254 395.601 232.47 395.551 233.639 395.261C234.807 394.971 235.906 394.447 236.867 393.722C237.828 392.996 238.633 392.084 239.232 391.039L238.272 376.671Z" fill="#F7A9A0"/>
<path d="M222.848 368.896C222.704 368.896 222.656 369.056 222.768 369.12C228.528 372.432 230.944 378.528 232.368 384.704C230.864 382.192 228.576 380.624 225.248 382.352C225.213 382.375 225.187 382.409 225.173 382.448C225.159 382.488 225.158 382.53 225.171 382.57C225.184 382.61 225.209 382.645 225.243 382.669C225.277 382.693 225.318 382.705 225.36 382.704C226.481 382.51 227.634 382.67 228.66 383.16C229.686 383.65 230.534 384.447 231.088 385.44C232.002 387.102 232.736 388.855 233.28 390.672C233.488 391.264 234.512 391.104 234.4 390.448C234.392 390.4 234.392 390.352 234.4 390.304C235.616 382.544 231.088 370.832 222.848 368.896Z" fill="#263238"/>
<path d="M493.536 654.752C492.912 648.624 492.768 642.496 492.736 636.368C492.691 630.225 492.958 624.084 493.536 617.968C494.114 624.084 494.381 630.225 494.336 636.368C494.304 642.496 494.16 648.624 493.536 654.752Z" fill="#263238"/>
<path d="M477.904 655.008C474.43 650.379 471.199 645.572 468.224 640.608C465.187 635.671 462.415 630.576 459.92 625.344C466.823 634.669 472.844 644.615 477.904 655.056V655.008Z" fill="#263238"/>
<path d="M421.84 626.72C425.392 629.456 428.832 632.32 432.256 635.2C435.68 638.08 439.024 641.024 442.368 644C445.712 646.976 449.008 649.984 452.24 653.072L457.04 657.696C458.64 659.296 460.24 660.896 461.84 662.496C460.064 661.136 458.336 659.712 456.592 658.32L451.44 654.016C448.016 651.152 444.672 648.192 441.328 645.216C437.984 642.24 434.688 639.232 431.456 636.144C428.224 633.056 424.96 629.952 421.84 626.72Z" fill="#263238"/>
<path d="M547.2 623.584C544.096 626.784 540.8 629.904 537.6 632.976C534.4 636.048 531.04 639.056 527.728 642.048C524.416 645.04 521.04 647.984 517.6 650.848L512.464 655.152C510.704 656.544 508.992 657.968 507.2 659.328C508.8 657.728 510.4 656.128 512 654.528L516.8 649.904C520 646.816 523.36 643.824 526.672 640.832C529.984 637.84 533.36 634.896 536.8 632.032C540.24 629.168 543.664 626.32 547.2 623.584Z" fill="#263238"/>
<path d="M692.688 652.928L697.232 652.32L689.872 474.64L637.088 400.288L633.152 403.52L685.648 477.536L692.688 652.928Z" fill="#263238"/>
<path d="M694.208 476.095C694.208 477.361 693.833 478.598 693.129 479.651C692.426 480.703 691.427 481.523 690.257 482.008C689.088 482.492 687.801 482.619 686.56 482.372C685.318 482.125 684.178 481.516 683.283 480.621C682.388 479.725 681.778 478.585 681.531 477.344C681.284 476.102 681.411 474.815 681.895 473.646C682.38 472.476 683.2 471.477 684.253 470.774C685.305 470.07 686.542 469.695 687.808 469.695C689.506 469.695 691.133 470.369 692.334 471.57C693.534 472.77 694.208 474.398 694.208 476.095Z" fill="#0261FE"/>
<path d="M642.096 402.559C642.096 403.825 641.72 405.062 641.017 406.115C640.314 407.167 639.314 407.987 638.145 408.472C636.976 408.956 635.689 409.083 634.447 408.836C633.206 408.589 632.065 407.979 631.17 407.084C630.275 406.189 629.666 405.049 629.419 403.807C629.172 402.566 629.299 401.279 629.783 400.11C630.267 398.94 631.088 397.941 632.14 397.238C633.193 396.534 634.43 396.159 635.696 396.159C637.393 396.159 639.021 396.833 640.221 398.033C641.422 399.234 642.096 400.862 642.096 402.559Z" fill="#0261FE"/>
<path d="M591.824 405.072L616.704 443.104L633.152 428.112L643.168 418.976L624.496 390.496L612.112 396.016L591.824 405.072Z" fill="#0261FE"/>
<path opacity="0.1" d="M591.824 405.072L616.704 443.104L633.152 428.112L612.112 396.016L591.824 405.072Z" fill="black"/>
<path d="M545.84 414.975L589.248 481.279L630.704 442.271L598.176 392.575L545.84 414.975Z" fill="#0261FE"/>
<path d="M653.44 668.416H731.696L726.88 643.84H658.24L653.44 668.416Z" fill="#0261FE"/>
<path d="M398.144 250.528C397.212 259.454 393.817 267.946 388.34 275.055C382.862 282.164 375.517 287.612 367.123 290.79C358.73 293.967 349.619 294.75 340.806 293.051C331.994 291.353 323.827 287.238 317.216 281.168L292.976 284.8L305.104 263.84C302.077 256.466 300.933 248.455 301.776 240.528C302.398 234.168 304.271 227.994 307.289 222.361C310.306 216.729 314.408 211.749 319.358 207.708C324.309 203.667 330.009 200.645 336.132 198.817C342.255 196.989 348.679 196.389 355.035 197.054C361.39 197.719 367.551 199.634 373.163 202.69C378.775 205.746 383.728 209.882 387.734 214.86C391.741 219.838 394.724 225.559 396.511 231.694C398.297 237.829 398.852 244.257 398.144 250.608V250.528Z" fill="white"/>
<path d="M398.144 250.528C397.21 259.454 393.827 267.948 388.368 275.072C385.701 278.672 382.496 281.84 378.864 284.464C371.667 289.882 363.112 293.204 354.144 294.064C351.904 294.258 349.654 294.301 347.408 294.192C345.158 294.14 342.916 293.905 340.704 293.488C331.759 291.859 323.447 287.764 316.704 281.664L317.28 281.84L293.072 285.552L291.312 285.824L292.192 284.224L304.256 263.232V264.064C301.411 257.115 300.201 249.606 300.72 242.115C301.239 234.625 303.472 227.354 307.248 220.864C311.021 214.402 316.206 208.877 322.416 204.704C330.141 199.568 339.166 196.735 348.44 196.533C357.714 196.331 366.854 198.77 374.794 203.564C382.735 208.359 389.149 215.312 393.289 223.613C397.429 231.914 399.124 241.22 398.176 250.448L398.144 250.528ZM398.144 250.528C398.904 243.236 397.983 235.867 395.452 228.986C392.922 222.106 388.849 215.896 383.546 210.834C378.242 205.772 371.85 201.992 364.859 199.784C357.869 197.576 350.465 196.998 343.216 198.096C336.028 199.166 329.181 201.87 323.2 206C317.278 210.154 312.331 215.548 308.704 221.808C305.14 228.09 303.04 235.097 302.56 242.304C302.112 249.504 303.277 256.714 305.968 263.408L306.144 263.84L305.92 264.24L293.712 285.152L292.848 283.872L317.104 280.48H317.44L317.68 280.704C324.151 286.766 332.186 290.9 340.88 292.64C343.046 293.09 345.246 293.358 347.456 293.44C349.661 293.6 351.875 293.6 354.08 293.44C358.506 293.094 362.862 292.135 367.024 290.592C371.206 289.075 375.141 286.951 378.704 284.288C380.497 282.971 382.207 281.544 383.824 280.016C385.396 278.442 386.865 276.769 388.224 275.008C393.729 267.921 397.163 259.448 398.144 250.528V250.528Z" fill="#263238"/>
<path d="M376.976 246.96C376.976 248.122 376.632 249.257 375.987 250.222C375.341 251.188 374.424 251.941 373.351 252.385C372.278 252.83 371.098 252.946 369.959 252.719C368.82 252.493 367.773 251.934 366.952 251.112C366.131 250.291 365.572 249.245 365.345 248.106C365.118 246.967 365.235 245.786 365.679 244.713C366.124 243.64 366.876 242.723 367.842 242.078C368.808 241.433 369.943 241.088 371.104 241.088C371.876 241.086 372.64 241.237 373.354 241.531C374.067 241.825 374.715 242.258 375.261 242.803C375.807 243.349 376.239 243.997 376.533 244.711C376.828 245.424 376.978 246.188 376.976 246.96V246.96Z" fill="#263238"/>
<path d="M355.952 246.96C355.952 248.122 355.608 249.258 354.962 250.224C354.316 251.19 353.398 251.943 352.324 252.387C351.25 252.831 350.068 252.946 348.929 252.718C347.789 252.49 346.743 251.929 345.922 251.107C345.102 250.284 344.544 249.236 344.319 248.096C344.094 246.956 344.213 245.775 344.66 244.702C345.107 243.629 345.862 242.713 346.83 242.07C347.797 241.427 348.934 241.085 350.096 241.088C350.867 241.088 351.629 241.24 352.341 241.535C353.053 241.831 353.699 242.264 354.243 242.809C354.787 243.354 355.218 244.002 355.511 244.714C355.805 245.427 355.954 246.19 355.952 246.96V246.96Z" fill="#263238"/>
<path d="M334.944 246.96C334.944 248.122 334.6 249.257 333.955 250.222C333.309 251.188 332.392 251.941 331.319 252.385C330.246 252.83 329.066 252.946 327.927 252.719C326.788 252.493 325.741 251.934 324.92 251.112C324.099 250.291 323.54 249.245 323.313 248.106C323.086 246.967 323.203 245.786 323.647 244.713C324.092 243.64 324.844 242.723 325.81 242.078C326.776 241.433 327.911 241.088 329.072 241.088C329.844 241.086 330.608 241.237 331.322 241.531C332.035 241.825 332.683 242.258 333.229 242.803C333.775 243.349 334.207 243.997 334.501 244.711C334.796 245.424 334.946 246.188 334.944 246.96V246.96Z" fill="#263238"/>
<path d="M479.616 315.679H349.152V387.631H479.616V315.679Z" fill="#455A64"/>
<path d="M454.464 387.632H479.616V405.823L454.464 387.632Z" fill="#455A64"/>
<path d="M424.176 328.96H365.024V330.576H424.176V328.96Z" fill="white"/>
<path d="M464.368 337.712H365.024V339.328H464.368V337.712Z" fill="white"/>
<path d="M464.368 346.464H365.024V348.08H464.368V346.464Z" fill="white"/>
<path d="M445.328 355.215H365.024V356.831H445.328V355.215Z" fill="white"/>
<path d="M464.368 363.968H365.024V365.584H464.368V363.968Z" fill="white"/>
<path d="M401.568 372.72H365.024V374.336H401.568V372.72Z" fill="white"/>
<path d="M523.264 413.808H393.68V467.184H523.264V413.808Z" fill="#0261FE"/>
<path d="M523.264 484.32V467.168H497.248L523.264 484.32Z" fill="#0261FE"/>
<path d="M507.696 427.088H409.44V428.704H507.696V427.088Z" fill="white"/>
<path d="M465.504 435.84H409.44V437.456H465.504V435.84Z" fill="white"/>
<path d="M485.216 444.593H409.44V446.209H485.216V444.593Z" fill="white"/>
<path d="M435.84 453.344H409.44V454.96H435.84V453.344Z" fill="white"/>
<path d="M683.632 652.096H468.592L502.784 492H717.824L683.632 652.096Z" fill="#EBEBEB"/>
<path d="M691.584 652.096H476.544L510.736 492H725.776L691.584 652.096Z" fill="#DBDBDB"/>
<path d="M614.795 571.757C620.629 566.365 621.625 557.954 617.019 552.97C612.414 547.986 603.95 548.316 598.116 553.707C592.281 559.099 591.285 567.51 595.891 572.494C600.497 577.478 608.96 577.148 614.795 571.757Z" fill="white"/>
<path d="M659.52 693.888H602.736L568.528 604.176H625.312L659.52 693.888Z" fill="#EBEBEB"/>
<path d="M668.864 693.888H612.08L577.888 604.176H634.672L668.864 693.888Z" fill="#A6A6A6"/>
<path opacity="0.6" d="M197.76 642.577C197.76 642.577 236.64 624.657 236.64 600.641C236.64 576.625 186.208 561.169 186.208 542.401C186.208 523.633 208.208 512.577 208.208 512.577C208.208 512.577 173.456 524.449 173.456 548.193C173.456 571.937 206.704 588.017 209.888 603.137C214.304 624.113 197.76 642.577 197.76 642.577Z" fill="#DBDBDB"/>
<path opacity="0.6" d="M199.68 642.576C199.68 642.576 160.784 628.497 160.784 609.617C160.784 590.737 211.2 578.577 211.2 563.809C211.2 549.041 189.216 540.369 189.216 540.369C189.216 540.369 224 549.697 224 568.369C224 587.041 185.824 599.873 183.088 615.041C180.384 629.905 199.68 642.576 199.68 642.576Z" fill="#DBDBDB"/>
<path d="M135.76 687.441C138.005 690.766 141.161 693.376 144.849 694.956C148.538 696.536 152.603 697.021 156.56 696.353C157.84 696.118 159.094 695.759 160.304 695.281C162.145 694.56 163.9 693.637 165.536 692.529L160.832 685.553C159.965 686.177 159.038 686.713 158.064 687.153C149.248 691.153 143.664 684.193 142.576 682.609C137.6 675.473 135.728 659.201 140.8 652.929C141.136 652.465 142.624 651.729 148.576 653.009C149.68 653.249 150.928 653.521 152.336 653.921C153.429 654.292 154.562 654.534 155.712 654.641L155.872 650.465L156.272 646.289C155.888 646.289 155.296 646.049 154.512 645.825C151.758 645.018 148.944 644.434 146.096 644.081C141.712 643.617 137.12 644.081 134.304 647.617C126.016 657.841 129.408 678.513 135.76 687.441Z" fill="#455A64"/>
<path d="M146.16 644.081L148.64 653.009C149.744 653.249 150.992 653.521 152.4 653.921C153.493 654.293 154.626 654.534 155.776 654.641L155.936 650.465L156.336 646.289C155.952 646.289 155.36 646.049 154.576 645.825C151.822 645.018 149.008 644.435 146.16 644.081V644.081Z" fill="#263238"/>
<path d="M247.376 633.169C247.376 633.169 242.928 670.865 235.264 686.753C227.6 702.641 216.912 704.353 210.256 704.353H186.064C179.424 704.353 168.72 702.577 161.056 686.753C153.392 670.929 148.96 633.169 148.96 633.169H247.376Z" fill="#455A64"/>
<path d="M165.024 643.936C165.024 644.8 164.768 645.644 164.288 646.363C163.808 647.081 163.126 647.641 162.327 647.972C161.529 648.302 160.651 648.389 159.804 648.22C158.956 648.052 158.178 647.636 157.567 647.025C156.956 646.414 156.54 645.636 156.372 644.788C156.203 643.941 156.29 643.063 156.62 642.265C156.951 641.466 157.511 640.784 158.229 640.304C158.947 639.824 159.792 639.568 160.656 639.568C161.229 639.568 161.797 639.681 162.327 639.901C162.857 640.12 163.339 640.442 163.744 640.847C164.15 641.253 164.472 641.735 164.691 642.265C164.911 642.794 165.024 643.362 165.024 643.936V643.936ZM199.216 638.656C198.352 638.656 197.507 638.912 196.789 639.392C196.071 639.872 195.511 640.554 195.18 641.353C194.85 642.151 194.763 643.029 194.932 643.876C195.1 644.724 195.516 645.502 196.127 646.113C196.738 646.724 197.516 647.14 198.364 647.308C199.211 647.477 200.089 647.39 200.887 647.06C201.686 646.729 202.368 646.169 202.848 645.451C203.328 644.732 203.584 643.888 203.584 643.024C203.584 641.866 203.124 640.755 202.304 639.935C201.485 639.116 200.374 638.656 199.216 638.656V638.656ZM199.216 693.52C198.352 693.52 197.507 693.776 196.789 694.256C196.071 694.736 195.511 695.418 195.18 696.217C194.85 697.015 194.763 697.893 194.932 698.74C195.1 699.588 195.516 700.366 196.127 700.977C196.738 701.588 197.516 702.004 198.364 702.172C199.211 702.341 200.089 702.254 200.887 701.924C201.686 701.593 202.368 701.033 202.848 700.315C203.328 699.597 203.584 698.752 203.584 697.888C203.584 696.73 203.124 695.619 202.304 694.799C201.485 693.98 200.374 693.52 199.216 693.52V693.52ZM230.896 668.8C230.032 668.8 229.187 669.056 228.469 669.536C227.751 670.016 227.191 670.698 226.86 671.497C226.53 672.295 226.443 673.173 226.612 674.02C226.78 674.868 227.196 675.646 227.807 676.257C228.418 676.868 229.196 677.284 230.044 677.452C230.891 677.621 231.769 677.534 232.567 677.204C233.366 676.873 234.048 676.313 234.528 675.595C235.008 674.876 235.264 674.032 235.264 673.168C235.264 672.01 234.804 670.899 233.984 670.079C233.165 669.26 232.054 668.8 230.896 668.8V668.8ZM182.4 681.68C181.536 681.68 180.691 681.936 179.973 682.416C179.255 682.896 178.695 683.578 178.364 684.377C178.034 685.175 177.947 686.053 178.116 686.9C178.284 687.748 178.7 688.526 179.311 689.137C179.922 689.748 180.7 690.164 181.548 690.332C182.395 690.501 183.273 690.414 184.071 690.084C184.87 689.753 185.552 689.193 186.032 688.475C186.512 687.756 186.768 686.912 186.768 686.048C186.768 684.89 186.308 683.779 185.488 682.959C184.669 682.14 183.558 681.68 182.4 681.68V681.68ZM233.6 638.656C232.736 638.656 231.891 638.912 231.173 639.392C230.455 639.872 229.895 640.554 229.564 641.353C229.234 642.151 229.147 643.029 229.316 643.876C229.484 644.724 229.9 645.502 230.511 646.113C231.122 646.724 231.9 647.14 232.748 647.308C233.595 647.477 234.473 647.39 235.271 647.06C236.07 646.729 236.752 646.169 237.232 645.451C237.712 644.732 237.968 643.888 237.968 643.024C237.968 641.866 237.508 640.755 236.688 639.935C235.869 639.116 234.758 638.656 233.6 638.656V638.656ZM198.64 668.096C197.776 668.096 196.931 668.352 196.213 668.832C195.495 669.312 194.935 669.994 194.604 670.793C194.274 671.591 194.187 672.469 194.356 673.316C194.524 674.164 194.94 674.942 195.551 675.553C196.162 676.164 196.94 676.58 197.788 676.748C198.635 676.917 199.513 676.83 200.311 676.5C201.11 676.169 201.792 675.609 202.272 674.891C202.752 674.172 203.008 673.328 203.008 672.464C203.008 671.314 202.554 670.21 201.745 669.392C200.937 668.574 199.838 668.109 198.688 668.096H198.64ZM165.52 668.784C164.656 668.784 163.811 669.04 163.093 669.52C162.375 670 161.815 670.682 161.484 671.48C161.154 672.279 161.067 673.157 161.236 674.004C161.404 674.852 161.82 675.63 162.431 676.241C163.042 676.852 163.82 677.268 164.668 677.436C165.515 677.605 166.393 677.518 167.191 677.188C167.99 676.857 168.672 676.297 169.152 675.579C169.632 674.86 169.888 674.016 169.888 673.152C169.884 672.005 169.428 670.905 168.62 670.091C167.812 669.276 166.715 668.813 165.568 668.8L165.52 668.784ZM216.608 654.16C215.744 654.16 214.899 654.416 214.181 654.896C213.463 655.376 212.903 656.058 212.572 656.857C212.242 657.655 212.155 658.533 212.324 659.38C212.492 660.228 212.908 661.006 213.519 661.617C214.13 662.228 214.908 662.644 215.756 662.812C216.603 662.981 217.481 662.894 218.279 662.564C219.078 662.233 219.76 661.673 220.24 660.955C220.72 660.236 220.976 659.392 220.976 658.528C220.976 657.378 220.522 656.274 219.713 655.456C218.905 654.638 217.806 654.173 216.656 654.16H216.608ZM215.424 682.4C214.559 682.397 213.713 682.65 212.993 683.128C212.272 683.606 211.71 684.288 211.377 685.085C211.044 685.883 210.955 686.762 211.122 687.61C211.289 688.459 211.703 689.239 212.314 689.851C212.924 690.463 213.702 690.881 214.55 691.051C215.398 691.221 216.277 691.135 217.076 690.805C217.875 690.475 218.558 689.915 219.039 689.196C219.519 688.478 219.776 687.633 219.776 686.768C219.776 685.621 219.325 684.519 218.519 683.702C217.714 682.884 216.619 682.417 215.472 682.4H215.424ZM180.224 654.16C179.359 654.157 178.513 654.41 177.793 654.888C177.072 655.366 176.51 656.048 176.177 656.845C175.844 657.643 175.755 658.522 175.922 659.37C176.089 660.219 176.503 660.999 177.114 661.611C177.724 662.223 178.502 662.641 179.35 662.811C180.198 662.981 181.077 662.895 181.876 662.565C182.675 662.235 183.358 661.675 183.839 660.956C184.319 660.238 184.576 659.393 184.576 658.528C184.576 657.383 184.127 656.284 183.325 655.467C182.523 654.65 181.432 654.181 180.288 654.16H180.224Z" fill="#37474F"/>
</svg>
