<svg width="48" height="48" viewBox="0 0 48 48" fill="none" xmlns="http://www.w3.org/2000/svg">
<g clip-path="url(#clip0_1925_2673)">
<mask id="mask0_1925_2673" style="mask-type:luminance" maskUnits="userSpaceOnUse" x="0" y="0" width="48" height="49">
<path d="M48 0.000366211H0V48.0004H48V0.000366211Z" fill="white"/>
</mask>
<g mask="url(#mask0_1925_2673)">
<path d="M46 24.0004C45.9579 22.4879 45.4966 21.0151 44.6654 19.7484C43.8366 18.484 42.6705 17.4726 41.2985 16.8311C41.8206 15.4098 41.9306 13.8715 41.6262 12.3894C41.3195 10.9049 40.603 9.53753 39.5611 8.43939C38.4606 7.39746 37.0955 6.68333 35.6111 6.37426C34.129 6.06987 32.5907 6.17993 31.1694 6.70206C30.5302 5.32765 29.5211 4.15927 28.2543 3.33041C26.9877 2.50155 25.5149 2.03794 24.0001 2.00049C22.4874 2.04029 21.0194 2.49921 19.755 3.33041C18.4906 4.16162 17.4862 5.32998 16.8517 6.70206C15.4281 6.17993 13.8851 6.06519 12.3983 6.37426C10.9115 6.67865 9.54172 7.39511 8.44125 8.43939C7.39932 9.53986 6.68753 10.9096 6.38548 12.3917C6.08111 13.8738 6.19817 15.4122 6.72265 16.8311C5.34824 17.4726 4.17752 18.4818 3.34397 19.7462C2.51043 21.0104 2.04449 22.4856 2 24.0004C2.04683 25.5154 2.51043 26.9882 3.34397 28.2548C4.17752 29.5192 5.34824 30.5307 6.72265 31.1699C6.19817 32.5888 6.08111 34.1271 6.38548 35.6092C6.68987 37.0938 7.39932 38.4611 8.43891 39.5615C9.53939 40.5988 10.9068 41.3106 12.3889 41.6174C13.871 41.9264 15.4094 41.814 16.8306 41.2988C17.4722 42.671 18.4813 43.837 19.7479 44.6682C21.0123 45.4971 22.4874 45.9583 24.0001 46.0004C25.5149 45.963 26.9877 45.5018 28.2543 44.6728C29.5211 43.844 30.5302 42.6734 31.1694 41.3012C32.5837 41.8608 34.1337 41.9943 35.6251 41.6852C37.1143 41.3762 38.4817 40.6386 39.5587 39.5615C40.6358 38.4846 41.3757 37.1171 41.6847 35.6256C41.9938 34.1342 41.8603 32.5842 41.2985 31.1699C42.6705 30.5283 43.8366 29.5192 44.6678 28.2524C45.4966 26.9882 45.9579 25.513 46 24.0004Z" fill="white" stroke="white" stroke-width="2"/>
<path d="M46 24.0004C45.9579 22.4879 45.4966 21.0151 44.6654 19.7484C43.8366 18.484 42.6705 17.4726 41.2985 16.8311C41.8206 15.4098 41.9306 13.8715 41.6262 12.3894C41.3195 10.9049 40.603 9.53753 39.5611 8.43939C38.4606 7.39746 37.0955 6.68333 35.6111 6.37426C34.129 6.06987 32.5907 6.17993 31.1694 6.70206C30.5302 5.32765 29.5211 4.15927 28.2543 3.33041C26.9877 2.50155 25.5149 2.03794 24.0001 2.00049C22.4874 2.04029 21.0194 2.49921 19.755 3.33041C18.4906 4.16162 17.4862 5.32998 16.8517 6.70206C15.4281 6.17993 13.8851 6.06519 12.3983 6.37426C10.9115 6.67865 9.54172 7.39511 8.44125 8.43939C7.39932 9.53986 6.68753 10.9096 6.38548 12.3917C6.08111 13.8738 6.19817 15.4122 6.72265 16.8311C5.34824 17.4726 4.17752 18.4818 3.34397 19.7462C2.51043 21.0104 2.04449 22.4856 2 24.0004C2.04683 25.5154 2.51043 26.9882 3.34397 28.2548C4.17752 29.5192 5.34824 30.5307 6.72265 31.1699C6.19817 32.5888 6.08111 34.1271 6.38548 35.6092C6.68987 37.0938 7.39932 38.4611 8.43891 39.5615C9.53939 40.5988 10.9068 41.3106 12.3889 41.6174C13.871 41.9264 15.4094 41.814 16.8306 41.299C17.4722 42.671 18.4813 43.837 19.7479 44.6682C21.0123 45.4971 22.4874 45.9583 24.0001 46.0004C25.5149 45.963 26.9877 45.5018 28.2543 44.6728C29.5211 43.844 30.5302 42.6734 31.1694 41.3012C32.5837 41.8608 34.1337 41.9943 35.6251 41.6852C37.1143 41.3762 38.4817 40.6386 39.5587 39.5615C40.6358 38.4846 41.3757 37.1171 41.6847 35.6256C41.9938 34.1342 41.8603 32.5842 41.2985 31.1699C42.6705 30.5283 43.8366 29.5192 44.6678 28.2524C45.4966 26.9882 45.9579 25.513 46 24.0004ZM20.8671 33.015L12.8384 24.9886L15.8659 21.94L20.7174 26.7915L31.0197 15.5667L34.1735 18.484L20.8671 33.015Z" fill="#0261FE"/>
</g>
</g>
<defs>
<clipPath id="clip0_1925_2673">
<rect width="48" height="48" fill="white"/>
</clipPath>
</defs>
</svg>
