<svg width="102" height="40" viewBox="0 0 102 40" fill="none" xmlns="http://www.w3.org/2000/svg">
<g id="Group 889">
<g id="Group 863">
<path id="Ellipse 116 (Stroke)" fill-rule="evenodd" clip-rule="evenodd" d="M11.4732 11.5539C10.321 12.7141 9.40707 14.0914 8.78352 15.6073C8.15997 17.1232 7.83903 18.7479 7.83903 20.3887C7.83903 22.0294 8.15997 23.6541 8.78352 25.17C9.40707 26.6859 10.321 28.0633 11.4732 29.2235C12.6253 30.3837 13.9932 31.304 15.4985 31.9319C17.0039 32.5598 18.6174 32.883 20.2468 32.883C21.8762 32.883 23.4897 32.5598 24.995 31.9319L25.7255 33.7078C23.9886 34.4323 22.1269 34.8052 20.2468 34.8052C18.3667 34.8052 16.505 34.4323 14.768 33.7078C13.0311 32.9833 11.4528 31.9214 10.1234 30.5827C8.79397 29.244 7.73942 27.6547 7.01994 25.9056C6.30046 24.1565 5.93015 22.2819 5.93015 20.3887C5.93015 18.4955 6.30046 16.6208 7.01994 14.8717C7.73942 13.1226 8.79397 11.5334 10.1234 10.1947C11.4528 8.85598 13.0311 7.79407 14.7681 7.06958C16.505 6.34508 18.3667 5.97219 20.2468 5.97219C22.1269 5.97219 23.9886 6.34508 25.7255 7.06958C27.4625 7.79407 29.0408 8.85598 30.3702 10.1947C31.6996 11.5334 32.7542 13.1226 33.4736 14.8717C34.1931 16.6208 34.5634 18.4955 34.5634 20.3887C34.5634 22.2819 34.1931 24.1565 33.4736 25.9056L31.7101 25.17C32.3336 23.6541 32.6546 22.0294 32.6546 20.3887C32.6546 18.7479 32.3336 17.1232 31.7101 15.6073C31.0865 14.0914 30.1726 12.7141 29.0204 11.5539C27.8682 10.3937 26.5004 9.47335 24.995 8.84546C23.4897 8.21756 21.8762 7.89439 20.2468 7.89439C18.6174 7.89439 17.0039 8.21756 15.4986 8.84546C13.9932 9.47335 12.6254 10.3937 11.4732 11.5539Z" fill="#0261FE"/>
<path id="Ellipse 117 (Stroke)" fill-rule="evenodd" clip-rule="evenodd" d="M14.1727 14.2723C13.3751 15.0755 12.7423 16.029 12.3106 17.0785C11.879 18.128 11.6568 19.2528 11.6568 20.3887C11.6568 21.5246 11.879 22.6494 12.3106 23.6988C12.7423 24.7483 13.3751 25.7019 14.1727 26.5051C14.9704 27.3083 15.9173 27.9454 16.9595 28.3801C18.0017 28.8148 19.1187 29.0386 20.2468 29.0386C21.3748 29.0386 22.4918 28.8148 23.534 28.3801L23.7781 28.2783L28.8321 29.0339L28.0818 23.9446L28.1829 23.6988C28.6146 22.6494 28.8367 21.5246 28.8367 20.3887C28.8367 19.2528 28.6146 18.128 28.1829 17.0785C27.7512 16.029 27.1184 15.0755 26.3208 14.2723C25.5231 13.4691 24.5762 12.8319 23.534 12.3972C22.4918 11.9625 21.3748 11.7388 20.2468 11.7388C19.1187 11.7388 18.0017 11.9625 16.9595 12.3972C15.9173 12.8319 14.9704 13.4691 14.1727 14.2723ZM10.5471 16.3429C11.0747 15.0602 11.848 13.8948 12.8229 12.9131C13.7978 11.9314 14.9552 11.1526 16.229 10.6213C17.5028 10.09 18.868 9.81659 20.2468 9.81658C21.6255 9.81659 22.9907 10.09 24.2645 10.6213C25.5383 11.1526 26.6957 11.9314 27.6706 12.9131C28.6455 13.8948 29.4188 15.0602 29.9465 16.3429C30.4741 17.6256 30.7456 19.0003 30.7456 20.3887C30.7456 21.6863 30.5084 22.9721 30.0466 24.1819L31.0983 31.3159L24.0137 30.2568C22.8123 30.7219 21.5354 30.9608 20.2468 30.9608C18.868 30.9608 17.5028 30.6873 16.229 30.156C14.9552 29.6247 13.7978 28.846 12.8229 27.8643C11.848 26.8826 11.0747 25.7171 10.5471 24.4344C10.0194 23.1518 9.74788 21.777 9.74788 20.3887C9.74788 19.0003 10.0194 17.6256 10.5471 16.3429Z" fill="#0261FE"/>
<g id="Group 56">
<path id="Ellipse 85" d="M17.5742 20.3877C17.5742 21.0247 17.0615 21.541 16.4289 21.541C15.7964 21.541 15.2836 21.0247 15.2836 20.3877C15.2836 19.7507 15.7964 19.2344 16.4289 19.2344C17.0615 19.2344 17.5742 19.7507 17.5742 20.3877Z" fill="#0261FE"/>
<path id="Ellipse 86" d="M21.3917 20.3877C21.3917 21.0247 20.879 21.541 20.2464 21.541C19.6139 21.541 19.1011 21.0247 19.1011 20.3877C19.1011 19.7507 19.6139 19.2344 20.2464 19.2344C20.879 19.2344 21.3917 19.7507 21.3917 20.3877Z" fill="#0261FE"/>
<path id="Ellipse 87" d="M25.21 20.3877C25.21 21.0247 24.6973 21.541 24.0647 21.541C23.4322 21.541 22.9194 21.0247 22.9194 20.3877C22.9194 19.7507 23.4322 19.2344 24.0647 19.2344C24.6973 19.2344 25.21 19.7507 25.21 20.3877Z" fill="#0261FE"/>
</g>
</g>
<g id="Helpert">
<path d="M52.5107 26.7225H55.1232V15.9225H52.5107V20.1533H48.4467V15.9225H45.8342V26.7225H48.4467V22.2764H52.5107V26.7225Z" fill="black"/>
<path d="M60.7676 20.1225C61.6385 20.1225 62.3718 20.661 62.3718 21.5994H59.1023C59.2551 20.6456 59.9121 20.1225 60.7676 20.1225ZM64.8469 23.8764H62.0663C61.8524 24.3379 61.4399 24.7071 60.7065 24.7071C59.8662 24.7071 59.1787 24.184 59.0871 23.061H64.9997C65.0302 22.7994 65.0455 22.5379 65.0455 22.2917C65.0455 19.6764 63.2885 18.0148 60.7982 18.0148C58.262 18.0148 56.4898 19.7071 56.4898 22.4302C56.4898 25.1533 58.2926 26.8456 60.7982 26.8456C62.9219 26.8456 64.4344 25.5533 64.8469 23.8764Z" fill="black"/>
<path d="M66.4238 26.7225H69.0363V15.3379H66.4238V26.7225Z" fill="black"/>
<path d="M73.5421 19.3533V18.1379H70.9296V30.8148H73.5421V25.5225C74.0158 26.2456 74.9172 26.8456 76.17 26.8456C78.2631 26.8456 79.9284 25.1225 79.9284 22.4148C79.9284 19.7071 78.2631 18.0148 76.17 18.0148C74.9172 18.0148 74.0158 18.5994 73.5421 19.3533ZM77.27 22.4148C77.27 23.784 76.3839 24.5533 75.3908 24.5533C74.413 24.5533 73.5269 23.7994 73.5269 22.4302C73.5269 21.061 74.413 20.3071 75.3908 20.3071C76.3839 20.3071 77.27 21.0456 77.27 22.4148Z" fill="black"/>
<path d="M85.0574 20.1225C85.9282 20.1225 86.6616 20.661 86.6616 21.5994H83.3921C83.5449 20.6456 84.2018 20.1225 85.0574 20.1225ZM89.1366 23.8764H86.356C86.1421 24.3379 85.7296 24.7071 84.9963 24.7071C84.156 24.7071 83.4685 24.184 83.3768 23.061H89.2894C89.32 22.7994 89.3353 22.5379 89.3353 22.2917C89.3353 19.6764 87.5783 18.0148 85.088 18.0148C82.5518 18.0148 80.7795 19.7071 80.7795 22.4302C80.7795 25.1533 82.5824 26.8456 85.088 26.8456C87.2116 26.8456 88.7241 25.5533 89.1366 23.8764Z" fill="black"/>
<path d="M93.3261 22.7379C93.3261 21.261 94.0441 20.8302 95.2817 20.8302H95.9997V18.0456C94.8539 18.0456 93.9219 18.661 93.3261 19.5687V18.1379H90.7135V26.7225H93.3261V22.7379Z" fill="black"/>
<path d="M97.661 23.7379C97.661 25.9687 98.8985 26.7225 100.671 26.7225H102V24.4917H101.068C100.487 24.4917 100.274 24.2764 100.274 23.7687V20.3225H101.985V18.1379H100.274V16.0456H97.661V18.1379H96.6221V20.3225H97.661V23.7379Z" fill="black"/>
</g>
</g>
</svg>
