<svg width="31" height="30" viewBox="0 0 31 30" fill="none" xmlns="http://www.w3.org/2000/svg">
<g clip-path="url(#clip0_1925_3067)">
<path d="M24.25 3.75H19.025C18.5 2.3 17.125 1.25 15.5 1.25C13.875 1.25 12.5 2.3 11.975 3.75H6.75C5.375 3.75 4.25 4.875 4.25 6.25V23.75C4.25 25.125 5.375 26.25 6.75 26.25H24.25C25.625 26.25 26.75 25.125 26.75 23.75V6.25C26.75 4.875 25.625 3.75 24.25 3.75ZM15.5 3.75C16.1875 3.75 16.75 4.3125 16.75 5C16.75 5.6875 16.1875 6.25 15.5 6.25C14.8125 6.25 14.25 5.6875 14.25 5C14.25 4.3125 14.8125 3.75 15.5 3.75ZM16.75 21.25H10.5C9.8125 21.25 9.25 20.6875 9.25 20C9.25 19.3125 9.8125 18.75 10.5 18.75H16.75C17.4375 18.75 18 19.3125 18 20C18 20.6875 17.4375 21.25 16.75 21.25ZM20.5 16.25H10.5C9.8125 16.25 9.25 15.6875 9.25 15C9.25 14.3125 9.8125 13.75 10.5 13.75H20.5C21.1875 13.75 21.75 14.3125 21.75 15C21.75 15.6875 21.1875 16.25 20.5 16.25ZM20.5 11.25H10.5C9.8125 11.25 9.25 10.6875 9.25 10C9.25 9.3125 9.8125 8.75 10.5 8.75H20.5C21.1875 8.75 21.75 9.3125 21.75 10C21.75 10.6875 21.1875 11.25 20.5 11.25Z" fill="#0261FE"/>
</g>
<defs>
<clipPath id="clip0_1925_3067">
<rect width="30" height="30" fill="white" transform="translate(0.5)"/>
</clipPath>
</defs>
</svg>
