<svg width="31" height="30" viewBox="0 0 31 30" fill="none" xmlns="http://www.w3.org/2000/svg">
<g clip-path="url(#clip0_1925_3072)">
<path d="M4.25 26.25H25.5C26.1875 26.25 26.75 25.6875 26.75 25V23.75C26.75 23.0625 26.1875 22.5 25.5 22.5H4.25C3.5625 22.5 3 23.0625 3 23.75V25C3 25.6875 3.5625 26.25 4.25 26.25ZM25.5 10H4.25C3.5625 10 3 10.5625 3 11.25V18.75C3 19.4375 3.5625 20 4.25 20H25.5C26.1875 20 26.75 19.4375 26.75 18.75V11.25C26.75 10.5625 26.1875 10 25.5 10ZM3 5V6.25C3 6.9375 3.5625 7.5 4.25 7.5H25.5C26.1875 7.5 26.75 6.9375 26.75 6.25V5C26.75 4.3125 26.1875 3.75 25.5 3.75H4.25C3.5625 3.75 3 4.3125 3 5Z" fill="#0261FE"/>
</g>
<defs>
<clipPath id="clip0_1925_3072">
<rect width="30" height="30" fill="white" transform="translate(0.5)"/>
</clipPath>
</defs>
</svg>
