<svg width="49" height="48" viewBox="0 0 49 48" fill="none" xmlns="http://www.w3.org/2000/svg">
<g clip-path="url(#clip0_1916_1120)">
<path d="M33.5712 0.024021C33.4692 -0.089979 29.7942 0.0690211 26.5962 3.54002C23.3982 7.00802 23.8902 10.986 23.9622 11.088C24.0342 11.19 28.5222 11.349 31.3872 7.31402C34.2522 3.27902 33.6732 0.141021 33.5712 0.024021ZM43.5132 35.223C43.3692 34.935 36.5382 31.521 37.1742 24.957C37.8102 18.39 42.1992 16.59 42.2682 16.395C42.3372 16.2 40.4772 14.025 38.5062 12.924C37.059 12.1478 35.4574 11.703 33.8172 11.622C33.4932 11.613 32.3682 11.337 30.0552 11.97C28.5312 12.387 25.0962 13.737 24.1512 13.791C23.2032 13.845 20.3832 12.225 17.3502 11.796C15.4092 11.421 13.3512 12.189 11.8782 12.78C10.4082 13.368 7.61217 15.042 5.65617 19.491C3.70017 23.937 4.72317 30.981 5.45517 33.171C6.18717 35.358 7.33017 38.943 9.27417 41.559C11.0022 44.511 13.2942 46.56 14.2512 47.256C15.2082 47.952 17.9082 48.414 19.7802 47.457C21.2862 46.533 24.0042 46.002 25.0782 46.041C26.1492 46.08 28.2612 46.503 30.4242 47.658C32.1372 48.249 33.7572 48.003 35.3802 47.343C37.0032 46.68 39.3522 44.166 42.0942 39.069C43.1352 36.699 43.6092 35.418 43.5132 35.223Z" fill="white"/>
<path d="M33.5712 0.024021C33.4692 -0.089979 29.7942 0.0690211 26.5962 3.54002C23.3982 7.00802 23.8902 10.986 23.9622 11.088C24.0342 11.19 28.5222 11.349 31.3872 7.31402C34.2522 3.27902 33.6732 0.141021 33.5712 0.024021ZM43.5132 35.223C43.3692 34.935 36.5382 31.521 37.1742 24.957C37.8102 18.39 42.1992 16.59 42.2682 16.395C42.3372 16.2 40.4772 14.025 38.5062 12.924C37.059 12.1478 35.4574 11.703 33.8172 11.622C33.4932 11.613 32.3682 11.337 30.0552 11.97C28.5312 12.387 25.0962 13.737 24.1512 13.791C23.2032 13.845 20.3832 12.225 17.3502 11.796C15.4092 11.421 13.3512 12.189 11.8782 12.78C10.4082 13.368 7.61217 15.042 5.65617 19.491C3.70017 23.937 4.72317 30.981 5.45517 33.171C6.18717 35.358 7.33017 38.943 9.27417 41.559C11.0022 44.511 13.2942 46.56 14.2512 47.256C15.2082 47.952 17.9082 48.414 19.7802 47.457C21.2862 46.533 24.0042 46.002 25.0782 46.041C26.1492 46.08 28.2612 46.503 30.4242 47.658C32.1372 48.249 33.7572 48.003 35.3802 47.343C37.0032 46.68 39.3522 44.166 42.0942 39.069C43.1352 36.699 43.6092 35.418 43.5132 35.223Z" fill="white"/>
</g>
<defs>
<clipPath id="clip0_1916_1120">
<rect width="48" height="48" fill="white" transform="translate(0.0253906)"/>
</clipPath>
</defs>
</svg>
