<svg width="18" height="15" viewBox="0 0 18 15" fill="none" xmlns="http://www.w3.org/2000/svg">
<g clip-path="url(#clip0_1925_1087)">
<path d="M16.9073 13.2011C16.9073 13.8677 17.2888 14.4452 17.8448 14.7274V14.9608C17.2958 15.0373 16.7366 14.9815 16.2136 14.798C15.6906 14.6145 15.2191 14.3088 14.8382 13.9061C14.4427 14.011 14.0352 14.064 13.626 14.0636C11.2963 14.0636 9.40727 12.3846 9.40727 10.3136C9.40727 8.24271 11.2963 6.56364 13.626 6.56364C15.9557 6.56364 17.8448 8.24271 17.8448 10.3136C17.8448 11.1246 17.5551 11.8746 17.0629 12.4886C16.9599 12.7123 16.9068 12.9549 16.9073 13.2011ZM4.34852 3.2402C3.3782 4.02864 2.84477 5.04208 2.84477 6.09395C2.84477 6.68458 3.00883 7.25645 3.33227 7.79552C3.66602 8.35052 4.16664 8.85864 4.78258 9.26364C5.22695 9.55614 5.52602 10.0249 5.6057 10.5508C5.63195 10.7261 5.64883 10.9033 5.65539 11.0796C5.76508 10.9886 5.87102 10.8911 5.97602 10.7871C6.17832 10.5847 6.42426 10.4314 6.69498 10.3388C6.9657 10.2461 7.25404 10.2167 7.53789 10.2527C7.84445 10.2921 8.15852 10.3118 8.46977 10.3118V12.1868C8.07227 12.1868 7.68227 12.1615 7.30164 12.1127C5.69102 13.7233 3.76727 14.013 1.9082 14.0552V13.6605C2.91227 13.1683 3.7832 12.273 3.7832 11.2493C3.78306 11.1087 3.7724 10.9683 3.75133 10.8293C2.05539 9.71177 0.970703 8.00552 0.970703 6.09302C0.970703 2.72739 4.32883 -0.000732422 8.4707 -0.000732422C12.5498 -0.000732422 15.8676 2.64489 15.9679 5.93927C15.355 5.66754 14.699 5.506 14.0301 5.46208C13.8613 4.64083 13.3654 3.86833 12.591 3.23927C12.0499 2.80616 11.4368 2.47168 10.7798 2.25114C10.0513 2.00083 9.27414 1.87427 8.46977 1.87427C7.66539 1.87427 6.8882 2.00083 6.15977 2.25114C5.47539 2.48645 4.86602 2.81833 4.34852 3.23927V3.2402Z" fill="#263238"/>
</g>
<defs>
<clipPath id="clip0_1925_1087">
<rect width="16.875" height="15" fill="white" transform="translate(0.969727)"/>
</clipPath>
</defs>
</svg>
