<svg width="42" height="48" viewBox="0 0 42 48" fill="none" xmlns="http://www.w3.org/2000/svg">
<g clip-path="url(#clip0_1916_1128)">
<path d="M26.9324 14.631L1.56775 0.133608C1.41071 0.0442719 1.23279 -0.00181296 1.05212 5.45845e-05C0.871456 0.00192213 0.694519 0.0516752 0.539358 0.144239C0.383219 0.233082 0.253404 0.361704 0.163124 0.517015C0.072843 0.672327 0.02532 0.848784 0.0253907 1.02843C0.0253907 1.02843 0.0355591 2.36511 0.0457275 4.56519L18.5222 23.0412L26.9324 14.631Z" fill="url(#paint0_linear_1916_1128)"/>
<path d="M0.0458984 4.56519C0.0768659 12.5026 0.169306 31.7703 0.210442 41.3633L18.5339 23.0412L0.0458984 4.56519Z" fill="url(#paint1_linear_1916_1128)"/>
<path d="M41.4503 22.9283L26.9326 14.6309L18.5117 23.0429L28.0118 32.543L41.4618 24.7082C41.6172 24.6185 41.7464 24.4897 41.8366 24.3346C41.9268 24.1795 41.9747 24.0034 41.9758 23.824C41.9742 23.6418 41.9249 23.4632 41.8327 23.306C41.7404 23.1488 41.6086 23.0185 41.4503 22.9283Z" fill="url(#paint2_linear_1916_1128)"/>
<path d="M0.200195 41.3627C0.220532 44.7867 0.231163 46.9766 0.231163 46.9766C0.229641 47.1566 0.276553 47.3336 0.366982 47.4891C0.45741 47.6447 0.588023 47.7731 0.74513 47.8608C0.901179 47.9517 1.07852 47.9995 1.2591 47.9995C1.43967 47.9995 1.61702 47.9517 1.77306 47.8608L28.0219 32.5513L18.5223 23.0513L0.200195 41.3627Z" fill="url(#paint3_linear_1916_1128)"/>
</g>
<defs>
<linearGradient id="paint0_linear_1916_1128" x1="0.0253906" y1="11.5206" x2="26.9324" y2="11.5206" gradientUnits="userSpaceOnUse">
<stop stop-color="#63BE6B"/>
<stop offset="0.506" stop-color="#5BBC6A"/>
<stop offset="1" stop-color="#4AB96A"/>
</linearGradient>
<linearGradient id="paint1_linear_1916_1128" x1="0.0458984" y1="22.9642" x2="18.5154" y2="22.9642" gradientUnits="userSpaceOnUse">
<stop stop-color="#3EC6F2"/>
<stop offset="1" stop-color="#45AFE3"/>
</linearGradient>
<linearGradient id="paint2_linear_1916_1128" x1="18.5117" y1="23.5869" x2="41.9758" y2="23.5869" gradientUnits="userSpaceOnUse">
<stop stop-color="#FAA51A"/>
<stop offset="0.387" stop-color="#FAB716"/>
<stop offset="0.741" stop-color="#FAC412"/>
<stop offset="1" stop-color="#FAC80F"/>
</linearGradient>
<linearGradient id="paint3_linear_1916_1128" x1="0.200195" y1="35.5254" x2="28.0219" y2="35.5254" gradientUnits="userSpaceOnUse">
<stop stop-color="#EC3B50"/>
<stop offset="1" stop-color="#E7515B"/>
</linearGradient>
<clipPath id="clip0_1916_1128">
<rect width="41.9493" height="48" fill="white" transform="translate(0.0253906)"/>
</clipPath>
</defs>
</svg>
