<svg width="36" height="37" viewBox="0 0 36 37" fill="none" xmlns="http://www.w3.org/2000/svg">
<mask id="mask0_1925_1071" style="mask-type:luminance" maskUnits="userSpaceOnUse" x="0" y="0" width="36" height="37">
<path d="M36 0.320068H0V36.8001H36V0.320068Z" fill="white"/>
</mask>
<g mask="url(#mask0_1925_1071)">
<path d="M34.5 18.5601C34.4684 17.4105 34.1224 16.2912 33.499 15.3285C32.8774 14.3676 32.0028 13.5989 30.9738 13.1114C31.3654 12.0311 31.4479 10.8621 31.2196 9.73564C30.9896 8.60745 30.4522 7.56824 29.6708 6.73366C28.8454 5.94179 27.8216 5.39905 26.7083 5.16416C25.5967 4.93282 24.443 5.01646 23.377 5.41328C22.8976 4.36873 22.1408 3.48077 21.1907 2.85083C20.2407 2.2209 19.1361 1.86855 18 1.84009C16.8655 1.87034 15.7645 2.21912 14.8162 2.85083C13.8679 3.48255 13.1146 4.3705 12.6387 5.41328C11.571 5.01646 10.4138 4.92926 9.29869 5.16416C8.18359 5.39549 7.15629 5.94 6.33094 6.73366C5.54949 7.57001 5.01565 8.61101 4.78911 9.73742C4.56083 10.8638 4.64863 12.033 5.04199 13.1114C4.01118 13.5989 3.13314 14.3659 2.50798 15.3268C1.88282 16.2877 1.53337 17.4088 1.5 18.5601C1.53512 19.7114 1.88282 20.8307 2.50798 21.7934C3.13314 22.7543 4.01118 23.5231 5.04199 24.0089C4.64863 25.0872 4.56083 26.2563 4.78911 27.3827C5.0174 28.511 5.54949 29.5502 6.32918 30.3865C7.15454 31.1748 8.18008 31.7158 9.29167 31.9489C10.4032 32.1838 11.557 32.0984 12.6229 31.7068C13.1041 32.7497 13.8609 33.6358 14.8109 34.2675C15.7592 34.8975 16.8655 35.248 18 35.2801C19.1361 35.2516 20.2407 34.9011 21.1907 34.2711C22.1408 33.6412 22.8976 32.7515 23.377 31.7087C24.4377 32.134 25.6002 32.2354 26.7188 32.0005C27.8357 31.7656 28.8612 31.205 29.669 30.3865C30.4768 29.568 31.0317 28.5287 31.2635 27.3952C31.4953 26.2617 31.3952 25.0837 30.9738 24.0089C32.0028 23.5212 32.8774 22.7543 33.5008 21.7916C34.1224 20.8307 34.4684 19.7096 34.5 18.5601Z" fill="white" stroke="white" stroke-width="2"/>
<path d="M34.5 18.5601C34.4684 17.4105 34.1224 16.2912 33.499 15.3285C32.8774 14.3676 32.0028 13.5989 30.9738 13.1114C31.3654 12.0311 31.4479 10.8621 31.2196 9.73564C30.9896 8.60745 30.4522 7.56824 29.6708 6.73366C28.8454 5.94179 27.8216 5.39905 26.7083 5.16416C25.5967 4.93282 24.443 5.01646 23.377 5.41328C22.8976 4.36873 22.1408 3.48077 21.1907 2.85083C20.2407 2.2209 19.1361 1.86855 18 1.84009C16.8655 1.87034 15.7645 2.21912 14.8162 2.85083C13.8679 3.48255 13.1146 4.3705 12.6387 5.41328C11.571 5.01646 10.4138 4.92926 9.29869 5.16416C8.18359 5.39549 7.15629 5.94 6.33094 6.73366C5.54949 7.57001 5.01565 8.61101 4.78911 9.73742C4.56083 10.8638 4.64863 12.033 5.04199 13.1114C4.01118 13.5989 3.13314 14.3659 2.50798 15.3268C1.88282 16.2877 1.53337 17.4088 1.5 18.5601C1.53512 19.7114 1.88282 20.8307 2.50798 21.7934C3.13314 22.7543 4.01118 23.5231 5.04199 24.0089C4.64863 25.0872 4.56083 26.2563 4.78911 27.3827C5.0174 28.511 5.54949 29.5502 6.32918 30.3865C7.15454 31.1748 8.18008 31.7158 9.29167 31.9489C10.4032 32.1838 11.557 32.0984 12.6229 31.7069C13.1041 32.7497 13.8609 33.6358 14.8109 34.2675C15.7592 34.8975 16.8655 35.248 18 35.2801C19.1361 35.2516 20.2407 34.9011 21.1907 34.2711C22.1408 33.6412 22.8976 32.7515 23.377 31.7087C24.4377 32.134 25.6002 32.2354 26.7188 32.0005C27.8357 31.7656 28.8612 31.205 29.669 30.3865C30.4768 29.568 31.0317 28.5287 31.2635 27.3952C31.4953 26.2617 31.3952 25.0837 30.9738 24.0089C32.0028 23.5212 32.8774 22.7543 33.5008 21.7916C34.1224 20.8307 34.4684 19.7096 34.5 18.5601ZM15.6503 25.4111L9.62883 19.311L11.8994 16.9942L15.538 20.6813L23.2647 12.1504L25.6301 14.3676L15.6503 25.4111Z" fill="#0261FE"/>
</g>
</svg>
